<?xml version="1.0" standalone="no"?><!DOCTYPE svg PUBLIC "-//W3C//DTD SVG 1.1//EN" "http://www.w3.org/Graphics/SVG/1.1/DTD/svg11.dtd"><svg height="1024" node-id="1" sillyvg="true" template-height="1024" template-width="1024" version="1.1" viewBox="0 0 1024 1024" width="1024" xmlns="http://www.w3.org/2000/svg" xmlns:xlink="http://www.w3.org/1999/xlink"><defs node-id="75"></defs><path d="M 0.00 0.00 L 1024.00 0.00 L 1024.00 1024.00 L 0.00 1024.00 Z" fill="#515629" fill-opacity="0" fill-rule="nonzero" node-id="77" stroke="none" target-height="1024" target-width="1024" target-x="0" target-y="0"></path><path d="M 525.00 98.10 L 530.20 96.60 L 535.40 95.70 L 546.00 95.20 L 556.70 95.40 L 565.20 95.90 L 573.60 96.90 L 582.00 98.60 L 594.20 102.20 L 605.90 107.20 L 611.50 110.20 L 616.90 113.50 L 622.10 117.30 L 627.00 121.40 L 633.80 117.20 L 640.70 113.50 L 647.80 110.40 L 655.20 107.80 L 662.60 105.60 L 670.20 103.90 L 677.90 102.70 L 685.70 101.90 L 693.50 101.50 L 701.30 101.60 L 709.20 102.00 L 717.00 102.90 L 732.50 105.70 L 740.00 107.60 L 748.90 110.50 L 750.80 112.30 L 751.60 114.00 L 753.30 124.50 L 755.20 124.30 L 758.60 124.80 L 761.00 125.80 L 768.00 129.80 L 772.90 131.80 L 774.30 136.10 L 775.10 140.40 L 775.50 144.80 L 775.50 158.40 L 776.30 167.30 L 784.50 355.40 L 784.00 356.70 L 781.90 358.60 L 778.90 359.60 L 776.40 359.60 L 734.20 351.50 L 714.10 348.00 L 694.00 345.00 L 680.50 344.20 L 673.70 344.40 L 667.00 345.10 L 660.40 346.30 L 653.90 348.00 L 650.90 352.10 L 644.90 358.40 L 639.30 362.20 L 636.20 363.50 L 632.90 364.30 L 627.00 364.70 L 622.60 364.20 L 616.40 361.80 L 604.40 355.80 L 605.60 361.70 L 611.00 379.10 L 613.90 390.30 L 616.30 401.60 L 620.90 430.00 L 623.10 447.10 L 632.60 434.20 L 636.10 430.20 L 641.50 425.60 L 644.50 423.70 L 650.10 420.90 L 656.30 419.40 L 662.50 419.20 L 668.70 420.30 L 674.40 422.90 L 676.90 424.70 L 681.70 429.60 L 685.40 435.60 L 687.40 440.60 L 688.80 445.70 L 689.90 451.00 L 692.70 473.00 L 692.70 478.90 L 692.20 484.90 L 691.10 490.80 L 689.50 496.50 L 687.30 502.10 L 684.70 507.40 L 681.50 512.50 L 677.90 517.30 L 671.30 524.40 L 667.60 527.60 L 661.80 531.90 L 655.70 535.70 L 649.30 539.30 L 629.80 548.90 L 630.00 561.80 L 630.60 574.70 L 631.50 587.60 L 633.00 600.40 L 634.90 613.10 L 637.40 625.80 L 647.80 670.80 L 647.00 675.40 L 645.90 679.80 L 642.40 688.40 L 637.50 696.30 L 634.70 700.00 L 628.20 706.60 L 625.30 708.70 L 622.20 710.20 L 619.10 711.30 L 612.50 712.30 L 609.10 712.20 L 602.40 711.00 L 594.20 708.00 L 589.80 705.60 L 588.50 711.70 L 586.80 717.70 L 584.50 723.60 L 582.50 727.90 L 580.10 732.00 L 574.50 739.40 L 571.30 742.80 L 567.70 745.70 L 563.80 748.40 L 559.60 750.60 L 549.10 754.50 L 538.10 756.90 L 526.80 757.90 L 515.60 757.40 L 511.30 756.60 L 507.20 755.40 L 503.30 753.90 L 499.50 752.00 L 494.70 748.90 L 490.30 745.40 L 486.10 741.40 L 482.40 737.10 L 479.10 732.50 L 475.20 726.00 L 473.80 724.60 L 472.90 724.70 L 467.50 730.40 L 462.40 735.00 L 456.80 739.20 L 447.80 744.40 L 438.20 748.30 L 433.20 749.70 L 428.10 750.60 L 423.00 751.10 L 417.70 751.20 L 413.70 751.00 L 405.80 749.40 L 398.30 746.30 L 391.60 741.90 L 388.60 739.20 L 385.30 735.40 L 382.40 731.30 L 377.80 722.40 L 374.50 713.00 L 368.70 716.30 L 362.70 719.10 L 356.40 721.50 L 350.00 723.30 L 343.50 724.40 L 336.90 725.00 L 331.90 725.00 L 327.00 724.50 L 322.00 723.70 L 317.10 722.40 L 311.30 719.80 L 308.50 717.90 L 306.00 715.80 L 304.60 714.20 L 302.70 710.60 L 302.20 708.60 L 302.20 706.50 L 305.10 686.30 L 307.20 668.40 L 308.80 650.40 L 310.50 623.50 L 312.50 583.50 L 313.40 544.40 L 305.10 541.40 L 296.90 537.90 L 288.90 533.80 L 283.10 530.30 L 277.60 526.60 L 272.30 522.50 L 267.30 518.10 L 262.60 513.30 L 258.40 508.20 L 254.50 502.80 L 248.20 491.70 L 245.90 486.20 L 244.10 480.40 L 242.80 474.60 L 242.10 468.70 L 242.10 462.70 L 242.50 458.30 L 243.30 453.90 L 244.50 449.60 L 248.20 441.00 L 250.70 436.80 L 253.70 433.00 L 257.10 429.60 L 259.60 427.60 L 265.20 424.50 L 268.20 423.50 L 271.30 423.00 L 278.20 423.00 L 281.60 423.50 L 284.80 424.40 L 289.50 426.20 L 298.50 431.30 L 311.30 440.00 L 314.00 432.20 L 316.30 424.30 L 317.00 420.20 L 318.10 406.90 L 319.50 397.70 L 321.20 388.70 L 323.50 379.70 L 326.20 370.90 L 329.30 362.20 L 332.90 353.70 L 336.90 345.40 L 341.30 337.20 L 346.10 329.40 L 351.40 321.80 L 357.00 314.40 L 362.90 307.80 L 369.10 301.60 L 375.80 295.90 L 382.80 290.50 L 390.10 285.60 L 397.70 281.20 L 405.50 277.20 L 413.60 273.70 L 421.80 270.60 L 430.20 268.00 L 438.80 265.90 L 447.50 264.20 L 456.20 263.00 L 465.00 262.30 L 473.80 262.20 L 482.60 262.50 L 491.40 263.30 L 500.00 264.60 L 508.60 266.50 L 517.10 268.90 L 506.50 143.20 L 506.10 133.80 L 506.10 124.30 L 506.50 122.20 L 507.20 120.40 L 508.30 119.00 L 510.40 117.10 L 512.90 115.60 L 515.70 114.40 L 524.40 112.10 L 523.20 104.30 L 525.00 98.10 Z M 532.30 105.50 L 541.60 303.70 L 572.40 306.90 L 578.50 308.00 L 600.20 314.00 L 610.30 317.60 L 616.00 321.20 L 620.80 325.80 L 624.60 331.30 L 623.40 323.20 L 622.90 315.20 L 622.70 307.10 L 622.30 130.00 L 617.60 126.00 L 612.80 122.40 L 607.80 119.10 L 602.60 116.20 L 595.30 112.80 L 587.90 110.00 L 580.10 107.80 L 572.30 106.10 L 564.30 105.00 L 556.30 104.40 L 548.20 104.30 L 540.20 104.60 L 532.30 105.50 Z M 630.70 129.70 L 631.00 302.40 L 631.90 319.70 L 631.80 328.40 L 636.60 325.40 L 641.60 323.00 L 646.70 321.00 L 657.30 318.30 L 662.80 317.50 L 671.10 316.70 L 679.50 316.40 L 709.10 316.90 L 716.20 317.90 L 718.90 318.70 L 724.00 320.80 L 726.60 321.30 L 737.10 321.60 L 729.60 319.20 L 721.90 317.40 L 701.00 315.20 L 694.00 314.90 L 687.10 313.80 L 680.30 313.30 L 673.40 313.30 L 659.80 314.50 L 642.70 317.60 L 632.70 319.90 L 633.80 317.60 L 635.20 315.50 L 636.80 313.70 L 639.70 311.50 L 643.10 309.70 L 646.60 308.30 L 650.20 307.20 L 658.30 305.60 L 666.40 304.60 L 674.60 304.00 L 682.90 303.90 L 691.10 304.20 L 699.30 305.00 L 707.50 306.20 L 720.00 308.80 L 733.10 312.70 L 737.60 313.70 L 742.10 314.30 L 742.60 239.80 L 743.40 219.70 L 743.70 199.50 L 743.90 139.00 L 744.30 118.90 L 734.90 116.20 L 725.30 114.10 L 715.60 112.50 L 700.80 111.40 L 686.10 111.80 L 678.80 112.50 L 671.60 113.70 L 664.40 115.20 L 657.40 117.20 L 650.50 119.70 L 643.70 122.50 L 637.10 125.90 L 630.70 129.70 Z M 514.60 129.80 L 523.50 235.00 L 525.40 261.40 L 526.70 287.70 L 531.50 288.00 L 532.00 282.90 L 532.00 277.80 L 524.40 122.50 L 519.90 123.30 L 517.70 124.30 L 516.00 125.60 L 515.20 126.70 L 514.70 128.10 L 514.60 129.80 Z M 753.60 134.20 L 753.60 188.90 L 753.20 202.50 L 752.30 216.20 L 751.70 312.20 L 751.60 315.50 L 751.10 318.80 L 749.10 325.10 L 756.00 327.20 L 755.60 262.90 L 756.10 134.20 L 753.60 134.20 Z M 764.80 139.10 L 764.90 155.20 L 765.30 156.70 L 765.30 331.20 L 769.70 330.80 L 769.70 340.90 L 764.00 341.40 L 758.20 341.60 L 752.50 341.30 L 743.90 340.40 L 718.00 336.70 L 712.30 336.20 L 700.80 336.30 L 716.90 339.30 L 741.10 343.00 L 759.30 346.50 L 761.90 346.60 L 764.40 346.30 L 773.80 349.10 L 773.50 319.30 L 773.00 311.90 L 772.00 304.50 L 771.30 277.00 L 770.90 270.10 L 770.00 263.30 L 769.70 255.40 L 769.30 231.80 L 768.90 224.00 L 767.90 216.20 L 767.30 177.80 L 767.40 165.00 L 766.60 145.50 L 766.80 139.00 L 764.80 139.10 Z M 411.30 289.90 L 404.20 293.40 L 397.30 297.40 L 390.70 301.80 L 384.30 306.60 L 378.20 311.80 L 372.60 317.30 L 367.20 323.20 L 362.30 329.50 L 357.80 336.10 L 353.80 342.90 L 350.30 350.00 L 347.30 357.40 L 345.40 363.40 L 342.10 375.70 L 339.40 388.20 L 337.40 400.70 L 334.50 426.00 L 333.60 438.80 L 331.80 476.90 L 331.00 486.00 L 330.00 522.60 L 328.70 537.60 L 328.00 561.00 L 326.70 572.80 L 325.90 596.40 L 325.00 602.30 L 324.80 609.50 L 322.40 638.20 L 322.10 645.50 L 320.90 651.90 L 320.20 665.10 L 318.80 672.80 L 318.20 680.70 L 316.50 689.40 L 315.30 698.20 L 314.40 707.10 L 321.00 709.70 L 329.60 711.30 L 334.90 711.60 L 345.50 710.90 L 351.40 708.80 L 356.90 705.60 L 361.60 701.30 L 363.50 698.80 L 366.50 693.30 L 367.40 690.40 L 367.90 687.30 L 368.00 684.00 L 369.70 684.00 L 370.80 662.40 L 371.50 619.10 L 374.40 620.90 L 376.50 635.80 L 379.10 665.80 L 380.20 673.20 L 382.80 684.60 L 383.60 691.90 L 384.80 699.10 L 387.60 710.90 L 389.30 715.50 L 391.50 719.80 L 393.40 722.90 L 398.20 728.30 L 404.30 733.10 L 407.80 735.00 L 411.60 736.20 L 415.50 736.90 L 419.50 737.20 L 423.50 737.10 L 431.50 735.90 L 435.30 734.90 L 441.40 732.60 L 447.30 729.90 L 454.70 725.30 L 458.10 722.60 L 461.10 719.60 L 463.60 716.20 L 466.90 710.30 L 468.40 706.10 L 469.20 661.30 L 470.40 655.20 L 472.70 650.60 L 475.00 659.10 L 475.50 665.10 L 476.90 671.00 L 477.80 681.60 L 479.10 692.10 L 481.00 702.50 L 483.30 712.90 L 484.40 716.50 L 487.50 723.10 L 489.60 726.20 L 492.70 730.00 L 496.30 733.30 L 500.20 736.40 L 504.50 739.00 L 508.90 741.10 L 513.50 742.90 L 519.60 744.10 L 527.30 744.00 L 532.00 743.40 L 541.10 741.50 L 550.50 738.60 L 555.00 736.70 L 559.20 734.30 L 564.40 730.50 L 569.40 725.30 L 571.50 722.10 L 574.80 715.20 L 576.80 707.80 L 579.30 690.20 L 579.70 684.00 L 579.70 655.50 L 579.40 648.20 L 579.70 644.70 L 580.20 642.40 L 581.10 640.30 L 582.50 638.20 L 584.80 645.70 L 586.50 653.30 L 590.50 676.50 L 592.30 684.10 L 593.70 686.90 L 595.60 689.50 L 597.90 691.80 L 600.50 693.80 L 603.30 695.40 L 606.30 696.60 L 609.50 697.40 L 612.60 697.70 L 615.70 697.50 L 618.70 696.70 L 621.60 695.40 L 624.30 693.30 L 627.00 690.50 L 631.80 684.00 L 633.70 680.50 L 635.10 676.80 L 636.00 672.90 L 632.90 658.20 L 627.20 635.70 L 621.60 603.40 L 619.10 581.70 L 613.20 490.20 L 609.80 450.00 L 606.40 423.20 L 604.10 409.90 L 601.20 396.80 L 597.90 383.80 L 594.90 374.10 L 591.60 364.60 L 587.80 355.20 L 583.70 346.00 L 577.60 335.50 L 574.10 330.50 L 570.30 325.80 L 566.00 321.50 L 561.40 317.60 L 558.50 315.80 L 555.40 314.70 L 552.10 314.00 L 542.10 312.40 L 538.80 311.50 L 535.80 310.10 L 534.60 309.10 L 533.10 306.60 L 532.70 304.40 L 532.30 297.50 L 524.90 296.70 L 522.60 295.90 L 520.10 294.00 L 519.10 292.50 L 517.60 286.30 L 516.80 279.90 L 506.70 277.80 L 489.70 275.10 L 476.10 274.20 L 469.20 274.30 L 462.40 274.70 L 455.60 275.60 L 444.30 278.40 L 433.20 281.90 L 411.30 289.90 Z M 578.30 318.60 L 585.90 328.10 L 601.30 328.00 L 599.90 326.30 L 596.70 323.60 L 593.90 322.20 L 590.90 321.20 L 578.30 318.60 Z M 610.50 329.50 L 610.20 337.50 L 610.40 341.50 L 611.10 345.40 L 612.40 348.00 L 614.10 350.20 L 616.20 352.00 L 618.70 353.50 L 621.30 354.50 L 624.20 355.10 L 627.10 355.40 L 629.90 355.10 L 632.70 354.50 L 635.20 353.30 L 637.50 351.70 L 640.60 348.30 L 642.00 345.40 L 642.40 343.00 L 642.80 335.50 L 640.40 336.20 L 638.20 337.40 L 632.20 342.30 L 630.20 343.50 L 627.20 344.30 L 625.40 344.20 L 622.40 342.30 L 619.90 339.90 L 613.00 331.90 L 610.50 329.50 Z M 587.90 334.20 L 589.20 335.60 L 592.00 337.60 L 594.40 338.50 L 596.90 338.90 L 602.30 338.80 L 599.80 336.20 L 595.90 334.80 L 587.90 334.20 Z M 654.00 335.70 L 651.80 339.40 L 661.20 337.60 L 670.60 336.40 L 680.00 335.60 L 689.50 335.40 L 699.00 335.70 L 694.10 334.50 L 689.20 333.60 L 684.20 333.20 L 676.60 333.20 L 669.00 333.80 L 654.00 335.70 Z M 651.10 433.90 L 647.10 437.40 L 643.50 441.30 L 640.20 445.40 L 635.80 451.90 L 631.80 458.80 L 624.30 472.80 L 626.50 502.80 L 629.10 532.80 L 645.00 525.60 L 655.40 518.90 L 660.40 515.10 L 664.90 510.90 L 669.00 506.20 L 672.70 501.20 L 675.40 495.30 L 679.00 485.00 L 680.50 476.40 L 680.70 472.10 L 680.50 467.80 L 678.40 452.70 L 677.20 447.30 L 675.40 442.20 L 673.90 439.00 L 671.80 436.10 L 669.20 433.40 L 667.40 432.10 L 665.50 431.10 L 663.40 430.50 L 659.10 430.40 L 656.90 430.80 L 654.80 431.60 L 651.10 433.90 Z M 266.80 437.00 L 262.10 441.70 L 258.70 447.20 L 257.10 451.20 L 256.00 455.40 L 255.50 459.80 L 255.40 464.20 L 255.80 468.50 L 256.70 472.80 L 258.10 477.80 L 262.10 487.50 L 267.50 496.70 L 270.70 500.80 L 274.20 504.80 L 278.00 508.40 L 282.10 511.70 L 290.90 517.60 L 304.80 525.20 L 307.20 526.30 L 309.70 526.90 L 314.80 527.30 L 314.70 517.60 L 316.90 478.80 L 316.60 469.00 L 313.30 466.50 L 307.40 460.90 L 295.30 446.70 L 291.00 442.30 L 288.00 439.60 L 284.60 437.20 L 281.00 435.10 L 276.10 434.10 L 273.60 434.10 L 271.10 434.60 L 268.80 435.50 L 266.80 437.00 Z" fill="#505529" fill-rule="nonzero" node-id="79" stroke="none" target-height="662.7" target-width="542.4" target-x="242.1" target-y="95.2"></path><path d="M 434.00 123.70 L 435.80 122.10 L 439.60 120.00 L 446.10 118.20 L 458.00 116.60 L 463.20 116.50 L 468.30 116.80 L 467.60 123.40 L 466.20 124.30 L 464.60 124.70 L 457.80 125.50 L 458.60 131.60 L 463.00 155.70 L 463.70 161.80 L 462.20 163.60 L 459.70 164.40 L 454.60 164.50 L 452.70 155.10 L 448.00 126.80 L 437.30 129.00 L 434.00 123.70 Z" fill="#505529" fill-rule="nonzero" node-id="81" stroke="none" target-height="48" target-width="34.299988" target-x="434" target-y="116.5"></path><path d="M 551.90 123.60 L 558.40 122.90 L 565.00 122.80 L 571.50 123.20 L 578.10 124.00 L 584.50 125.30 L 590.80 127.10 L 597.00 129.40 L 603.00 132.10 L 610.30 136.20 L 611.50 137.50 L 612.40 139.00 L 613.80 144.10 L 606.70 141.70 L 593.00 135.50 L 583.80 132.60 L 571.90 130.60 L 564.70 129.90 L 560.20 130.50 L 555.50 130.30 L 554.20 129.80 L 552.30 128.20 L 551.80 127.10 L 551.60 125.60 L 551.90 123.60 Z" fill="#505529" fill-rule="nonzero" node-id="83" stroke="none" target-height="21.300003" target-width="62.200012" target-x="551.6" target-y="122.8"></path><path d="M 396.90 143.20 L 396.50 140.50 L 396.60 138.10 L 397.30 135.80 L 398.40 133.80 L 399.90 131.90 L 401.80 130.20 L 405.00 128.10 L 408.60 126.50 L 412.30 125.50 L 417.20 125.00 L 419.90 125.50 L 421.10 126.10 L 422.80 128.10 L 423.30 130.70 L 423.10 132.20 L 421.50 133.40 L 419.80 134.00 L 412.30 134.50 L 408.70 135.30 L 407.30 136.90 L 406.00 141.10 L 420.50 145.60 L 424.00 147.00 L 427.20 148.80 L 429.20 150.30 L 432.50 154.20 L 434.00 157.70 L 434.30 159.60 L 434.00 162.30 L 433.20 165.00 L 431.80 167.50 L 429.90 169.70 L 427.70 171.60 L 425.30 172.90 L 422.10 174.20 L 418.60 175.20 L 415.10 175.80 L 411.70 175.80 L 409.40 175.50 L 405.00 173.90 L 404.60 172.00 L 405.00 166.10 L 407.30 166.00 L 414.80 166.60 L 417.30 166.50 L 419.50 166.00 L 422.10 164.40 L 423.20 163.10 L 424.00 161.80 L 424.20 159.40 L 423.50 157.60 L 422.20 156.10 L 420.50 155.00 L 409.40 152.10 L 403.40 149.80 L 400.80 148.20 L 399.30 146.80 L 396.90 143.20 Z" fill="#505529" fill-rule="nonzero" node-id="85" stroke="none" target-height="50.800003" target-width="37.799988" target-x="396.5" target-y="125"></path><path d="M 663.00 132.30 L 672.40 130.70 L 688.20 128.90 L 700.90 128.70 L 707.20 129.10 L 719.80 131.00 L 719.90 132.50 L 718.90 134.70 L 717.50 135.80 L 715.70 136.40 L 713.70 136.60 L 704.30 135.50 L 696.80 135.10 L 686.80 135.60 L 674.40 137.60 L 662.20 140.20 L 657.40 141.80 L 648.30 145.70 L 645.80 146.00 L 643.80 145.10 L 643.80 140.20 L 648.30 137.60 L 653.00 135.50 L 663.00 132.30 Z" fill="#505529" fill-rule="nonzero" node-id="87" stroke="none" target-height="17.300003" target-width="76.10004" target-x="643.8" target-y="128.7"></path><path d="M 553.60 142.90 L 555.30 142.00 L 559.00 141.50 L 572.70 142.70 L 586.00 145.00 L 596.40 148.00 L 601.40 149.90 L 606.20 152.30 L 612.00 155.80 L 612.70 158.10 L 612.20 162.10 L 609.40 161.40 L 606.70 160.40 L 594.60 155.20 L 587.70 153.00 L 580.60 151.40 L 573.40 150.30 L 566.10 149.80 L 557.30 150.00 L 555.70 149.70 L 553.10 147.90 L 552.30 146.60 L 552.20 144.50 L 553.60 142.90 Z" fill="#505529" fill-rule="nonzero" node-id="89" stroke="none" target-height="20.600006" target-width="60.5" target-x="552.2" target-y="141.5"></path><path d="M 359.70 148.90 L 362.60 147.80 L 365.50 147.20 L 368.40 147.10 L 371.20 147.30 L 375.00 148.10 L 378.50 149.60 L 381.80 151.50 L 384.90 154.00 L 387.50 156.80 L 389.70 160.10 L 391.40 163.60 L 392.60 167.30 L 393.10 171.20 L 393.10 174.60 L 392.70 177.80 L 391.70 180.90 L 390.30 183.90 L 388.60 186.60 L 386.40 189.10 L 384.00 191.30 L 381.30 193.10 L 378.40 194.60 L 375.30 195.70 L 372.00 196.20 L 368.70 196.40 L 365.50 196.40 L 362.40 195.90 L 359.60 195.00 L 356.80 193.60 L 354.40 191.90 L 352.10 189.80 L 348.30 184.90 L 346.80 182.20 L 345.70 179.30 L 344.40 173.30 L 344.30 169.80 L 344.70 166.40 L 345.70 163.10 L 347.10 160.00 L 348.90 157.10 L 351.10 154.50 L 353.70 152.20 L 356.50 150.30 L 359.70 148.90 Z M 362.10 157.00 L 359.70 158.20 L 357.80 159.70 L 356.30 161.50 L 354.40 165.60 L 353.80 170.20 L 354.00 172.60 L 355.30 177.30 L 357.70 181.50 L 359.30 183.30 L 363.20 186.10 L 367.40 187.60 L 369.60 187.90 L 374.10 187.20 L 378.10 185.20 L 379.70 183.80 L 381.20 182.00 L 382.50 179.50 L 383.30 177.00 L 383.60 174.40 L 383.40 171.70 L 382.90 169.10 L 381.90 166.50 L 380.60 164.10 L 377.10 160.00 L 375.00 158.30 L 372.70 157.10 L 370.20 156.30 L 367.60 155.90 L 364.90 156.10 L 362.10 157.00 Z" fill="#505529" fill-rule="nonzero" node-id="91" stroke="none" target-height="49.299988" target-width="48.80002" target-x="344.3" target-y="147.1"></path><path d="M 645.00 158.60 L 655.80 154.30 L 667.10 151.40 L 678.60 149.60 L 687.40 149.00 L 696.10 148.80 L 708.60 149.50 L 716.70 151.10 L 720.70 152.40 L 720.30 158.90 L 712.40 157.20 L 704.40 156.10 L 696.20 155.60 L 688.10 155.70 L 680.00 156.30 L 672.00 157.40 L 664.00 159.10 L 656.20 161.30 L 648.60 164.10 L 641.80 164.60 L 643.20 160.00 L 643.90 159.20 L 645.00 158.60 Z" fill="#505529" fill-rule="nonzero" node-id="93" stroke="none" target-height="15.800003" target-width="78.900024" target-x="641.8" target-y="148.8"></path><path d="M 553.60 164.90 L 553.80 163.00 L 555.30 161.70 L 556.80 161.30 L 562.70 160.60 L 568.50 160.50 L 580.10 161.30 L 591.50 163.60 L 597.00 165.30 L 602.40 167.40 L 609.70 171.10 L 612.90 174.30 L 614.00 176.30 L 614.70 178.50 L 615.00 181.00 L 611.10 179.60 L 599.80 174.20 L 593.60 171.90 L 587.20 170.10 L 580.70 168.80 L 574.10 168.10 L 567.50 168.10 L 558.30 168.80 L 555.50 168.60 L 554.40 168.20 L 553.60 167.60 L 553.30 166.10 L 553.60 164.90 Z" fill="#505529" fill-rule="nonzero" node-id="95" stroke="none" target-height="20.5" target-width="61.700012" target-x="553.3" target-y="160.5"></path><path d="M 646.30 176.80 L 653.00 174.00 L 659.80 171.80 L 666.70 170.00 L 673.80 168.70 L 681.00 167.90 L 688.20 167.40 L 695.40 167.40 L 709.70 168.50 L 716.20 169.80 L 719.20 171.40 L 720.70 173.30 L 720.90 175.90 L 720.30 177.80 L 698.40 174.80 L 688.30 174.80 L 682.60 175.20 L 668.70 177.30 L 660.40 179.30 L 644.10 184.10 L 644.00 179.80 L 644.20 178.50 L 645.30 177.20 L 646.30 176.80 Z" fill="#505529" fill-rule="nonzero" node-id="97" stroke="none" target-height="16.700012" target-width="76.900024" target-x="644" target-y="167.4"></path><path d="M 314.70 177.90 L 316.90 176.10 L 317.90 175.80 L 319.60 175.90 L 321.20 176.60 L 324.30 179.00 L 342.90 200.40 L 346.60 205.30 L 350.10 210.30 L 350.30 211.60 L 349.60 213.50 L 348.40 214.60 L 346.80 215.30 L 345.00 215.50 L 343.40 215.10 L 340.30 212.20 L 331.70 202.60 L 326.50 206.30 L 321.70 210.50 L 322.80 213.50 L 324.40 216.20 L 332.60 226.00 L 327.50 231.30 L 323.90 228.20 L 313.80 218.30 L 311.40 219.20 L 307.10 222.20 L 301.30 227.60 L 310.40 236.70 L 313.10 240.00 L 313.40 241.40 L 313.10 242.60 L 309.70 247.10 L 305.50 244.00 L 297.60 237.20 L 282.50 221.70 L 280.70 219.30 L 279.40 216.70 L 279.00 214.90 L 278.90 213.00 L 279.30 210.90 L 281.30 210.60 L 284.50 211.30 L 286.60 212.60 L 294.10 220.00 L 296.20 221.20 L 299.20 218.90 L 307.60 211.00 L 299.40 201.90 L 297.00 198.60 L 296.50 197.30 L 296.40 195.70 L 296.80 194.10 L 297.60 192.80 L 299.20 191.90 L 302.00 192.30 L 304.80 194.00 L 306.60 195.70 L 311.60 201.70 L 313.50 203.40 L 315.60 204.50 L 318.50 203.10 L 321.10 201.20 L 323.40 198.90 L 325.60 196.50 L 324.40 194.10 L 322.70 191.90 L 317.10 185.50 L 315.70 183.20 L 314.70 179.80 L 314.70 177.90 Z" fill="#505529" fill-rule="nonzero" node-id="99" stroke="none" target-height="71.3" target-width="71.399994" target-x="278.9" target-y="175.8"></path><path d="M 553.80 181.80 L 555.20 180.90 L 558.10 180.30 L 569.50 180.50 L 576.20 181.20 L 582.80 182.30 L 589.30 183.80 L 595.60 185.80 L 601.90 188.10 L 606.60 190.30 L 611.10 193.10 L 612.90 194.90 L 614.30 197.00 L 615.10 200.20 L 615.10 202.20 L 597.40 194.20 L 592.90 192.50 L 582.60 189.70 L 571.10 188.20 L 553.70 187.80 L 553.80 181.80 Z" fill="#505529" fill-rule="nonzero" node-id="101" stroke="none" target-height="21.899994" target-width="61.399963" target-x="553.7" target-y="180.3"></path><path d="M 680.10 188.50 L 692.70 187.80 L 699.10 187.90 L 711.60 189.20 L 717.80 190.40 L 719.30 190.90 L 720.50 191.70 L 721.40 193.00 L 722.20 195.90 L 722.00 197.40 L 719.00 197.70 L 716.00 197.60 L 707.10 196.00 L 697.50 195.30 L 684.40 195.70 L 677.80 196.50 L 671.30 197.70 L 665.00 199.30 L 658.70 201.40 L 652.70 204.00 L 646.80 207.00 L 644.40 207.40 L 643.60 207.10 L 642.60 206.10 L 642.00 204.80 L 641.90 203.30 L 642.30 201.80 L 643.70 200.20 L 650.30 196.80 L 656.00 194.40 L 661.90 192.40 L 668.00 190.80 L 680.10 188.50 Z" fill="#505529" fill-rule="nonzero" node-id="103" stroke="none" target-height="19.59999" target-width="80.29999" target-x="641.9" target-y="187.8"></path><path d="M 558.80 206.80 L 557.60 206.90 L 555.70 206.20 L 554.60 205.00 L 554.00 203.50 L 553.80 201.90 L 554.20 200.50 L 555.70 199.40 L 561.60 198.60 L 571.00 198.30 L 578.00 199.00 L 585.00 200.20 L 598.60 203.90 L 607.00 207.20 L 609.70 208.50 L 612.20 210.20 L 614.30 212.20 L 616.30 215.50 L 617.00 217.50 L 614.00 217.60 L 611.30 217.10 L 608.50 216.20 L 600.60 212.60 L 593.90 210.20 L 587.10 208.40 L 580.10 207.10 L 573.00 206.40 L 565.90 206.30 L 558.80 206.80 Z" fill="#505529" fill-rule="nonzero" node-id="105" stroke="none" target-height="19.300003" target-width="63.200012" target-x="553.8" target-y="198.3"></path><path d="M 642.70 218.20 L 648.10 215.40 L 653.80 213.10 L 659.60 211.30 L 665.50 209.80 L 677.70 207.90 L 686.90 207.10 L 696.00 206.80 L 704.40 207.30 L 712.70 208.40 L 716.80 209.50 L 720.70 211.00 L 721.60 217.50 L 706.80 215.20 L 699.30 214.70 L 691.70 214.50 L 684.20 214.80 L 676.80 215.50 L 669.40 216.70 L 662.10 218.40 L 648.40 222.80 L 644.00 223.30 L 641.80 222.90 L 642.70 218.20 Z" fill="#505529" fill-rule="nonzero" node-id="107" stroke="none" target-height="16.5" target-width="79.79999" target-x="641.8" target-y="206.8"></path><path d="M 554.30 220.00 L 555.20 218.90 L 557.20 217.80 L 560.90 217.40 L 572.70 218.30 L 580.80 219.40 L 588.90 221.00 L 596.70 223.10 L 601.80 225.00 L 606.70 227.20 L 612.90 230.80 L 614.50 233.30 L 615.70 238.00 L 609.70 236.30 L 598.20 231.30 L 591.30 229.10 L 584.40 227.40 L 577.30 226.20 L 570.20 225.40 L 555.90 225.10 L 554.30 220.00 Z" fill="#505529" fill-rule="nonzero" node-id="109" stroke="none" target-height="20.600006" target-width="61.400024" target-x="554.3" target-y="217.4"></path><path d="M 642.40 237.70 L 648.90 234.60 L 655.70 232.10 L 662.60 230.10 L 669.70 228.60 L 676.90 227.60 L 684.10 227.00 L 691.40 227.00 L 698.60 227.30 L 705.80 228.10 L 713.50 229.50 L 716.00 230.30 L 718.40 231.40 L 720.50 232.90 L 720.40 239.30 L 714.50 237.60 L 702.50 235.30 L 696.50 234.70 L 688.40 234.50 L 680.30 235.00 L 672.20 236.00 L 664.20 237.60 L 656.40 239.80 L 646.20 243.30 L 643.90 242.90 L 642.30 241.50 L 641.90 239.20 L 642.40 237.70 Z" fill="#505529" fill-rule="nonzero" node-id="111" stroke="none" target-height="16.300003" target-width="78.599976" target-x="641.9" target-y="227"></path><path d="M 253.60 244.10 L 256.50 239.10 L 258.30 236.60 L 260.40 234.40 L 262.70 232.60 L 265.20 231.50 L 267.00 231.10 L 268.90 231.10 L 270.90 231.60 L 272.00 233.90 L 270.50 236.10 L 263.50 244.20 L 261.10 249.20 L 260.60 252.00 L 260.50 254.70 L 260.80 257.50 L 261.50 260.20 L 264.00 265.30 L 267.70 269.60 L 269.90 271.40 L 274.80 274.00 L 279.10 274.60 L 281.40 274.60 L 283.50 274.20 L 285.50 273.30 L 288.40 270.40 L 289.70 267.10 L 289.60 263.60 L 289.10 261.80 L 287.40 258.60 L 286.10 257.30 L 282.70 262.00 L 275.60 261.70 L 275.80 259.40 L 277.10 255.20 L 278.70 252.30 L 281.00 249.80 L 282.70 248.40 L 286.60 246.30 L 288.40 246.60 L 290.00 247.20 L 291.50 248.20 L 293.40 250.20 L 295.00 252.60 L 297.60 257.40 L 298.70 260.50 L 299.30 263.50 L 299.20 266.60 L 298.60 269.70 L 297.60 272.60 L 296.10 275.30 L 294.30 277.80 L 292.10 280.00 L 289.50 281.80 L 286.70 283.10 L 283.80 283.90 L 276.60 284.10 L 272.90 283.50 L 269.30 282.30 L 265.90 280.60 L 262.80 278.40 L 259.90 275.90 L 257.40 272.90 L 255.20 269.80 L 253.50 266.30 L 252.10 262.70 L 251.30 259.10 L 251.00 255.30 L 251.30 251.50 L 252.10 247.80 L 253.60 244.10 Z" fill="#505529" fill-rule="nonzero" node-id="113" stroke="none" target-height="53" target-width="48.299988" target-x="251" target-y="231.1"></path><path d="M 553.70 239.20 L 558.00 237.30 L 560.30 236.70 L 562.70 236.80 L 571.10 237.50 L 579.70 238.50 L 590.80 240.90 L 596.20 242.60 L 601.50 244.70 L 606.60 247.20 L 613.00 251.30 L 614.10 252.60 L 615.80 255.80 L 617.20 259.10 L 614.20 258.60 L 611.40 257.60 L 600.60 252.10 L 596.00 250.20 L 586.40 247.20 L 579.00 245.80 L 571.40 245.00 L 563.90 244.60 L 556.30 244.80 L 553.70 239.20 Z" fill="#505529" fill-rule="nonzero" node-id="115" stroke="none" target-height="22.40001" target-width="63.5" target-x="553.7" target-y="236.7"></path><path d="M 644.10 256.80 L 650.10 254.00 L 656.20 251.70 L 662.40 249.80 L 668.70 248.40 L 677.30 247.00 L 686.00 246.30 L 694.80 246.20 L 703.50 246.60 L 712.20 247.50 L 720.70 248.80 L 720.70 254.20 L 719.80 255.30 L 718.80 255.60 L 706.90 254.50 L 694.90 253.90 L 686.90 254.00 L 679.00 254.50 L 671.10 255.50 L 659.50 258.10 L 653.80 260.00 L 646.20 263.10 L 644.00 262.60 L 643.00 261.60 L 642.40 260.40 L 642.60 258.30 L 644.10 256.80 Z" fill="#505529" fill-rule="nonzero" node-id="117" stroke="none" target-height="16.90001" target-width="78.29999" target-x="642.4" target-y="246.2"></path><path d="M 555.40 255.90 L 562.00 255.50 L 568.50 255.50 L 575.00 256.20 L 581.50 257.30 L 587.80 258.90 L 594.10 261.00 L 600.20 263.60 L 606.10 266.50 L 613.20 270.80 L 615.30 273.60 L 616.90 278.70 L 612.10 277.80 L 606.60 275.20 L 600.20 271.50 L 590.20 267.50 L 583.40 265.60 L 576.50 264.20 L 569.50 263.40 L 555.40 262.80 L 555.40 255.90 Z" fill="#505529" fill-rule="nonzero" node-id="119" stroke="none" target-height="23.200012" target-width="61.5" target-x="555.4" target-y="255.5"></path><path d="M 652.90 273.00 L 659.90 270.70 L 667.00 268.70 L 674.20 267.20 L 681.50 266.10 L 688.90 265.50 L 696.20 265.30 L 703.50 265.70 L 710.90 266.60 L 716.70 267.70 L 718.40 268.40 L 719.80 269.30 L 720.60 270.60 L 720.80 273.00 L 720.30 274.80 L 717.90 275.60 L 711.40 274.20 L 705.00 273.30 L 698.40 272.80 L 685.30 273.10 L 678.80 273.90 L 665.90 276.40 L 659.60 278.20 L 642.10 284.10 L 642.00 281.90 L 642.40 280.20 L 643.30 278.70 L 645.20 276.80 L 647.60 275.30 L 652.90 273.00 Z" fill="#505529" fill-rule="nonzero" node-id="121" stroke="none" target-height="18.800018" target-width="78.79999" target-x="642" target-y="265.3"></path><path d="M 557.10 274.70 L 563.90 274.40 L 570.70 274.60 L 577.40 275.50 L 584.10 276.90 L 590.60 278.80 L 597.00 281.20 L 603.20 284.10 L 609.10 287.50 L 614.80 291.30 L 615.00 297.60 L 613.10 298.20 L 602.80 292.00 L 597.50 289.20 L 592.10 286.80 L 584.50 284.30 L 576.70 282.70 L 572.80 282.20 L 557.00 281.90 L 553.00 279.30 L 557.10 274.70 Z" fill="#505529" fill-rule="nonzero" node-id="123" stroke="none" target-height="23.800018" target-width="62" target-x="553" target-y="274.4"></path><path d="M 647.10 295.30 L 653.10 293.00 L 659.20 291.00 L 665.40 289.40 L 671.80 288.20 L 684.70 286.90 L 697.60 287.20 L 710.40 288.90 L 722.80 292.10 L 722.20 299.30 L 715.30 297.60 L 701.40 295.20 L 694.40 294.60 L 687.40 294.50 L 674.00 295.50 L 667.80 296.60 L 655.70 299.80 L 643.80 303.80 L 643.80 300.30 L 644.40 297.20 L 645.80 295.80 L 647.10 295.30 Z" fill="#505529" fill-rule="nonzero" node-id="125" stroke="none" target-height="16.899994" target-width="79" target-x="643.8" target-y="286.9"></path><path d="M 556.70 302.70 L 555.50 302.40 L 554.10 301.10 L 553.80 299.80 L 554.00 298.30 L 554.60 296.90 L 555.60 295.70 L 557.00 294.90 L 558.60 294.60 L 567.30 295.20 L 576.10 296.20 L 584.80 297.80 L 593.30 300.00 L 604.30 304.00 L 609.70 306.50 L 613.10 308.50 L 616.10 310.90 L 621.60 316.50 L 619.30 318.20 L 616.50 318.40 L 614.70 317.90 L 609.30 315.20 L 597.90 310.60 L 586.30 306.90 L 574.60 304.60 L 556.70 302.70 Z" fill="#505529" fill-rule="nonzero" node-id="127" stroke="none" target-height="23.799988" target-width="67.79999" target-x="553.8" target-y="294.6"></path><path d="M 511.60 412.50 L 513.70 410.20 L 515.90 408.30 L 518.50 406.70 L 524.00 404.40 L 526.90 403.80 L 532.90 403.60 L 538.80 404.80 L 544.20 407.30 L 547.20 409.50 L 549.80 411.90 L 552.10 414.50 L 554.20 417.40 L 556.40 421.60 L 558.10 426.10 L 559.20 430.80 L 559.80 435.60 L 559.80 440.30 L 559.20 445.10 L 558.40 448.60 L 555.80 455.20 L 553.90 458.20 L 551.80 460.80 L 549.40 463.10 L 546.80 464.90 L 543.80 466.40 L 540.80 467.50 L 537.60 468.30 L 534.30 468.60 L 531.10 468.50 L 527.90 468.00 L 524.80 467.00 L 521.80 465.60 L 519.00 463.80 L 516.10 461.10 L 513.50 458.10 L 511.20 454.80 L 509.30 451.30 L 506.50 443.90 L 505.60 440.00 L 505.00 432.10 L 505.30 428.10 L 506.00 424.20 L 507.10 420.30 L 509.40 423.10 L 510.90 424.10 L 512.50 424.80 L 514.10 425.10 L 515.60 424.70 L 516.50 424.20 L 517.30 423.30 L 518.60 420.20 L 518.80 418.80 L 518.50 417.60 L 517.40 415.80 L 515.70 414.40 L 511.60 412.50 Z" fill="#505529" fill-rule="nonzero" node-id="129" stroke="none" target-height="65" target-width="54.799988" target-x="505" target-y="403.6"></path><path d="M 384.70 418.10 L 387.00 415.20 L 389.60 412.90 L 392.50 411.10 L 395.70 409.80 L 399.10 408.90 L 402.60 408.50 L 406.20 408.60 L 409.60 409.10 L 413.10 410.10 L 416.30 411.50 L 419.30 413.40 L 422.00 415.60 L 424.80 418.50 L 427.20 421.80 L 429.10 425.30 L 430.60 429.10 L 431.80 433.00 L 432.50 437.00 L 432.80 441.10 L 432.60 445.20 L 432.00 449.20 L 431.00 453.10 L 429.60 456.90 L 427.70 460.40 L 425.40 463.60 L 422.60 466.50 L 419.30 469.10 L 416.40 470.60 L 413.40 471.60 L 410.30 472.10 L 407.20 472.20 L 404.00 471.90 L 400.90 471.20 L 395.10 468.70 L 389.90 464.80 L 387.80 462.50 L 385.90 459.90 L 383.90 456.50 L 382.20 453.00 L 380.90 449.40 L 379.40 441.80 L 379.20 432.00 L 379.70 426.20 L 382.70 428.10 L 384.50 428.90 L 386.30 429.40 L 388.00 429.40 L 389.60 428.90 L 390.40 428.30 L 391.10 427.40 L 392.00 424.30 L 391.70 421.70 L 390.10 419.80 L 386.90 418.40 L 384.70 418.10 Z" fill="#505529" fill-rule="nonzero" node-id="131" stroke="none" target-height="63.700012" target-width="53.599976" target-x="379.2" target-y="408.5"></path><path d="M 461.70 467.90 L 465.20 466.90 L 468.80 466.40 L 472.50 466.30 L 476.10 466.70 L 479.60 467.50 L 483.00 468.80 L 486.20 470.60 L 489.10 472.80 L 492.60 476.80 L 493.20 478.30 L 493.40 479.90 L 493.10 481.30 L 492.50 482.60 L 490.60 483.90 L 488.20 483.80 L 482.80 480.10 L 480.00 478.40 L 477.10 477.10 L 472.90 476.30 L 468.40 476.50 L 464.40 477.50 L 461.70 478.90 L 459.20 480.80 L 454.70 485.20 L 449.60 483.80 L 449.30 481.10 L 449.50 478.80 L 450.30 476.60 L 451.60 474.60 L 455.10 471.20 L 458.40 469.30 L 461.70 467.90 Z" fill="#505529" fill-rule="nonzero" node-id="133" stroke="none" target-height="18.900024" target-width="44.100006" target-x="449.3" target-y="466.3"></path><path d="M 343.10 819.60 L 347.50 815.50 L 350.10 813.80 L 355.80 811.50 L 361.90 810.50 L 368.00 810.80 L 371.00 811.50 L 376.50 813.90 L 378.50 815.60 L 379.10 816.70 L 379.40 818.50 L 379.10 820.30 L 377.70 822.30 L 376.50 823.10 L 365.90 820.80 L 360.50 820.30 L 357.90 820.70 L 355.30 821.80 L 352.90 823.70 L 350.80 826.00 L 349.10 828.50 L 347.80 831.30 L 346.10 837.30 L 345.80 843.60 L 346.90 849.80 L 348.00 852.60 L 349.50 855.30 L 351.30 857.70 L 353.50 859.80 L 356.10 861.60 L 361.60 862.60 L 364.50 862.50 L 367.30 861.80 L 368.90 861.00 L 370.30 859.90 L 371.50 858.30 L 372.40 851.60 L 361.70 850.30 L 361.10 840.90 L 382.10 840.30 L 382.10 856.70 L 381.10 864.70 L 378.20 867.40 L 375.00 869.50 L 371.50 871.20 L 367.70 872.30 L 363.90 872.80 L 360.00 872.90 L 356.10 872.40 L 352.40 871.40 L 348.80 869.80 L 344.10 866.50 L 342.10 864.40 L 340.30 862.00 L 337.20 855.20 L 335.50 847.90 L 335.20 840.30 L 335.70 836.60 L 337.60 829.30 L 339.00 825.90 L 340.90 822.60 L 343.10 819.60 Z" fill="#505529" fill-rule="nonzero" node-id="135" stroke="none" target-height="62.400024" target-width="46.899994" target-x="335.2" target-y="810.5"></path><path d="M 401.40 817.80 L 401.50 814.90 L 402.10 813.70 L 403.50 812.20 L 405.40 811.20 L 407.40 810.70 L 409.40 810.90 L 410.60 811.40 L 412.40 813.60 L 412.70 818.60 L 412.70 833.70 L 423.50 834.00 L 434.40 833.40 L 434.20 818.60 L 434.60 813.70 L 435.70 812.20 L 436.90 811.50 L 438.40 811.10 L 443.30 811.80 L 444.60 814.30 L 445.30 816.80 L 445.60 819.50 L 445.60 833.30 L 445.00 849.90 L 445.00 855.40 L 445.70 866.70 L 445.00 869.60 L 443.30 871.50 L 434.70 871.40 L 434.20 857.90 L 434.20 844.50 L 412.60 844.40 L 412.70 869.60 L 406.70 871.50 L 404.70 871.60 L 403.60 871.20 L 402.50 870.50 L 401.60 869.20 L 401.30 856.30 L 401.40 817.80 Z" fill="#505529" fill-rule="nonzero" node-id="137" stroke="none" target-height="60.899963" target-width="44.400024" target-x="401.3" target-y="810.7"></path><path d="M 479.10 812.80 L 482.70 811.60 L 486.40 810.90 L 490.20 810.70 L 494.00 810.90 L 497.70 811.60 L 501.30 812.70 L 504.70 814.40 L 507.80 816.50 L 510.60 819.10 L 512.80 822.00 L 516.00 828.30 L 517.10 831.70 L 518.10 836.40 L 518.50 841.10 L 518.30 845.90 L 517.50 850.60 L 516.20 855.20 L 514.30 859.50 L 512.10 862.80 L 509.50 865.70 L 506.50 868.10 L 503.20 870.00 L 499.60 871.40 L 495.90 872.40 L 492.00 872.90 L 488.10 872.90 L 484.30 872.40 L 480.60 871.30 L 477.10 869.70 L 473.80 867.60 L 470.60 864.60 L 468.00 861.30 L 465.90 857.60 L 464.20 853.60 L 463.10 849.50 L 462.50 845.20 L 462.40 840.80 L 462.80 836.50 L 463.60 832.30 L 465.00 828.20 L 466.90 824.40 L 469.20 820.80 L 473.60 816.30 L 479.10 812.80 Z M 485.20 821.20 L 482.20 822.80 L 479.60 824.80 L 477.50 827.30 L 475.80 830.10 L 474.50 833.10 L 473.70 836.40 L 473.30 839.80 L 473.30 843.20 L 473.70 846.50 L 474.60 849.80 L 475.90 852.80 L 477.60 855.60 L 479.70 858.10 L 482.30 860.20 L 485.30 861.80 L 488.10 862.40 L 491.00 862.60 L 493.90 862.30 L 496.70 861.60 L 500.00 859.80 L 503.50 855.90 L 505.10 853.20 L 506.10 850.20 L 507.10 844.00 L 507.10 840.70 L 506.50 835.90 L 505.30 831.40 L 504.20 828.70 L 502.70 826.40 L 500.80 824.40 L 498.60 822.80 L 496.20 821.50 L 493.50 820.70 L 490.80 820.30 L 488.00 820.50 L 485.20 821.20 Z" fill="#505529" fill-rule="nonzero" node-id="139" stroke="none" target-height="62.200012" target-width="56.100006" target-x="462.4" target-y="810.7"></path><path d="M 538.70 817.30 L 541.30 815.30 L 544.10 813.70 L 547.20 812.50 L 550.40 811.70 L 553.60 811.30 L 557.00 811.30 L 560.30 811.70 L 563.40 812.50 L 566.50 813.80 L 568.50 815.40 L 569.10 818.00 L 568.80 819.80 L 567.50 823.30 L 558.20 820.80 L 555.10 820.50 L 550.90 820.90 L 548.90 821.60 L 547.40 822.50 L 546.20 823.70 L 545.50 825.30 L 545.30 827.00 L 545.60 828.70 L 546.50 830.20 L 549.70 832.70 L 560.30 838.40 L 563.70 840.50 L 566.80 843.10 L 568.80 845.60 L 570.30 848.50 L 571.30 851.50 L 571.70 854.70 L 571.60 857.90 L 570.90 861.00 L 569.90 863.10 L 567.20 866.60 L 564.60 868.70 L 561.60 870.30 L 558.40 871.40 L 551.30 872.30 L 547.30 872.20 L 543.40 871.80 L 539.70 870.70 L 535.20 868.40 L 533.20 866.70 L 532.60 865.20 L 532.70 863.60 L 535.00 857.40 L 545.20 861.60 L 548.70 862.40 L 551.10 862.50 L 553.50 862.30 L 556.00 861.60 L 557.40 860.90 L 559.40 858.60 L 560.30 855.60 L 559.90 852.60 L 558.00 850.20 L 554.60 848.00 L 547.30 844.30 L 541.50 840.90 L 537.60 837.10 L 536.20 835.10 L 535.20 833.00 L 534.50 830.60 L 534.30 825.80 L 534.80 823.40 L 535.70 821.20 L 537.00 819.10 L 538.70 817.30 Z" fill="#505529" fill-rule="nonzero" node-id="141" stroke="none" target-height="61" target-width="39.100037" target-x="532.6" target-y="811.3"></path><path d="M 582.60 818.40 L 585.70 813.50 L 586.70 812.80 L 588.30 812.60 L 596.00 811.80 L 603.80 811.60 L 611.60 811.90 L 619.40 812.60 L 618.90 817.20 L 618.40 818.60 L 617.20 820.00 L 616.10 820.50 L 605.80 820.80 L 605.50 844.00 L 605.90 867.20 L 605.40 869.50 L 603.30 871.20 L 601.50 871.60 L 597.80 871.50 L 594.80 870.40 L 594.60 858.10 L 594.60 821.20 L 588.30 820.90 L 586.30 820.50 L 584.40 819.70 L 582.60 818.40 Z" fill="#505529" fill-rule="nonzero" node-id="143" stroke="none" target-height="60" target-width="36.80005" target-x="582.6" target-y="811.6"></path><path d="M 296.40 898.40 L 297.90 896.00 L 299.70 894.00 L 301.90 892.50 L 304.40 891.40 L 307.00 890.80 L 309.80 890.50 L 312.60 890.70 L 315.30 891.30 L 319.10 893.00 L 320.50 895.20 L 320.90 899.40 L 311.80 898.10 L 309.50 898.10 L 307.50 898.60 L 306.40 899.20 L 305.40 900.30 L 304.60 901.90 L 305.00 903.30 L 306.60 905.50 L 316.80 911.10 L 318.80 913.00 L 320.50 915.20 L 321.60 917.70 L 322.30 920.40 L 322.30 923.00 L 321.90 924.70 L 321.10 926.40 L 318.40 929.80 L 316.60 931.20 L 312.60 932.90 L 308.10 933.40 L 304.70 933.10 L 301.20 932.40 L 294.90 929.90 L 296.10 927.30 L 297.60 924.90 L 299.50 922.80 L 304.10 924.60 L 306.60 925.20 L 309.00 925.40 L 310.40 925.10 L 311.80 924.40 L 313.20 923.20 L 313.50 921.70 L 313.20 919.60 L 312.30 918.20 L 310.90 917.10 L 302.40 912.80 L 299.10 910.10 L 297.70 908.40 L 295.90 904.60 L 295.60 902.60 L 295.70 900.60 L 296.40 898.40 Z" fill="#505529" fill-rule="nonzero" node-id="145" stroke="none" target-height="42.900024" target-width="27.399994" target-x="294.9" target-y="890.5"></path><path d="M 328.10 897.70 L 328.10 894.90 L 328.40 893.50 L 329.10 892.40 L 330.50 891.60 L 345.80 891.40 L 354.10 891.80 L 355.20 892.80 L 355.80 898.50 L 346.40 899.40 L 346.20 932.70 L 341.10 932.70 L 338.80 931.70 L 338.30 923.50 L 338.20 899.00 L 328.10 897.70 Z" fill="#505529" fill-rule="nonzero" node-id="147" stroke="none" target-height="41.299988" target-width="27.699982" target-x="328.1" target-y="891.4"></path><path d="M 464.60 892.10 L 466.30 891.60 L 471.90 891.60 L 470.20 897.10 L 466.80 903.60 L 462.90 909.90 L 462.00 912.50 L 461.50 918.30 L 461.70 927.20 L 461.50 930.10 L 461.00 931.40 L 459.40 932.60 L 457.90 932.80 L 452.60 932.40 L 452.80 920.40 L 452.20 914.50 L 451.20 911.80 L 444.70 902.00 L 440.50 894.40 L 441.90 892.80 L 443.40 891.80 L 445.10 891.30 L 447.20 891.50 L 456.70 904.90 L 462.20 895.00 L 464.60 892.10 Z" fill="#505529" fill-rule="nonzero" node-id="149" stroke="none" target-height="41.5" target-width="31.399994" target-x="440.5" target-y="891.3"></path><path d="M 502.30 897.40 L 504.00 892.90 L 504.80 891.80 L 506.50 891.10 L 525.50 891.20 L 531.10 892.30 L 533.90 893.50 L 534.10 897.60 L 522.40 898.90 L 522.20 932.30 L 517.40 932.00 L 515.30 931.40 L 514.60 930.70 L 514.30 929.40 L 513.50 898.80 L 502.30 897.40 Z" fill="#505529" fill-rule="nonzero" node-id="151" stroke="none" target-height="41.200012" target-width="31.799988" target-x="502.3" target-y="891.1"></path><path d="M 540.40 894.90 L 541.00 893.00 L 542.90 891.90 L 544.40 891.70 L 547.20 892.10 L 548.00 893.60 L 548.40 895.30 L 548.70 898.70 L 548.60 925.00 L 547.90 932.60 L 541.60 932.20 L 540.70 931.80 L 540.10 931.00 L 540.00 912.20 L 540.40 894.90 Z" fill="#505529" fill-rule="nonzero" node-id="153" stroke="none" target-height="40.899963" target-width="8.700012" target-x="540" target-y="891.7"></path><path d="M 372.90 892.60 L 375.70 891.50 L 378.60 890.90 L 381.60 891.00 L 384.50 891.60 L 387.20 892.60 L 389.80 894.10 L 392.10 896.00 L 394.00 898.30 L 395.50 900.90 L 397.40 906.80 L 397.80 910.00 L 397.90 913.10 L 396.90 919.40 L 395.90 922.30 L 394.50 925.10 L 392.60 927.60 L 390.70 929.50 L 388.50 931.00 L 386.10 932.10 L 381.00 933.20 L 375.60 932.80 L 373.10 932.10 L 370.70 931.00 L 368.50 929.60 L 366.70 927.70 L 365.00 925.50 L 363.60 922.80 L 362.60 919.90 L 361.70 913.60 L 362.30 907.30 L 363.10 904.30 L 364.30 901.40 L 365.90 898.80 L 367.90 896.40 L 370.20 894.30 L 372.90 892.60 Z M 375.80 899.50 L 374.00 901.10 L 372.60 903.00 L 370.50 907.70 L 369.80 912.80 L 370.50 917.80 L 371.40 920.10 L 372.70 922.10 L 374.40 923.80 L 376.50 925.20 L 378.80 925.70 L 380.80 925.60 L 382.50 925.20 L 385.60 923.20 L 386.90 921.60 L 388.30 919.10 L 389.20 916.10 L 389.50 913.10 L 389.10 907.60 L 388.40 905.00 L 387.10 902.60 L 385.40 900.60 L 384.00 899.50 L 381.00 898.40 L 379.30 898.30 L 377.60 898.70 L 375.80 899.50 Z" fill="#505529" fill-rule="nonzero" node-id="155" stroke="none" target-height="42.299988" target-width="36.19998" target-x="361.7" target-y="890.9"></path><path d="M 406.60 923.70 L 406.60 899.60 L 407.00 891.50 L 420.20 891.00 L 423.50 891.30 L 426.60 892.00 L 430.30 894.00 L 432.10 895.60 L 433.40 897.90 L 434.30 900.20 L 434.60 902.70 L 434.50 905.20 L 434.00 907.60 L 433.00 910.00 L 431.70 912.20 L 430.10 914.20 L 428.10 915.80 L 433.40 926.70 L 434.40 929.60 L 435.00 932.60 L 432.70 933.00 L 430.80 933.00 L 429.20 932.40 L 427.70 931.50 L 425.20 928.80 L 418.90 918.70 L 415.00 918.10 L 414.80 928.60 L 414.20 932.00 L 407.70 932.00 L 406.90 930.00 L 406.60 923.70 Z M 414.40 898.40 L 414.00 904.80 L 414.00 911.30 L 425.40 908.80 L 424.30 908.90 L 425.50 907.40 L 426.20 905.50 L 426.40 903.40 L 426.00 901.60 L 425.30 900.50 L 424.40 899.80 L 421.00 898.50 L 418.80 898.20 L 414.40 898.40 Z" fill="#505529" fill-rule="nonzero" node-id="157" stroke="none" target-height="42" target-width="28.399994" target-x="406.6" target-y="891"></path><path d="M 564.10 895.60 L 565.00 893.30 L 565.70 892.60 L 567.10 891.80 L 568.70 891.70 L 569.70 892.00 L 571.70 893.50 L 573.60 896.80 L 575.10 900.30 L 579.20 915.20 L 580.70 912.50 L 581.80 909.40 L 584.40 899.60 L 586.70 894.70 L 589.80 891.60 L 591.30 891.40 L 593.40 892.10 L 594.60 893.30 L 595.50 894.90 L 596.60 898.40 L 599.50 913.00 L 602.10 930.00 L 601.00 931.80 L 599.80 932.40 L 596.80 932.60 L 594.00 931.70 L 592.40 924.30 L 590.00 909.40 L 586.40 922.20 L 584.10 927.80 L 583.00 928.90 L 581.60 929.70 L 580.00 930.00 L 578.50 929.80 L 577.00 928.90 L 573.90 922.30 L 569.70 908.40 L 567.10 932.20 L 559.50 932.10 L 560.00 919.80 L 560.80 913.70 L 564.10 895.60 Z" fill="#505529" fill-rule="nonzero" node-id="159" stroke="none" target-height="41.19995" target-width="42.599976" target-x="559.5" target-y="891.4"></path><path d="M 611.10 893.50 L 618.40 891.90 L 627.70 891.70 L 633.30 892.20 L 634.70 892.80 L 635.50 893.90 L 635.90 895.20 L 635.90 896.60 L 635.50 898.00 L 634.60 899.20 L 619.90 899.40 L 620.10 907.90 L 628.10 908.40 L 631.80 909.60 L 630.90 915.20 L 620.40 915.20 L 620.00 925.40 L 636.30 925.40 L 636.40 932.20 L 623.90 932.80 L 611.50 932.20 L 611.00 919.20 L 611.10 893.50 Z" fill="#505529" fill-rule="nonzero" node-id="161" stroke="none" target-height="41.099976" target-width="25.400024" target-x="611" target-y="891.7"></path><path d="M 647.10 894.30 L 648.40 892.50 L 649.20 892.20 L 650.70 892.30 L 652.20 892.90 L 654.50 895.00 L 654.30 903.20 L 653.70 911.30 L 652.60 919.40 L 650.00 922.10 L 648.00 912.90 L 646.70 903.60 L 646.70 898.90 L 647.10 894.30 Z" fill="#505529" fill-rule="nonzero" node-id="163" stroke="none" target-height="29.899963" target-width="7.799988" target-x="646.7" target-y="892.2"></path><path d="M 646.20 932.10 L 647.10 927.20 L 648.00 925.00 L 649.50 923.00 L 655.30 925.40 L 655.50 932.00 L 653.20 932.60 L 650.90 932.70 L 646.20 932.10 Z" fill="#505529" fill-rule="nonzero" node-id="165" stroke="none" target-height="9.700012" target-width="9.299988" target-x="646.2" target-y="923"></path><path d="M 502.00 95.00 L 503.00 91.70 L 504.40 88.70 L 506.10 86.10 L 510.50 81.60 L 513.10 79.70 L 517.30 77.30 L 521.90 75.50 L 526.70 74.20 L 539.90 72.50 L 548.30 72.10 L 556.90 72.10 L 565.40 72.50 L 573.90 73.40 L 582.30 74.80 L 590.60 76.70 L 598.80 79.00 L 606.80 81.90 L 614.60 85.20 L 622.20 89.00 L 629.60 93.40 L 646.20 87.00 L 654.60 84.30 L 663.20 82.10 L 674.80 80.10 L 688.20 78.80 L 695.70 78.50 L 710.70 79.20 L 725.70 80.90 L 738.00 83.30 L 744.10 84.80 L 753.90 88.30 L 761.20 92.30 L 763.40 94.00 L 770.10 102.60 L 772.10 104.40 L 783.30 109.60 L 786.70 111.90 L 790.80 115.50 L 794.60 120.80 L 796.10 124.00 L 797.30 127.30 L 798.30 132.50 L 798.80 137.90 L 798.90 154.20 L 800.10 171.70 L 801.30 208.50 L 802.20 218.90 L 802.60 229.40 L 803.00 250.20 L 803.40 260.60 L 804.20 271.00 L 805.30 316.20 L 806.80 337.70 L 807.00 348.50 L 806.70 359.20 L 806.10 362.60 L 805.00 365.70 L 803.60 368.70 L 801.80 371.50 L 799.60 374.00 L 797.10 376.20 L 794.40 378.10 L 791.50 379.60 L 788.40 380.80 L 785.20 381.60 L 781.90 381.90 L 778.50 381.80 L 766.90 380.60 L 755.50 379.00 L 694.30 368.90 L 686.50 368.10 L 678.80 367.80 L 673.60 368.10 L 668.50 368.90 L 663.50 370.30 L 646.10 380.70 L 641.50 382.80 L 636.70 384.60 L 640.80 399.30 L 647.00 397.50 L 653.30 396.30 L 657.50 395.80 L 666.00 395.80 L 670.20 396.30 L 674.40 397.30 L 682.90 400.60 L 687.10 402.80 L 690.90 405.50 L 694.60 408.50 L 700.90 415.50 L 703.60 419.40 L 708.20 427.80 L 711.30 436.70 L 712.40 441.40 L 714.20 451.80 L 716.40 469.40 L 716.60 476.40 L 716.50 483.50 L 715.20 493.90 L 712.40 504.20 L 709.70 510.70 L 706.60 517.00 L 703.00 523.00 L 699.00 528.70 L 694.50 534.20 L 689.80 539.30 L 684.70 544.10 L 679.20 548.60 L 673.50 552.70 L 667.50 556.50 L 661.40 559.80 L 655.00 562.80 L 655.10 573.50 L 655.60 584.10 L 656.70 594.70 L 659.00 610.50 L 661.90 626.20 L 669.20 661.90 L 670.10 671.10 L 670.00 675.70 L 669.40 680.20 L 668.20 684.60 L 665.80 690.80 L 662.90 696.80 L 659.60 702.60 L 652.00 713.50 L 647.80 718.70 L 641.90 724.40 L 635.30 728.90 L 630.40 731.30 L 625.40 733.00 L 620.10 734.30 L 614.70 734.90 L 609.30 735.10 L 603.90 734.60 L 601.70 739.60 L 599.20 744.40 L 596.30 749.00 L 593.00 753.20 L 589.30 757.20 L 585.40 760.90 L 581.20 764.30 L 576.70 767.30 L 571.90 770.00 L 567.10 772.30 L 562.00 774.20 L 556.70 775.70 L 549.10 777.40 L 541.30 778.70 L 533.40 779.60 L 525.40 780.00 L 517.60 779.70 L 509.70 778.90 L 503.90 777.80 L 498.20 776.30 L 492.60 774.30 L 487.20 771.90 L 482.30 769.40 L 477.70 766.40 L 468.90 759.80 L 463.30 763.10 L 457.40 765.90 L 451.40 768.30 L 445.10 770.20 L 438.80 771.70 L 432.30 772.70 L 425.90 773.20 L 419.30 773.40 L 412.80 773.00 L 406.30 772.20 L 400.00 771.00 L 393.70 769.30 L 389.30 767.70 L 381.10 763.60 L 377.30 761.00 L 370.50 754.90 L 367.50 751.50 L 364.80 747.80 L 362.40 743.80 L 347.80 746.00 L 340.40 746.70 L 332.90 746.80 L 325.60 746.50 L 318.30 745.60 L 312.90 744.50 L 307.60 742.90 L 302.40 741.00 L 294.20 736.90 L 291.40 734.90 L 286.40 730.00 L 283.70 726.20 L 281.50 722.20 L 279.80 717.80 L 278.60 713.30 L 278.10 708.70 L 278.10 704.00 L 283.10 656.20 L 285.10 632.20 L 287.20 592.20 L 287.60 560.20 L 274.70 553.40 L 262.40 545.20 L 256.60 540.70 L 251.10 535.80 L 245.90 530.60 L 241.00 525.20 L 236.50 519.40 L 232.40 513.30 L 228.70 507.00 L 225.50 500.30 L 221.50 490.20 L 220.00 485.00 L 218.30 474.30 L 218.10 463.50 L 218.50 458.10 L 219.40 452.70 L 222.20 442.30 L 226.20 432.60 L 228.70 428.00 L 234.60 419.50 L 238.00 415.70 L 241.70 412.10 L 245.80 409.00 L 250.10 406.40 L 254.80 404.20 L 259.10 402.70 L 263.50 401.70 L 267.90 401.10 L 274.60 400.80 L 294.70 402.00 L 295.80 392.90 L 297.30 384.00 L 299.50 375.10 L 302.10 366.40 L 305.10 357.80 L 308.60 349.30 L 316.50 332.80 L 320.80 324.80 L 325.30 317.40 L 330.20 310.20 L 335.50 303.30 L 341.00 296.70 L 347.00 290.30 L 353.20 284.30 L 359.70 278.60 L 366.50 273.20 L 373.60 268.20 L 380.90 263.60 L 388.50 259.40 L 396.40 255.60 L 406.30 251.40 L 416.50 247.80 L 426.90 244.70 L 437.50 242.20 L 448.10 240.30 L 458.80 239.00 L 469.70 238.30 L 480.50 238.20 L 491.30 238.70 L 486.60 193.00 L 484.70 177.80 L 471.60 181.30 L 464.90 182.70 L 458.30 183.40 L 453.80 183.40 L 449.30 182.90 L 444.80 182.00 L 434.50 188.50 L 426.90 191.90 L 418.60 194.10 L 405.90 195.80 L 402.70 199.50 L 399.20 202.70 L 395.40 205.60 L 391.40 208.10 L 382.70 212.10 L 378.10 213.60 L 368.80 215.80 L 367.60 219.00 L 366.00 222.00 L 364.00 224.70 L 361.60 227.10 L 358.90 229.10 L 353.60 231.90 L 351.70 233.40 L 343.80 242.70 L 341.80 244.20 L 333.40 248.90 L 331.60 250.40 L 327.70 255.30 L 318.90 262.80 L 318.50 268.00 L 317.60 273.00 L 316.10 278.00 L 314.10 282.80 L 311.60 287.20 L 308.60 291.40 L 306.00 294.20 L 303.10 296.70 L 300.00 298.90 L 292.50 302.70 L 288.40 304.10 L 284.30 304.90 L 280.00 305.40 L 275.80 305.30 L 267.40 304.10 L 263.20 302.90 L 255.40 299.40 L 248.20 294.70 L 244.90 291.80 L 239.30 285.40 L 234.40 277.70 L 232.50 273.40 L 231.10 268.90 L 230.30 264.30 L 229.90 259.60 L 230.00 254.90 L 230.60 250.10 L 231.60 245.50 L 233.00 241.00 L 234.90 236.60 L 237.20 232.50 L 242.30 225.40 L 247.90 219.90 L 257.50 212.70 L 260.80 206.40 L 264.60 200.40 L 267.00 197.80 L 272.30 193.40 L 274.50 191.00 L 282.40 180.50 L 284.70 178.20 L 289.80 174.30 L 292.10 172.10 L 300.60 162.90 L 303.00 160.90 L 305.70 159.30 L 309.00 157.60 L 312.40 156.40 L 315.90 155.70 L 326.80 154.50 L 329.40 150.20 L 332.30 146.30 L 335.60 142.60 L 339.20 139.10 L 343.00 136.00 L 347.10 133.30 L 351.40 131.00 L 356.00 129.00 L 360.70 127.60 L 365.20 127.00 L 369.60 126.90 L 378.60 127.20 L 381.00 123.60 L 383.70 120.30 L 386.80 117.30 L 393.70 112.30 L 397.50 110.30 L 401.50 108.50 L 409.70 106.10 L 412.80 105.70 L 422.60 105.40 L 424.60 105.00 L 426.60 104.30 L 432.90 101.00 L 437.40 99.20 L 442.00 97.80 L 451.50 96.00 L 456.30 95.60 L 463.60 95.50 L 470.80 95.90 L 473.70 96.50 L 476.30 97.40 L 478.80 98.80 L 485.70 104.00 L 489.40 101.20 L 493.50 98.80 L 502.00 95.00 Z M 525.00 98.10 L 523.20 104.30 L 524.40 112.10 L 515.70 114.40 L 512.90 115.60 L 510.40 117.10 L 508.30 119.00 L 507.20 120.40 L 506.50 122.20 L 506.10 124.30 L 506.10 133.80 L 506.50 143.20 L 517.10 268.90 L 508.60 266.50 L 500.00 264.60 L 491.40 263.30 L 482.60 262.50 L 473.80 262.20 L 465.00 262.30 L 456.20 263.00 L 447.50 264.20 L 438.80 265.90 L 430.20 268.00 L 421.80 270.60 L 413.60 273.70 L 405.50 277.20 L 397.70 281.20 L 390.10 285.60 L 382.80 290.50 L 375.80 295.90 L 369.10 301.60 L 362.90 307.80 L 357.00 314.40 L 351.40 321.80 L 346.10 329.40 L 341.30 337.20 L 336.90 345.40 L 332.90 353.70 L 329.30 362.20 L 326.20 370.90 L 323.50 379.70 L 321.20 388.70 L 319.50 397.70 L 318.10 406.90 L 317.00 420.20 L 316.30 424.30 L 314.00 432.20 L 311.30 440.00 L 294.10 428.60 L 289.50 426.20 L 284.80 424.40 L 278.20 423.00 L 274.70 422.80 L 271.30 423.00 L 268.20 423.50 L 265.20 424.50 L 259.60 427.60 L 257.10 429.60 L 253.70 433.00 L 250.70 436.90 L 248.20 441.00 L 244.50 449.60 L 243.30 453.90 L 242.50 458.30 L 242.10 462.70 L 242.10 468.70 L 242.80 474.60 L 244.10 480.40 L 245.90 486.20 L 248.20 491.70 L 254.50 502.80 L 258.40 508.20 L 262.60 513.30 L 267.30 518.10 L 272.30 522.50 L 277.60 526.60 L 283.10 530.30 L 288.90 533.80 L 296.90 537.90 L 305.10 541.40 L 313.40 544.40 L 312.50 583.50 L 310.50 623.50 L 308.80 650.40 L 307.20 668.40 L 305.10 686.30 L 302.20 706.50 L 302.20 708.60 L 302.70 710.60 L 304.60 714.20 L 306.00 715.80 L 308.50 717.90 L 311.30 719.80 L 317.10 722.40 L 322.00 723.70 L 327.00 724.50 L 331.90 725.00 L 336.90 725.00 L 343.50 724.40 L 350.00 723.30 L 356.40 721.50 L 362.70 719.10 L 368.70 716.30 L 374.50 713.00 L 377.80 722.40 L 379.90 726.90 L 382.40 731.30 L 385.30 735.40 L 388.60 739.20 L 391.60 741.90 L 398.30 746.30 L 405.80 749.40 L 409.70 750.40 L 417.70 751.20 L 423.00 751.10 L 428.10 750.60 L 433.20 749.70 L 438.20 748.30 L 443.10 746.50 L 452.30 742.00 L 456.80 739.20 L 462.40 735.00 L 467.50 730.40 L 473.40 724.50 L 474.50 725.10 L 475.20 726.00 L 479.10 732.50 L 482.40 737.10 L 486.10 741.40 L 490.30 745.40 L 494.70 748.90 L 499.50 752.00 L 503.30 753.90 L 507.20 755.40 L 511.30 756.60 L 515.60 757.40 L 521.20 757.80 L 532.40 757.60 L 543.60 755.90 L 549.10 754.50 L 559.60 750.60 L 563.80 748.40 L 567.70 745.70 L 571.30 742.80 L 574.50 739.40 L 580.10 732.00 L 584.50 723.60 L 586.80 717.70 L 588.50 711.70 L 589.80 705.60 L 594.20 708.00 L 599.00 710.00 L 605.70 711.70 L 612.50 712.30 L 619.10 711.30 L 622.20 710.20 L 625.30 708.70 L 628.20 706.60 L 631.50 703.40 L 637.50 696.30 L 642.40 688.40 L 645.90 679.80 L 647.00 675.40 L 647.80 670.80 L 637.40 625.80 L 634.90 613.10 L 633.00 600.40 L 631.50 587.60 L 630.60 574.70 L 630.00 561.80 L 629.80 548.90 L 642.80 542.60 L 655.70 535.70 L 661.80 531.90 L 667.60 527.60 L 674.70 521.00 L 681.50 512.50 L 684.70 507.40 L 687.30 502.10 L 689.50 496.50 L 691.10 490.80 L 692.20 484.90 L 692.70 478.90 L 692.70 473.00 L 692.20 467.00 L 689.90 451.00 L 688.80 445.70 L 687.40 440.60 L 685.40 435.60 L 681.70 429.60 L 679.30 426.90 L 676.90 424.70 L 674.40 422.90 L 668.70 420.30 L 662.50 419.20 L 656.30 419.40 L 653.20 420.00 L 647.30 422.10 L 641.50 425.60 L 636.10 430.20 L 632.60 434.20 L 623.10 447.10 L 620.90 430.00 L 616.30 401.60 L 613.90 390.30 L 611.00 379.10 L 605.60 361.70 L 604.40 355.80 L 616.40 361.80 L 622.60 364.20 L 627.00 364.70 L 632.90 364.30 L 636.20 363.50 L 639.30 362.20 L 644.90 358.40 L 650.90 352.10 L 653.90 348.00 L 660.40 346.30 L 667.00 345.10 L 673.70 344.40 L 680.50 344.20 L 694.00 345.00 L 714.10 348.00 L 734.20 351.50 L 776.40 359.60 L 780.50 359.20 L 783.10 357.80 L 784.00 356.70 L 784.50 355.40 L 784.60 353.60 L 776.30 167.30 L 775.50 158.40 L 775.50 144.80 L 775.10 140.40 L 774.30 136.10 L 772.90 131.80 L 768.00 129.90 L 761.00 125.80 L 758.60 124.80 L 755.20 124.30 L 753.30 124.50 L 751.60 114.00 L 750.80 112.30 L 748.90 110.50 L 740.00 107.60 L 732.50 105.70 L 717.00 102.90 L 709.20 102.00 L 701.40 101.60 L 693.50 101.50 L 685.70 101.90 L 677.90 102.70 L 670.20 103.90 L 662.60 105.60 L 655.20 107.80 L 647.80 110.40 L 640.70 113.50 L 633.80 117.20 L 627.00 121.40 L 622.10 117.30 L 616.90 113.50 L 611.50 110.20 L 605.90 107.20 L 594.20 102.20 L 582.00 98.60 L 573.60 96.90 L 565.20 95.90 L 556.70 95.40 L 546.00 95.20 L 535.40 95.70 L 530.20 96.60 L 525.00 98.10 Z M 434.00 123.70 L 437.30 129.00 L 448.00 126.80 L 452.70 155.10 L 454.60 164.50 L 459.70 164.40 L 461.20 164.00 L 463.00 162.90 L 463.70 161.80 L 463.00 155.70 L 458.60 131.60 L 457.80 125.50 L 464.60 124.70 L 466.20 124.30 L 467.60 123.40 L 468.30 116.80 L 463.20 116.50 L 458.00 116.60 L 446.10 118.20 L 439.60 120.00 L 435.80 122.10 L 434.00 123.70 Z M 396.90 143.20 L 399.30 146.80 L 400.80 148.20 L 403.40 149.80 L 409.40 152.10 L 420.50 155.00 L 422.20 156.10 L 423.50 157.60 L 424.20 159.40 L 424.00 161.80 L 423.20 163.10 L 422.10 164.40 L 419.50 166.00 L 417.30 166.50 L 414.80 166.60 L 407.30 166.00 L 405.00 166.10 L 404.60 172.00 L 405.00 173.90 L 407.20 174.90 L 411.70 175.80 L 415.10 175.80 L 418.60 175.20 L 422.10 174.20 L 425.30 172.90 L 427.70 171.60 L 429.90 169.70 L 431.80 167.50 L 433.20 165.00 L 434.00 162.30 L 434.30 159.60 L 434.00 157.70 L 432.50 154.20 L 430.90 152.00 L 427.20 148.80 L 424.00 147.00 L 420.50 145.60 L 406.00 141.10 L 407.30 136.90 L 408.70 135.30 L 412.30 134.50 L 419.80 134.00 L 421.50 133.40 L 423.10 132.20 L 423.30 130.70 L 422.80 128.10 L 421.10 126.10 L 419.90 125.50 L 417.20 125.00 L 412.30 125.50 L 408.60 126.50 L 405.00 128.10 L 401.80 130.20 L 399.90 131.90 L 398.40 133.80 L 397.30 135.80 L 396.60 138.10 L 396.50 140.50 L 396.90 143.20 Z M 359.70 148.90 L 356.50 150.30 L 353.70 152.20 L 351.10 154.50 L 348.90 157.10 L 347.10 160.00 L 345.70 163.10 L 344.70 166.40 L 344.30 169.80 L 344.40 173.30 L 345.70 179.30 L 346.80 182.20 L 348.30 184.90 L 352.10 189.80 L 354.40 191.90 L 356.80 193.60 L 359.60 195.00 L 362.40 195.90 L 365.50 196.40 L 368.70 196.40 L 372.00 196.20 L 375.30 195.70 L 378.40 194.60 L 381.30 193.10 L 384.00 191.30 L 386.40 189.10 L 388.60 186.60 L 390.30 183.90 L 391.70 180.90 L 392.70 177.80 L 393.10 174.60 L 393.10 171.20 L 392.60 167.30 L 391.40 163.60 L 389.70 160.10 L 387.50 156.80 L 384.90 154.00 L 381.80 151.50 L 378.50 149.60 L 375.00 148.10 L 371.20 147.30 L 368.40 147.10 L 365.50 147.20 L 362.60 147.80 L 359.70 148.90 Z M 314.70 177.90 L 314.70 179.80 L 315.70 183.20 L 317.10 185.50 L 322.70 191.90 L 324.40 194.10 L 325.60 196.50 L 321.10 201.20 L 318.50 203.10 L 315.60 204.50 L 313.50 203.40 L 311.60 201.70 L 306.60 195.70 L 304.80 194.00 L 302.00 192.30 L 300.30 191.90 L 298.30 192.20 L 296.80 194.10 L 296.40 195.70 L 296.50 197.30 L 297.00 198.60 L 299.40 201.90 L 307.60 211.00 L 299.20 218.90 L 296.20 221.20 L 294.10 220.00 L 286.60 212.60 L 284.50 211.30 L 281.30 210.60 L 279.30 210.90 L 278.90 213.00 L 279.00 214.90 L 279.40 216.70 L 280.70 219.30 L 282.50 221.70 L 286.60 226.10 L 301.40 240.70 L 309.70 247.10 L 313.10 242.60 L 313.40 241.40 L 313.10 240.00 L 310.40 236.70 L 301.30 227.60 L 307.10 222.20 L 311.40 219.20 L 313.80 218.30 L 323.90 228.20 L 327.50 231.30 L 332.60 226.00 L 324.40 216.20 L 322.80 213.50 L 321.70 210.50 L 326.50 206.30 L 331.70 202.60 L 340.30 212.20 L 343.40 215.10 L 345.00 215.50 L 346.80 215.30 L 348.40 214.60 L 349.60 213.50 L 350.30 211.60 L 350.10 210.30 L 346.60 205.30 L 342.90 200.40 L 324.30 179.00 L 321.20 176.60 L 319.60 175.90 L 317.90 175.80 L 316.90 176.10 L 314.70 177.90 Z M 253.60 244.10 L 252.10 247.80 L 251.30 251.50 L 251.00 255.30 L 251.30 259.10 L 252.10 262.70 L 253.50 266.30 L 255.20 269.80 L 257.40 272.90 L 259.90 275.90 L 262.80 278.40 L 265.90 280.60 L 269.30 282.30 L 272.90 283.50 L 276.60 284.10 L 283.80 283.90 L 286.70 283.10 L 289.50 281.80 L 292.10 280.00 L 294.30 277.80 L 296.10 275.30 L 297.60 272.60 L 298.60 269.70 L 299.20 266.60 L 299.30 263.50 L 298.70 260.50 L 297.60 257.40 L 295.00 252.60 L 293.40 250.20 L 291.50 248.20 L 290.00 247.20 L 288.40 246.60 L 286.60 246.30 L 282.70 248.40 L 281.00 249.80 L 278.70 252.30 L 277.10 255.20 L 275.80 259.40 L 275.60 261.70 L 282.70 262.00 L 286.10 257.30 L 287.40 258.60 L 289.10 261.80 L 289.60 263.60 L 289.70 267.10 L 288.40 270.40 L 285.50 273.30 L 283.50 274.20 L 281.40 274.60 L 279.10 274.60 L 274.80 274.00 L 269.90 271.40 L 267.70 269.60 L 264.00 265.30 L 261.50 260.20 L 260.80 257.50 L 260.50 254.70 L 260.60 252.00 L 261.10 249.20 L 263.50 244.20 L 270.50 236.10 L 272.00 233.90 L 270.90 231.60 L 268.90 231.10 L 267.00 231.10 L 265.20 231.50 L 262.70 232.60 L 260.40 234.40 L 258.30 236.60 L 256.50 239.10 L 253.60 244.10 Z" fill="#fbfbf9" fill-rule="nonzero" node-id="167" stroke="none" target-height="707.9" target-width="588.9" target-x="218.1" target-y="72.1"></path><path d="M 532.30 105.50 L 540.20 104.60 L 548.20 104.30 L 556.30 104.40 L 564.30 105.00 L 572.30 106.10 L 580.10 107.80 L 587.80 110.00 L 595.30 112.80 L 602.60 116.20 L 607.80 119.10 L 612.80 122.40 L 617.60 126.00 L 622.30 130.00 L 622.70 307.10 L 622.90 315.20 L 623.40 323.20 L 624.60 331.30 L 620.80 325.80 L 616.00 321.20 L 610.30 317.60 L 600.20 314.00 L 578.50 308.00 L 572.40 306.90 L 541.60 303.70 L 532.30 105.50 Z M 551.90 123.60 L 551.60 125.60 L 551.80 127.10 L 552.30 128.20 L 554.20 129.80 L 557.70 130.60 L 564.70 129.90 L 571.90 130.60 L 583.80 132.60 L 593.00 135.50 L 606.70 141.70 L 613.80 144.10 L 612.40 139.00 L 611.50 137.50 L 610.30 136.20 L 603.00 132.10 L 597.00 129.40 L 590.80 127.10 L 584.50 125.30 L 578.10 124.00 L 571.50 123.20 L 565.00 122.80 L 558.40 122.90 L 551.90 123.60 Z M 553.60 142.90 L 552.20 144.50 L 552.30 146.60 L 553.10 147.90 L 555.70 149.70 L 557.30 150.00 L 566.10 149.80 L 573.40 150.30 L 580.60 151.40 L 587.70 153.00 L 594.60 155.20 L 606.70 160.40 L 609.40 161.40 L 612.20 162.10 L 612.70 158.10 L 612.00 155.80 L 606.20 152.30 L 601.40 149.90 L 596.40 148.00 L 586.00 145.00 L 572.70 142.70 L 559.00 141.50 L 555.30 142.00 L 553.60 142.90 Z M 553.60 164.90 L 553.30 166.10 L 553.60 167.60 L 554.40 168.20 L 555.50 168.60 L 558.30 168.80 L 567.50 168.10 L 574.10 168.10 L 580.70 168.80 L 587.20 170.10 L 593.60 171.90 L 599.80 174.20 L 611.10 179.60 L 615.00 181.00 L 614.70 178.50 L 614.00 176.30 L 612.90 174.30 L 609.70 171.10 L 602.40 167.40 L 597.00 165.30 L 591.50 163.60 L 580.00 161.30 L 568.50 160.50 L 562.70 160.60 L 556.80 161.30 L 555.30 161.70 L 553.80 163.00 L 553.60 164.90 Z M 553.80 181.80 L 553.70 187.80 L 571.10 188.20 L 582.60 189.70 L 592.90 192.50 L 597.40 194.20 L 615.10 202.20 L 615.10 200.20 L 614.30 197.00 L 612.90 194.90 L 611.10 193.10 L 606.60 190.30 L 601.90 188.10 L 595.60 185.80 L 589.30 183.80 L 582.80 182.30 L 576.20 181.20 L 569.50 180.50 L 558.10 180.30 L 555.20 180.90 L 553.80 181.80 Z M 558.80 206.80 L 565.90 206.30 L 573.00 206.40 L 580.10 207.10 L 587.10 208.40 L 593.90 210.20 L 600.60 212.60 L 608.50 216.20 L 611.30 217.10 L 614.00 217.60 L 617.00 217.50 L 616.30 215.50 L 614.30 212.20 L 612.20 210.20 L 609.70 208.50 L 607.00 207.20 L 598.60 203.90 L 585.00 200.20 L 578.00 199.00 L 571.00 198.30 L 561.60 198.60 L 555.70 199.40 L 554.20 200.50 L 553.80 201.90 L 554.00 203.50 L 554.60 205.00 L 555.70 206.20 L 557.60 206.90 L 558.80 206.80 Z M 554.30 220.00 L 555.90 225.10 L 570.20 225.40 L 577.30 226.20 L 584.40 227.40 L 591.30 229.10 L 598.20 231.30 L 609.70 236.30 L 615.70 238.00 L 614.50 233.30 L 612.90 230.80 L 606.70 227.20 L 601.80 225.00 L 596.70 223.10 L 588.90 221.00 L 580.80 219.40 L 564.70 217.50 L 559.00 217.40 L 557.20 217.80 L 555.20 218.90 L 554.30 220.00 Z M 553.70 239.20 L 556.30 244.80 L 563.90 244.60 L 571.40 245.00 L 579.00 245.80 L 586.40 247.20 L 596.00 250.20 L 600.60 252.10 L 611.40 257.60 L 614.20 258.60 L 617.20 259.10 L 615.00 254.20 L 613.00 251.30 L 606.60 247.20 L 601.50 244.70 L 596.20 242.60 L 585.30 239.60 L 571.10 237.50 L 560.30 236.70 L 558.00 237.30 L 553.70 239.20 Z M 555.40 255.90 L 555.40 262.80 L 569.50 263.40 L 576.50 264.20 L 583.40 265.60 L 590.20 267.50 L 600.20 271.50 L 606.60 275.20 L 612.10 277.80 L 616.90 278.70 L 615.30 273.60 L 613.20 270.80 L 606.10 266.50 L 600.20 263.60 L 594.10 261.00 L 587.80 258.90 L 581.50 257.30 L 575.00 256.20 L 568.50 255.50 L 562.00 255.50 L 555.40 255.90 Z M 557.10 274.70 L 553.00 279.30 L 557.00 281.90 L 572.80 282.20 L 576.70 282.70 L 588.30 285.40 L 597.50 289.20 L 602.80 292.00 L 613.10 298.20 L 611.90 298.50 L 616.80 299.70 L 614.80 291.30 L 609.10 287.50 L 603.20 284.10 L 597.00 281.20 L 590.60 278.80 L 584.10 276.90 L 577.40 275.50 L 570.70 274.60 L 563.90 274.40 L 557.10 274.70 Z M 556.70 302.70 L 574.60 304.60 L 586.30 306.90 L 597.90 310.60 L 609.30 315.20 L 614.70 317.90 L 616.50 318.40 L 618.30 318.40 L 620.40 317.50 L 621.60 316.50 L 616.10 310.90 L 613.10 308.50 L 604.30 304.00 L 593.30 300.00 L 581.90 297.20 L 576.10 296.20 L 567.30 295.20 L 558.60 294.60 L 557.00 294.90 L 555.60 295.70 L 554.60 296.90 L 554.00 298.30 L 553.80 299.80 L 554.10 301.10 L 555.50 302.40 L 556.70 302.70 Z" fill="#fbfbf9" fill-rule="nonzero" node-id="169" stroke="none" target-height="226.99998" target-width="92.29999" target-x="532.3" target-y="104.3"></path><path d="M 630.70 129.70 L 637.10 125.90 L 643.70 122.50 L 650.50 119.70 L 657.40 117.20 L 664.40 115.20 L 671.60 113.70 L 678.80 112.50 L 686.10 111.80 L 700.80 111.40 L 715.60 112.50 L 725.30 114.10 L 734.90 116.20 L 744.30 118.90 L 743.90 139.00 L 743.70 199.50 L 743.40 219.70 L 742.60 239.80 L 742.10 314.30 L 737.60 313.70 L 733.10 312.70 L 720.00 308.80 L 707.50 306.20 L 699.30 305.00 L 691.10 304.20 L 682.90 303.90 L 674.60 304.00 L 666.40 304.60 L 658.30 305.60 L 650.20 307.20 L 646.60 308.30 L 643.10 309.70 L 639.70 311.50 L 636.80 313.70 L 635.20 315.50 L 633.80 317.60 L 632.70 319.90 L 642.70 317.60 L 659.80 314.50 L 673.40 313.30 L 680.30 313.30 L 687.10 313.80 L 694.00 314.90 L 701.00 315.20 L 721.90 317.40 L 729.60 319.20 L 737.10 321.60 L 726.60 321.30 L 724.00 320.80 L 718.90 318.70 L 716.20 317.90 L 709.10 316.90 L 679.50 316.40 L 671.10 316.70 L 662.80 317.50 L 657.30 318.30 L 646.70 321.00 L 641.60 323.00 L 636.60 325.40 L 631.80 328.40 L 631.90 319.70 L 631.00 302.40 L 630.70 129.70 Z M 663.00 132.30 L 653.00 135.50 L 648.30 137.60 L 643.80 140.20 L 643.80 145.10 L 645.80 146.00 L 648.30 145.70 L 657.40 141.80 L 662.20 140.20 L 674.40 137.60 L 681.80 136.40 L 695.00 136.30 L 708.20 136.70 L 721.40 137.90 L 721.10 130.80 L 715.40 129.60 L 709.60 128.90 L 690.10 128.60 L 683.20 128.90 L 676.40 129.50 L 669.70 130.60 L 663.00 132.30 Z M 645.00 158.60 L 643.90 159.20 L 643.20 160.00 L 641.80 164.60 L 648.60 164.10 L 657.40 161.40 L 666.20 159.40 L 675.10 157.90 L 684.10 157.00 L 693.20 156.60 L 702.20 156.80 L 711.30 157.60 L 720.30 158.90 L 720.70 152.40 L 716.70 151.10 L 708.60 149.50 L 696.10 148.80 L 687.40 149.00 L 678.60 149.60 L 667.10 151.40 L 655.80 154.30 L 645.00 158.60 Z M 646.30 176.80 L 645.30 177.20 L 644.20 178.50 L 644.00 179.80 L 644.10 184.10 L 660.40 179.30 L 668.70 177.30 L 682.60 175.20 L 688.30 174.80 L 698.40 174.80 L 720.30 177.80 L 720.90 175.90 L 720.70 173.30 L 719.20 171.40 L 716.20 169.80 L 709.70 168.50 L 695.40 167.40 L 688.20 167.40 L 681.00 167.90 L 673.80 168.70 L 666.70 170.00 L 659.80 171.80 L 653.00 174.00 L 646.30 176.80 Z M 680.10 188.50 L 668.00 190.80 L 661.90 192.40 L 656.00 194.40 L 650.30 196.80 L 643.70 200.20 L 642.30 201.80 L 641.90 203.30 L 642.00 204.80 L 642.60 206.10 L 643.60 207.10 L 645.50 207.40 L 646.80 207.00 L 652.70 204.00 L 658.70 201.40 L 665.00 199.30 L 671.30 197.70 L 677.80 196.50 L 684.40 195.70 L 697.50 195.30 L 707.10 196.00 L 716.00 197.60 L 719.00 197.70 L 722.00 197.40 L 722.20 195.90 L 721.40 193.00 L 720.50 191.70 L 719.30 190.90 L 717.80 190.40 L 711.60 189.20 L 699.10 187.90 L 692.70 187.80 L 680.10 188.50 Z M 642.70 218.20 L 641.80 222.90 L 644.00 223.30 L 648.40 222.80 L 662.10 218.40 L 669.40 216.70 L 676.80 215.50 L 684.20 214.80 L 691.70 214.50 L 699.30 214.70 L 706.80 215.20 L 721.60 217.50 L 720.70 211.00 L 716.80 209.50 L 712.70 208.40 L 704.40 207.30 L 696.00 206.80 L 686.90 207.10 L 677.70 207.90 L 665.50 209.80 L 659.60 211.30 L 653.80 213.10 L 648.10 215.40 L 642.70 218.20 Z M 642.40 237.70 L 641.90 239.20 L 642.30 241.50 L 643.90 242.90 L 646.20 243.30 L 656.40 239.80 L 664.20 237.60 L 672.20 236.00 L 680.30 235.00 L 688.40 234.50 L 696.50 234.70 L 702.50 235.30 L 714.50 237.60 L 720.40 239.30 L 720.50 232.90 L 718.40 231.40 L 716.00 230.30 L 713.50 229.50 L 705.80 228.10 L 698.60 227.30 L 691.40 227.00 L 684.10 227.00 L 676.90 227.60 L 669.70 228.60 L 662.60 230.10 L 655.70 232.10 L 648.90 234.60 L 642.40 237.70 Z M 644.10 256.80 L 642.60 258.30 L 642.40 260.40 L 643.00 261.60 L 644.00 262.60 L 646.20 263.10 L 653.80 260.00 L 659.50 258.10 L 671.10 255.50 L 679.00 254.50 L 686.90 254.00 L 694.90 253.90 L 706.90 254.50 L 718.80 255.60 L 719.80 255.30 L 720.70 254.20 L 720.70 248.80 L 712.20 247.50 L 703.50 246.60 L 694.80 246.20 L 686.00 246.30 L 677.30 247.00 L 668.70 248.40 L 662.40 249.80 L 656.20 251.70 L 650.10 254.00 L 644.10 256.80 Z M 652.90 273.00 L 647.60 275.30 L 645.20 276.80 L 643.30 278.70 L 642.40 280.20 L 642.00 281.90 L 642.10 284.10 L 659.60 278.20 L 665.90 276.40 L 678.80 273.90 L 685.30 273.10 L 698.40 272.80 L 705.00 273.30 L 711.40 274.20 L 717.90 275.60 L 720.30 274.80 L 720.80 273.00 L 720.60 270.60 L 719.80 269.30 L 718.40 268.40 L 716.70 267.70 L 710.90 266.60 L 703.50 265.70 L 696.20 265.30 L 688.90 265.50 L 681.50 266.10 L 674.20 267.20 L 667.00 268.70 L 659.90 270.70 L 652.90 273.00 Z M 647.10 295.30 L 645.80 295.80 L 644.40 297.20 L 643.80 300.30 L 643.80 303.80 L 655.70 299.80 L 667.80 296.60 L 674.00 295.50 L 687.40 294.50 L 694.40 294.60 L 701.40 295.20 L 715.30 297.60 L 722.20 299.30 L 722.80 292.10 L 710.40 288.90 L 697.60 287.20 L 684.70 286.90 L 671.80 288.20 L 665.40 289.40 L 659.20 291.00 L 653.10 293.00 L 647.10 295.30 Z" fill="#fbfbf9" fill-rule="nonzero" node-id="171" stroke="none" target-height="217" target-width="113.599976" target-x="630.7" target-y="111.4"></path><path d="M 753.60 134.20 L 756.10 134.20 L 755.60 262.90 L 756.00 327.20 L 749.10 325.10 L 751.10 318.80 L 751.60 315.50 L 751.70 312.20 L 752.30 216.20 L 753.20 202.50 L 753.60 188.90 L 753.60 134.20 Z" fill="#fbfbf9" fill-rule="nonzero" node-id="173" stroke="none" target-height="193.00002" target-width="7" target-x="749.1" target-y="134.2"></path><path d="M 362.10 157.00 L 364.90 156.10 L 367.60 155.90 L 370.20 156.30 L 372.70 157.10 L 375.00 158.30 L 377.10 160.00 L 380.60 164.10 L 381.90 166.50 L 382.90 169.10 L 383.40 171.70 L 383.60 174.40 L 383.30 177.00 L 382.50 179.50 L 381.20 182.00 L 379.70 183.80 L 378.10 185.20 L 376.20 186.40 L 371.90 187.70 L 369.60 187.90 L 365.20 187.10 L 361.10 184.90 L 359.30 183.30 L 357.70 181.50 L 355.30 177.30 L 354.00 172.60 L 353.80 170.20 L 354.40 165.60 L 356.30 161.50 L 357.80 159.70 L 359.70 158.20 L 362.10 157.00 Z" fill="#fbfbf9" fill-rule="nonzero" node-id="175" stroke="none" target-height="32" target-width="29.800018" target-x="353.8" target-y="155.9"></path><path d="M 765.30 156.70 L 767.40 165.00 L 767.30 177.80 L 767.90 216.20 L 768.90 224.00 L 769.30 231.80 L 769.70 255.40 L 770.00 263.30 L 770.90 270.10 L 771.30 277.00 L 772.00 304.50 L 773.00 311.90 L 773.50 319.30 L 773.80 349.10 L 764.40 346.30 L 771.90 344.40 L 771.80 340.60 L 769.70 340.90 L 769.70 330.80 L 765.30 331.20 L 765.30 156.70 Z" fill="#fbfbf9" fill-rule="nonzero" node-id="177" stroke="none" target-height="192.40001" target-width="9.399963" target-x="764.4" target-y="156.7"></path><path d="M 411.30 289.90 L 433.20 281.90 L 444.30 278.40 L 455.60 275.60 L 462.40 274.70 L 469.20 274.30 L 476.10 274.20 L 489.70 275.10 L 506.70 277.80 L 516.80 279.90 L 517.60 286.30 L 519.10 292.50 L 520.10 294.00 L 522.60 295.90 L 524.90 296.70 L 532.30 297.50 L 532.70 304.40 L 533.10 306.60 L 534.60 309.10 L 535.80 310.10 L 538.80 311.50 L 542.10 312.40 L 552.10 314.00 L 555.40 314.70 L 558.50 315.80 L 561.40 317.60 L 566.00 321.50 L 570.30 325.80 L 574.10 330.50 L 577.60 335.50 L 583.70 346.00 L 587.80 355.20 L 591.60 364.60 L 594.90 374.10 L 597.90 383.80 L 601.20 396.80 L 604.10 409.90 L 606.40 423.20 L 609.80 450.00 L 613.20 490.20 L 619.10 581.70 L 621.60 603.40 L 627.20 635.70 L 632.90 658.20 L 636.00 672.90 L 635.10 676.80 L 633.70 680.50 L 631.80 684.00 L 627.00 690.50 L 624.30 693.30 L 621.60 695.40 L 618.70 696.70 L 615.70 697.50 L 612.60 697.70 L 609.50 697.40 L 606.30 696.60 L 603.30 695.40 L 600.50 693.80 L 597.90 691.80 L 595.60 689.50 L 593.70 686.90 L 592.30 684.10 L 590.50 676.50 L 586.50 653.30 L 584.80 645.70 L 582.50 638.20 L 581.10 640.30 L 580.20 642.40 L 579.70 644.70 L 579.40 648.20 L 579.70 655.50 L 579.70 684.00 L 579.30 690.20 L 578.20 696.40 L 577.70 702.10 L 575.90 711.60 L 573.30 718.80 L 571.50 722.10 L 569.40 725.30 L 564.40 730.50 L 561.90 732.50 L 555.00 736.70 L 550.50 738.60 L 541.10 741.50 L 527.30 744.00 L 519.60 744.10 L 513.50 742.90 L 508.90 741.10 L 504.50 739.00 L 500.20 736.40 L 496.30 733.30 L 492.70 730.00 L 489.60 726.20 L 487.50 723.10 L 484.40 716.50 L 483.30 712.90 L 481.00 702.50 L 479.10 692.10 L 477.80 681.60 L 476.90 671.00 L 475.50 665.10 L 475.00 659.10 L 472.50 649.70 L 468.20 650.70 L 466.40 671.20 L 466.00 681.50 L 465.80 712.30 L 463.60 716.20 L 461.10 719.60 L 458.10 722.60 L 454.70 725.30 L 447.30 729.90 L 441.40 732.60 L 435.30 734.90 L 431.50 735.90 L 423.50 737.10 L 419.50 737.20 L 415.50 736.90 L 411.60 736.20 L 407.80 735.00 L 404.30 733.10 L 398.20 728.30 L 393.40 722.90 L 391.50 719.80 L 389.30 715.50 L 387.60 710.90 L 386.40 706.20 L 384.80 699.10 L 383.60 691.90 L 382.80 684.60 L 381.80 680.60 L 380.70 658.00 L 379.70 646.70 L 378.50 635.50 L 375.00 613.10 L 372.00 616.30 L 371.20 617.50 L 370.50 620.30 L 370.00 627.10 L 369.40 654.30 L 367.90 666.80 L 367.90 687.30 L 367.40 690.40 L 366.50 693.30 L 363.50 698.80 L 361.60 701.30 L 356.90 705.60 L 351.40 708.80 L 345.50 710.90 L 334.90 711.60 L 329.60 711.30 L 321.00 709.70 L 314.40 707.10 L 315.30 698.20 L 316.50 689.40 L 318.20 680.70 L 318.80 672.80 L 320.20 665.10 L 320.90 651.90 L 322.10 645.50 L 322.40 638.20 L 324.80 609.50 L 325.00 602.30 L 325.90 596.40 L 326.70 572.80 L 328.00 561.00 L 328.70 537.60 L 330.00 522.60 L 331.00 486.00 L 331.80 476.90 L 333.60 438.80 L 334.50 426.00 L 337.40 400.70 L 339.40 388.20 L 342.10 375.70 L 345.40 363.40 L 347.30 357.40 L 350.30 350.00 L 353.80 342.90 L 357.80 336.10 L 362.30 329.50 L 367.20 323.20 L 372.60 317.30 L 378.20 311.80 L 384.30 306.60 L 390.70 301.80 L 397.30 297.40 L 404.20 293.40 L 411.30 289.90 Z M 511.60 412.50 L 515.70 414.40 L 517.40 415.80 L 518.50 417.60 L 518.80 418.80 L 518.60 420.20 L 517.30 423.30 L 516.50 424.20 L 515.60 424.70 L 514.10 425.10 L 512.50 424.80 L 510.90 424.10 L 509.40 423.10 L 507.10 420.30 L 506.00 424.20 L 505.30 428.10 L 505.20 436.00 L 506.50 443.90 L 507.70 447.70 L 511.20 454.80 L 513.50 458.10 L 516.10 461.10 L 519.00 463.80 L 521.80 465.60 L 524.80 467.00 L 527.90 468.00 L 531.10 468.50 L 534.30 468.60 L 537.60 468.30 L 540.80 467.50 L 543.80 466.40 L 546.80 464.90 L 549.40 463.10 L 551.80 460.80 L 553.90 458.20 L 557.20 452.00 L 559.20 445.10 L 559.80 440.30 L 559.80 435.60 L 559.20 430.80 L 558.10 426.10 L 556.40 421.60 L 554.20 417.40 L 552.10 414.50 L 547.20 409.50 L 544.20 407.30 L 538.80 404.80 L 532.90 403.60 L 526.90 403.80 L 521.20 405.40 L 515.90 408.30 L 513.70 410.20 L 511.60 412.50 Z M 384.70 418.10 L 386.90 418.40 L 390.10 419.80 L 391.70 421.70 L 392.10 422.90 L 392.00 424.30 L 391.10 427.40 L 389.60 428.90 L 388.00 429.40 L 386.30 429.40 L 384.50 428.90 L 382.70 428.10 L 379.70 426.20 L 379.20 432.00 L 379.10 437.90 L 380.00 445.60 L 382.20 453.00 L 383.90 456.50 L 387.80 462.50 L 389.90 464.80 L 395.10 468.70 L 400.90 471.20 L 404.00 471.90 L 407.20 472.20 L 410.30 472.10 L 413.40 471.60 L 416.40 470.60 L 419.30 469.10 L 422.60 466.50 L 425.40 463.60 L 427.70 460.40 L 429.60 456.90 L 431.00 453.10 L 432.00 449.20 L 432.60 445.20 L 432.80 441.10 L 432.50 437.00 L 431.80 433.00 L 430.60 429.10 L 429.10 425.30 L 427.20 421.80 L 424.80 418.50 L 422.00 415.60 L 419.30 413.40 L 416.30 411.50 L 413.10 410.10 L 409.60 409.10 L 406.20 408.60 L 402.60 408.50 L 399.10 408.90 L 395.70 409.80 L 392.50 411.10 L 389.60 412.90 L 387.00 415.20 L 384.70 418.10 Z M 461.70 467.90 L 458.40 469.30 L 455.10 471.20 L 451.60 474.60 L 450.30 476.60 L 449.50 478.80 L 449.30 481.10 L 449.60 483.80 L 454.70 485.20 L 459.20 480.80 L 461.70 478.90 L 464.40 477.50 L 468.40 476.50 L 472.90 476.30 L 477.10 477.10 L 480.00 478.40 L 482.80 480.10 L 488.20 483.80 L 490.60 483.90 L 492.50 482.60 L 493.10 481.30 L 493.40 479.90 L 493.20 478.30 L 492.60 476.80 L 489.10 472.80 L 486.20 470.60 L 483.00 468.80 L 479.60 467.50 L 476.10 466.70 L 472.50 466.30 L 468.80 466.40 L 465.20 466.90 L 461.70 467.90 Z" fill="#fbfbf9" fill-rule="nonzero" node-id="179" stroke="none" target-height="469.89996" target-width="321.6" target-x="314.4" target-y="274.2"></path><path d="M 651.10 433.90 L 654.80 431.60 L 656.90 430.80 L 659.10 430.40 L 663.40 430.50 L 665.50 431.10 L 667.40 432.10 L 669.20 433.40 L 671.80 436.10 L 673.90 439.00 L 675.40 442.20 L 677.20 447.30 L 678.40 452.70 L 680.50 467.80 L 680.70 472.10 L 679.90 480.70 L 677.70 489.20 L 675.40 495.30 L 672.70 501.20 L 669.00 506.20 L 664.90 510.90 L 660.40 515.10 L 655.40 518.90 L 645.00 525.60 L 629.10 532.80 L 626.50 502.80 L 624.30 472.80 L 631.80 458.80 L 635.80 451.90 L 640.20 445.40 L 643.50 441.30 L 647.10 437.40 L 651.10 433.90 Z" fill="#fbfbf9" fill-rule="nonzero" node-id="181" stroke="none" target-height="102.399994" target-width="56.400024" target-x="624.3" target-y="430.4"></path><path d="M 266.80 437.00 L 268.80 435.50 L 271.10 434.60 L 273.60 434.10 L 276.10 434.10 L 281.00 435.10 L 284.60 437.20 L 288.00 439.60 L 291.00 442.30 L 295.30 446.70 L 307.40 460.90 L 313.30 466.50 L 316.60 469.00 L 316.90 478.80 L 314.70 517.60 L 314.80 527.30 L 309.70 526.90 L 307.20 526.30 L 304.80 525.20 L 290.90 517.60 L 282.10 511.70 L 278.00 508.40 L 274.20 504.80 L 270.70 500.80 L 267.50 496.70 L 262.10 487.50 L 258.10 477.80 L 256.70 472.80 L 255.80 468.50 L 255.40 464.20 L 255.50 459.80 L 256.00 455.40 L 257.10 451.20 L 258.70 447.20 L 262.10 441.70 L 266.80 437.00 Z" fill="#fbfbf9" fill-rule="nonzero" node-id="183" stroke="none" target-height="93.19998" target-width="61.5" target-x="255.4" target-y="434.1"></path><path d="M 537.30 792.70 L 543.90 791.60 L 550.40 791.00 L 557.00 791.20 L 563.60 791.90 L 570.10 793.10 L 576.40 794.90 L 584.40 792.50 L 594.70 791.30 L 601.00 791.20 L 617.70 791.70 L 621.90 792.40 L 626.00 793.80 L 629.80 795.60 L 634.10 799.10 L 636.00 801.30 L 637.50 804.00 L 638.70 806.80 L 639.40 809.70 L 639.80 815.70 L 638.70 821.80 L 636.50 827.40 L 634.00 830.90 L 628.20 837.50 L 628.00 854.70 L 628.30 871.90 L 633.30 872.00 L 652.40 871.30 L 659.00 872.40 L 662.10 873.40 L 665.10 875.10 L 670.30 879.60 L 672.20 882.00 L 673.60 884.60 L 675.40 890.40 L 676.00 898.10 L 675.80 902.90 L 674.20 915.30 L 674.20 918.50 L 675.30 928.30 L 675.20 931.50 L 674.70 934.20 L 672.90 939.40 L 669.90 944.00 L 665.90 947.60 L 663.50 949.00 L 660.90 949.90 L 655.90 950.60 L 650.80 950.60 L 645.80 950.10 L 640.90 948.90 L 631.00 951.10 L 618.40 952.00 L 610.80 951.90 L 587.90 950.80 L 580.40 950.80 L 570.60 951.50 L 565.70 951.50 L 556.90 950.60 L 541.20 951.50 L 534.00 950.50 L 530.80 950.40 L 518.00 951.30 L 514.80 951.10 L 508.80 949.80 L 503.50 947.50 L 501.10 945.80 L 499.10 943.80 L 497.30 941.50 L 496.00 939.00 L 495.20 936.30 L 494.80 933.40 L 494.70 922.50 L 494.20 916.50 L 492.70 912.30 L 491.40 910.60 L 489.50 909.10 L 487.10 907.90 L 484.80 912.60 L 483.10 917.40 L 482.30 920.80 L 481.70 931.10 L 481.00 934.50 L 479.90 937.70 L 478.30 940.80 L 476.30 943.60 L 473.90 946.00 L 471.10 948.00 L 468.00 949.40 L 460.70 951.00 L 456.90 951.10 L 445.20 950.10 L 441.30 950.10 L 414.20 951.40 L 399.70 949.70 L 396.10 949.60 L 380.60 951.70 L 376.70 951.80 L 370.30 950.80 L 362.80 948.60 L 357.90 948.10 L 354.70 948.80 L 353.00 949.70 L 343.20 950.60 L 336.70 950.20 L 330.80 948.80 L 328.10 948.60 L 322.80 949.40 L 314.70 951.30 L 307.40 951.80 L 298.30 950.80 L 293.80 949.70 L 289.50 948.10 L 285.50 945.90 L 281.30 942.10 L 279.60 939.80 L 277.30 934.70 L 276.40 929.20 L 276.50 926.40 L 277.90 918.80 L 277.90 916.50 L 276.40 905.80 L 275.90 899.80 L 276.70 895.10 L 278.60 889.10 L 281.80 883.90 L 286.00 879.40 L 291.10 875.90 L 296.50 873.30 L 302.00 871.90 L 306.30 871.60 L 319.10 872.00 L 316.90 865.90 L 315.30 859.70 L 314.20 853.30 L 313.70 846.80 L 313.80 840.40 L 314.40 833.90 L 315.50 827.50 L 317.30 821.30 L 319.50 815.20 L 321.50 811.30 L 323.90 807.70 L 326.70 804.50 L 329.80 801.50 L 333.20 798.90 L 336.90 796.50 L 344.80 793.00 L 349.00 791.80 L 355.80 791.00 L 362.60 790.70 L 371.60 791.40 L 380.40 793.50 L 384.60 795.20 L 388.70 797.30 L 398.00 793.40 L 401.20 792.40 L 407.80 791.40 L 411.10 791.40 L 414.40 791.80 L 420.00 793.40 L 424.20 793.80 L 436.90 791.70 L 440.10 791.60 L 446.20 792.60 L 449.00 793.50 L 455.40 797.00 L 459.00 799.50 L 463.70 796.70 L 468.60 794.50 L 473.70 792.80 L 478.90 791.60 L 484.30 790.90 L 489.70 790.60 L 495.10 790.80 L 505.90 792.00 L 511.40 794.00 L 522.00 799.30 L 524.60 798.50 L 534.60 793.50 L 537.30 792.70 Z M 343.10 819.60 L 340.90 822.60 L 339.00 825.90 L 337.60 829.30 L 335.70 836.60 L 335.20 840.30 L 335.50 847.90 L 337.20 855.20 L 340.30 862.00 L 342.10 864.40 L 344.10 866.50 L 348.80 869.80 L 352.40 871.40 L 356.10 872.40 L 360.00 872.90 L 363.90 872.80 L 367.70 872.30 L 371.50 871.20 L 375.00 869.60 L 378.20 867.40 L 381.10 864.70 L 382.10 856.70 L 382.10 840.30 L 361.10 840.90 L 361.70 850.30 L 372.40 851.60 L 371.50 858.30 L 370.30 859.90 L 368.90 861.00 L 367.30 861.80 L 364.50 862.50 L 361.60 862.60 L 356.10 861.60 L 353.50 859.80 L 351.30 857.70 L 349.50 855.30 L 348.00 852.60 L 346.90 849.80 L 345.80 843.60 L 346.10 837.30 L 347.80 831.30 L 349.10 828.50 L 350.80 826.00 L 352.90 823.70 L 355.30 821.80 L 357.90 820.70 L 360.50 820.30 L 365.90 820.80 L 376.50 823.10 L 377.70 822.30 L 379.10 820.30 L 379.40 818.50 L 379.10 816.70 L 378.50 815.60 L 376.50 813.90 L 371.00 811.50 L 368.00 810.80 L 361.90 810.50 L 355.80 811.50 L 350.10 813.80 L 347.50 815.50 L 343.10 819.60 Z M 401.40 817.80 L 401.30 856.30 L 401.60 869.20 L 402.50 870.50 L 403.60 871.20 L 404.70 871.60 L 406.70 871.50 L 408.80 871.00 L 412.70 869.60 L 412.60 844.40 L 434.20 844.50 L 434.20 857.90 L 434.70 871.40 L 443.30 871.50 L 444.30 870.60 L 445.40 868.50 L 445.70 866.70 L 445.00 849.90 L 445.60 833.30 L 445.60 819.50 L 445.30 816.80 L 444.60 814.30 L 443.30 811.80 L 440.10 811.20 L 436.90 811.50 L 435.70 812.20 L 434.60 813.70 L 434.20 818.60 L 434.40 833.40 L 423.50 834.00 L 412.70 833.70 L 412.70 818.60 L 412.40 813.60 L 411.60 812.30 L 410.60 811.40 L 409.40 810.90 L 407.40 810.70 L 405.40 811.20 L 403.50 812.20 L 402.10 813.70 L 401.30 816.30 L 401.40 817.80 Z M 479.10 812.80 L 476.20 814.40 L 471.30 818.40 L 469.20 820.80 L 466.90 824.40 L 465.00 828.20 L 463.60 832.30 L 462.80 836.50 L 462.40 840.80 L 462.50 845.20 L 463.10 849.50 L 464.20 853.60 L 465.90 857.60 L 468.00 861.30 L 470.60 864.60 L 473.80 867.60 L 477.10 869.70 L 480.60 871.30 L 484.30 872.40 L 488.10 872.90 L 492.00 872.90 L 495.90 872.40 L 499.60 871.40 L 503.20 870.00 L 506.50 868.10 L 509.50 865.70 L 512.10 862.80 L 514.30 859.50 L 516.20 855.20 L 517.50 850.60 L 518.30 845.90 L 518.50 841.10 L 518.10 836.40 L 517.10 831.70 L 516.00 828.30 L 512.80 822.00 L 510.60 819.10 L 507.80 816.50 L 504.70 814.40 L 501.30 812.70 L 497.70 811.60 L 494.00 810.90 L 490.20 810.70 L 486.40 810.90 L 482.70 811.60 L 479.10 812.80 Z M 538.70 817.30 L 537.00 819.10 L 535.70 821.20 L 534.80 823.40 L 534.30 825.80 L 534.50 830.60 L 535.20 833.00 L 536.20 835.10 L 537.60 837.10 L 541.50 840.90 L 547.30 844.30 L 554.60 848.00 L 558.00 850.20 L 559.20 851.30 L 559.90 852.60 L 560.30 855.60 L 559.40 858.60 L 557.40 860.90 L 556.00 861.60 L 553.50 862.30 L 551.10 862.50 L 548.70 862.40 L 545.20 861.60 L 535.00 857.40 L 532.70 863.60 L 532.60 865.20 L 533.20 866.70 L 535.20 868.40 L 539.70 870.70 L 543.40 871.80 L 547.30 872.20 L 551.30 872.30 L 558.40 871.40 L 561.60 870.30 L 564.60 868.70 L 567.20 866.60 L 568.70 864.90 L 570.90 861.00 L 571.60 857.90 L 571.70 854.70 L 571.30 851.50 L 570.30 848.50 L 568.80 845.60 L 566.80 843.10 L 563.70 840.50 L 560.30 838.40 L 549.70 832.70 L 546.50 830.20 L 545.60 828.70 L 545.30 827.00 L 545.50 825.30 L 546.20 823.70 L 547.40 822.50 L 548.90 821.60 L 550.90 820.90 L 555.10 820.50 L 558.20 820.80 L 567.50 823.30 L 568.80 819.80 L 569.10 818.00 L 568.50 815.40 L 566.50 813.80 L 563.40 812.50 L 560.30 811.70 L 557.00 811.30 L 553.60 811.30 L 550.40 811.70 L 547.20 812.50 L 544.10 813.70 L 541.30 815.30 L 538.70 817.30 Z M 582.60 818.40 L 584.40 819.70 L 586.30 820.50 L 588.30 820.90 L 594.60 821.20 L 594.60 858.10 L 594.80 870.40 L 597.80 871.50 L 601.50 871.60 L 603.30 871.20 L 604.70 870.30 L 605.40 869.50 L 605.90 867.20 L 605.50 844.00 L 605.80 820.80 L 616.10 820.50 L 617.20 820.00 L 618.40 818.60 L 618.90 817.20 L 619.40 812.60 L 611.60 811.90 L 603.80 811.60 L 596.00 811.80 L 588.30 812.60 L 586.70 812.80 L 585.70 813.50 L 582.60 818.40 Z M 296.40 898.40 L 295.70 900.60 L 295.60 902.60 L 295.90 904.60 L 297.70 908.40 L 299.10 910.10 L 302.40 912.80 L 310.90 917.10 L 312.30 918.20 L 313.20 919.60 L 313.50 921.70 L 313.20 923.20 L 311.80 924.40 L 310.40 925.10 L 309.00 925.40 L 306.60 925.20 L 304.10 924.60 L 299.50 922.80 L 297.60 924.90 L 296.10 927.30 L 294.90 929.90 L 301.20 932.40 L 304.70 933.10 L 310.40 933.30 L 314.70 932.20 L 316.60 931.20 L 318.40 929.80 L 321.10 926.40 L 322.30 923.00 L 322.30 920.40 L 321.60 917.70 L 320.50 915.20 L 318.80 913.00 L 316.80 911.10 L 306.60 905.50 L 305.00 903.30 L 304.60 901.90 L 305.40 900.30 L 306.40 899.20 L 307.50 898.60 L 309.50 898.10 L 311.80 898.10 L 320.90 899.40 L 320.50 895.20 L 319.10 893.00 L 315.30 891.30 L 312.60 890.70 L 309.80 890.50 L 307.00 890.80 L 304.40 891.40 L 301.90 892.50 L 299.70 894.00 L 297.90 896.00 L 296.40 898.40 Z M 328.10 897.70 L 338.20 899.00 L 338.30 923.50 L 338.80 931.70 L 341.10 932.70 L 346.20 932.70 L 346.40 899.40 L 355.80 898.50 L 355.50 894.10 L 355.20 892.80 L 354.10 891.80 L 345.80 891.40 L 330.50 891.60 L 329.10 892.40 L 328.40 893.50 L 328.10 894.90 L 328.10 897.70 Z M 464.60 892.10 L 462.20 895.00 L 456.70 904.90 L 447.20 891.50 L 445.10 891.30 L 443.40 891.80 L 441.90 892.80 L 440.50 894.40 L 444.70 902.00 L 451.20 911.80 L 452.20 914.50 L 452.80 920.40 L 452.60 932.40 L 457.90 932.80 L 459.40 932.60 L 461.00 931.40 L 461.50 930.10 L 461.70 927.20 L 461.50 918.30 L 462.00 912.50 L 462.90 909.90 L 466.80 903.60 L 470.20 897.10 L 471.90 891.50 L 466.30 891.60 L 464.60 892.10 Z M 502.30 897.40 L 513.50 898.80 L 514.30 929.40 L 514.60 930.70 L 515.30 931.40 L 516.20 931.80 L 522.20 932.30 L 522.40 898.90 L 534.10 897.60 L 533.90 893.50 L 531.10 892.30 L 525.50 891.20 L 506.50 891.10 L 504.80 891.80 L 504.00 892.90 L 502.30 897.40 Z M 540.40 894.90 L 540.00 912.20 L 540.10 931.00 L 540.70 931.80 L 541.60 932.20 L 547.90 932.60 L 548.60 925.00 L 548.70 917.40 L 548.70 902.20 L 548.40 895.30 L 547.20 892.10 L 544.40 891.70 L 541.60 892.40 L 540.60 893.80 L 540.40 894.90 Z M 645.40 890.90 L 646.20 906.80 L 647.50 915.50 L 650.00 922.10 L 652.60 919.40 L 652.20 923.30 L 649.20 922.90 L 649.50 923.00 L 648.00 925.00 L 647.10 927.20 L 646.20 932.10 L 650.90 932.70 L 653.20 932.60 L 655.50 932.00 L 655.30 925.40 L 654.40 925.00 L 654.90 907.80 L 655.80 890.60 L 645.40 890.90 Z M 372.90 892.60 L 370.20 894.30 L 367.90 896.40 L 365.90 898.80 L 364.30 901.40 L 363.10 904.30 L 362.30 907.30 L 361.70 913.60 L 362.60 919.90 L 363.60 922.80 L 365.00 925.50 L 366.70 927.70 L 368.50 929.60 L 370.70 931.00 L 375.60 932.80 L 378.30 933.20 L 381.00 933.20 L 386.10 932.10 L 388.50 931.00 L 390.70 929.50 L 392.60 927.60 L 394.50 925.10 L 395.90 922.30 L 396.90 919.40 L 397.90 913.10 L 397.80 910.00 L 396.60 903.80 L 395.50 900.90 L 394.00 898.30 L 392.10 896.00 L 389.80 894.10 L 387.20 892.60 L 384.50 891.60 L 381.60 891.00 L 378.60 890.90 L 375.70 891.50 L 372.90 892.60 Z M 406.60 923.70 L 406.90 930.00 L 407.70 932.00 L 414.20 932.00 L 414.80 928.60 L 415.00 918.10 L 418.90 918.70 L 425.20 928.80 L 427.70 931.50 L 429.20 932.40 L 430.80 933.00 L 432.70 933.00 L 435.00 932.60 L 434.40 929.60 L 433.40 926.70 L 428.10 915.80 L 430.10 914.20 L 431.70 912.20 L 433.00 910.00 L 434.00 907.60 L 434.50 905.20 L 434.60 902.70 L 434.30 900.20 L 433.40 897.90 L 432.10 895.60 L 430.30 894.00 L 426.60 892.00 L 423.50 891.30 L 420.20 891.00 L 407.00 891.50 L 406.60 899.60 L 406.60 923.70 Z M 564.10 895.60 L 560.80 913.70 L 560.00 919.80 L 559.50 932.10 L 567.10 932.20 L 569.70 908.40 L 573.90 922.30 L 577.00 928.90 L 578.50 929.80 L 580.00 930.00 L 581.60 929.70 L 583.00 928.90 L 584.10 927.80 L 586.40 922.20 L 590.00 909.40 L 592.40 924.30 L 594.00 931.70 L 596.80 932.60 L 599.80 932.40 L 601.00 931.80 L 602.10 930.00 L 599.50 913.00 L 596.60 898.40 L 595.50 894.90 L 594.60 893.30 L 593.40 892.10 L 591.30 891.40 L 589.80 891.60 L 586.70 894.70 L 584.40 899.60 L 581.80 909.40 L 580.70 912.50 L 579.20 915.20 L 575.10 900.30 L 573.60 896.80 L 571.70 893.50 L 569.70 892.00 L 568.70 891.70 L 567.10 891.80 L 565.00 893.30 L 564.10 895.60 Z M 611.10 893.50 L 611.00 919.20 L 611.50 932.20 L 623.90 932.80 L 636.40 932.20 L 636.30 925.40 L 620.00 925.40 L 620.40 915.20 L 630.90 915.20 L 631.80 909.60 L 628.10 908.40 L 620.10 907.90 L 619.90 899.40 L 634.60 899.20 L 635.50 898.00 L 635.90 896.60 L 635.90 895.20 L 635.50 893.90 L 634.70 892.80 L 633.30 892.20 L 627.70 891.70 L 618.40 891.90 L 611.10 893.50 Z" fill="#fbfbf9" fill-rule="nonzero" node-id="185" stroke="none" target-height="161.40002" target-width="400.1" target-x="275.9" target-y="790.6"></path><path d="M 485.20 821.20 L 488.00 820.50 L 490.80 820.30 L 493.50 820.70 L 496.20 821.50 L 498.60 822.80 L 500.80 824.40 L 502.70 826.40 L 504.20 828.70 L 505.30 831.40 L 506.50 835.90 L 507.10 840.70 L 507.10 844.00 L 506.10 850.20 L 505.10 853.20 L 503.50 855.90 L 501.50 858.40 L 498.40 860.80 L 493.90 862.30 L 491.00 862.60 L 485.30 861.80 L 482.30 860.20 L 479.70 858.10 L 477.60 855.60 L 475.90 852.80 L 474.60 849.80 L 473.70 846.50 L 473.30 843.20 L 473.30 839.80 L 473.70 836.40 L 474.50 833.10 L 475.80 830.10 L 477.50 827.30 L 479.60 824.80 L 482.20 822.80 L 485.20 821.20 Z" fill="#fbfbf9" fill-rule="nonzero" node-id="187" stroke="none" target-height="42.299988" target-width="33.80002" target-x="473.3" target-y="820.3"></path><path d="M 375.80 899.50 L 377.60 898.70 L 379.30 898.30 L 382.50 898.80 L 385.40 900.60 L 387.10 902.60 L 388.40 905.00 L 389.10 907.60 L 389.50 913.10 L 389.20 916.10 L 388.30 919.10 L 386.90 921.60 L 385.60 923.20 L 382.50 925.20 L 380.80 925.60 L 378.80 925.70 L 376.50 925.20 L 374.40 923.80 L 372.70 922.10 L 371.40 920.10 L 370.00 915.40 L 369.80 912.80 L 370.50 907.70 L 372.60 903.00 L 374.00 901.10 L 375.80 899.50 Z" fill="#fbfbf9" fill-rule="nonzero" node-id="189" stroke="none" target-height="27.400024" target-width="19.700012" target-x="369.8" target-y="898.3"></path><path d="M 416.20 900.70 L 418.40 899.70 L 420.70 899.20 L 423.10 899.30 L 424.40 899.80 L 425.30 900.50 L 426.00 901.60 L 426.40 903.40 L 426.20 905.50 L 425.50 907.40 L 424.30 908.90 L 419.90 909.20 L 417.30 908.50 L 416.10 907.50 L 415.60 905.20 L 415.60 902.90 L 416.20 900.70 Z" fill="#fbfbf9" fill-rule="nonzero" node-id="191" stroke="none" target-height="10" target-width="10.799988" target-x="415.6" target-y="899.2"></path><path d="M 514.60 129.80 L 514.70 128.10 L 515.20 126.70 L 516.00 125.60 L 517.70 124.30 L 519.90 123.30 L 524.40 122.50 L 532.00 277.80 L 532.00 282.90 L 531.50 288.00 L 526.70 287.70 L 525.40 261.40 L 523.50 235.00 L 514.60 129.80 Z" fill="#c57c44" fill-rule="nonzero" node-id="193" stroke="none" target-height="165.5" target-width="17.400024" target-x="514.6" target-y="122.5"></path><path d="M 663.00 132.30 L 669.70 130.60 L 676.40 129.50 L 683.20 128.90 L 690.10 128.60 L 709.60 128.90 L 715.40 129.60 L 721.10 130.80 L 721.40 137.90 L 708.20 136.70 L 695.00 136.30 L 681.80 136.40 L 686.80 135.60 L 696.80 135.10 L 704.30 135.50 L 713.70 136.60 L 715.70 136.40 L 717.50 135.80 L 718.90 134.70 L 719.90 132.50 L 719.80 131.00 L 707.20 129.10 L 700.90 128.70 L 688.20 128.90 L 672.40 130.70 L 663.00 132.30 Z" fill="#c57c44" fill-rule="nonzero" node-id="195" stroke="none" target-height="9.299988" target-width="58.400024" target-x="663" target-y="128.6"></path><path d="M 764.80 139.10 L 766.80 139.00 L 766.70 152.00 L 767.40 165.00 L 764.90 155.20 L 764.80 139.10 Z" fill="#c57c44" fill-rule="nonzero" node-id="197" stroke="none" target-height="26" target-width="2.6000366" target-x="764.8" target-y="139"></path><path d="M 648.60 164.10 L 656.20 161.30 L 664.00 159.10 L 672.00 157.40 L 680.00 156.30 L 688.10 155.70 L 696.20 155.60 L 704.40 156.10 L 712.40 157.20 L 720.30 158.90 L 711.30 157.60 L 702.20 156.80 L 693.20 156.60 L 684.10 157.00 L 675.10 157.90 L 666.20 159.40 L 657.40 161.40 L 648.60 164.10 Z" fill="#c57c44" fill-rule="nonzero" node-id="199" stroke="none" target-height="8.5" target-width="71.70001" target-x="648.6" target-y="155.6"></path><path d="M 614.80 291.30 L 616.80 299.70 L 611.90 298.50 L 615.00 297.60 L 614.80 291.30 Z" fill="#c57c44" fill-rule="nonzero" node-id="201" stroke="none" target-height="8.400024" target-width="4.8999634" target-x="611.9" target-y="291.3"></path><path d="M 578.30 318.60 L 590.90 321.20 L 593.90 322.20 L 596.70 323.60 L 599.90 326.30 L 601.30 328.00 L 585.90 328.10 L 578.30 318.60 Z" fill="#c57c44" fill-rule="nonzero" node-id="203" stroke="none" target-height="9.5" target-width="23" target-x="578.3" target-y="318.6"></path><path d="M 610.50 329.50 L 613.00 331.90 L 619.90 339.90 L 622.40 342.30 L 625.40 344.20 L 627.20 344.30 L 630.20 343.50 L 632.20 342.30 L 638.20 337.40 L 640.40 336.20 L 642.80 335.50 L 642.40 343.00 L 642.00 345.40 L 640.60 348.30 L 637.50 351.70 L 635.20 353.30 L 632.70 354.50 L 629.90 355.10 L 627.10 355.40 L 624.20 355.10 L 621.30 354.50 L 618.70 353.50 L 616.20 352.00 L 614.10 350.20 L 612.40 348.00 L 611.10 345.40 L 610.40 341.50 L 610.20 337.50 L 610.50 329.50 Z" fill="#c57c44" fill-rule="nonzero" node-id="205" stroke="none" target-height="25.899994" target-width="32.599976" target-x="610.2" target-y="329.5"></path><path d="M 587.90 334.20 L 595.90 334.80 L 598.30 335.50 L 601.10 337.30 L 602.30 338.80 L 596.90 338.90 L 594.40 338.50 L 590.50 336.70 L 587.90 334.20 Z" fill="#c57c44" fill-rule="nonzero" node-id="207" stroke="none" target-height="4.6999817" target-width="14.399963" target-x="587.9" target-y="334.2"></path><path d="M 654.00 335.70 L 669.00 333.80 L 676.60 333.20 L 684.20 333.20 L 689.20 333.60 L 694.10 334.50 L 699.00 335.70 L 689.50 335.40 L 680.00 335.60 L 670.60 336.40 L 661.20 337.60 L 651.80 339.40 L 654.00 335.70 Z" fill="#c57c44" fill-rule="nonzero" node-id="209" stroke="none" target-height="6.1999817" target-width="47.200012" target-x="651.8" target-y="333.2"></path><path d="M 700.80 336.30 L 712.30 336.20 L 718.00 336.70 L 743.90 340.40 L 752.50 341.30 L 758.20 341.60 L 764.00 341.40 L 771.80 340.60 L 771.90 344.40 L 764.40 346.30 L 761.90 346.60 L 759.30 346.50 L 741.10 343.00 L 716.90 339.30 L 700.80 336.30 Z" fill="#c57c44" fill-rule="nonzero" node-id="211" stroke="none" target-height="10.399994" target-width="71.10004" target-x="700.8" target-y="336.2"></path><path d="M 370.50 620.30 L 371.20 617.50 L 372.00 616.30 L 375.00 613.10 L 378.50 635.50 L 379.70 646.70 L 380.70 658.00 L 381.80 680.60 L 380.20 673.20 L 379.10 665.80 L 376.50 635.80 L 374.40 620.90 L 371.50 619.10 L 370.40 673.20 L 369.70 684.00 L 368.00 684.00 L 367.90 666.80 L 369.40 654.30 L 370.00 627.10 L 370.50 620.30 Z" fill="#c57c44" fill-rule="nonzero" node-id="213" stroke="none" target-height="70.900024" target-width="13.899994" target-x="367.9" target-y="613.1"></path><path d="M 468.20 650.70 L 472.50 649.70 L 472.70 650.60 L 470.40 655.20 L 469.20 661.30 L 468.40 706.10 L 467.80 708.30 L 465.80 712.30 L 466.00 681.50 L 466.40 671.20 L 468.20 650.70 Z" fill="#c57c44" fill-rule="nonzero" node-id="215" stroke="none" target-height="62.599976" target-width="6.9000244" target-x="465.8" target-y="649.7"></path><path d="M 645.40 890.90 L 655.80 890.60 L 654.90 907.80 L 654.40 925.00 L 649.20 922.90 L 652.20 923.30 L 653.70 911.30 L 654.30 903.20 L 654.50 895.00 L 652.20 892.90 L 650.70 892.30 L 649.20 892.20 L 648.40 892.50 L 647.70 893.20 L 647.10 894.30 L 646.70 898.90 L 646.70 903.60 L 648.00 912.90 L 650.00 922.10 L 648.50 918.80 L 647.50 915.50 L 646.80 912.10 L 646.20 906.80 L 645.40 890.90 Z" fill="#c57c44" fill-rule="nonzero" node-id="217" stroke="none" target-height="34.400024" target-width="10.399963" target-x="645.4" target-y="890.6"></path><path d="M 414.40 898.40 L 418.80 898.20 L 421.00 898.50 L 423.10 899.30 L 420.70 899.20 L 418.40 899.70 L 416.20 900.70 L 415.60 902.90 L 415.60 905.20 L 416.10 907.50 L 417.30 908.50 L 419.90 909.20 L 425.40 908.80 L 414.00 911.30 L 414.00 904.80 L 414.40 898.40 Z" fill="#c57c44" fill-rule="nonzero" node-id="219" stroke="none" target-height="13.099976" target-width="11.399994" target-x="414" target-y="898.2"></path></svg>