<svg width="1152" height="500" version="1.1" baseProfile="full" xmlns="http://www.w3.org/2000/svg" xmlns:xlink="http://www.w3.org/1999/xlink">
<g transform="translate(0,500) scale(1,-1)">
<polyline stroke="black" fill="none" points="403.38,126.36 403.27,127.43 403.27,127.43 403.15,128.49 403.15,128.49 403.04,129.56 403.04,129.56 402.92,130.62 402.92,130.62 402.81,131.69 402.81,131.69 402.69,132.76 402.69,132.76 402.58,133.83 402.58,133.83 402.46,134.91 402.46,134.91 402.34,135.98 402.34,135.98 402.23,137.06 402.23,137.06 402.11,138.14 402.11,138.14 401.99,139.21 401.99,139.21 401.88,140.29 401.88,140.29 401.76,141.38 401.76,141.38 401.64,142.46 401.64,142.46 401.52,143.54 401.52,143.54 401.41,144.63 401.41,144.63 401.29,145.72 401.29,145.72 401.17,146.81 401.17,146.81 401.05,147.9 401.05,147.9 400.93,148.99 400.93,148.99 400.82,150.08 400.82,150.08 400.7,151.18 400.7,151.18 400.58,152.27 400.58,152.27 400.46,153.37 400.46,153.37 400.34,154.47 400.34,154.47 400.22,155.57 400.22,155.57 400.1,156.68 400.1,156.68 399.98,157.78 399.98,157.78 399.86,158.88 399.86,158.88 399.74,159.99 399.74,159.99 399.62,161.1 399.62,161.1 399.5,162.21 399.5,162.21 399.38,163.32 399.38,163.32 399.26,164.43 399.26,164.43 399.14,165.55 399.14,165.55 399.02,166.66 399.02,166.66 398.9,167.78 398.9,167.78 398.78,168.9 398.78,168.9 398.66,170.02 398.66,170.02 398.53,171.14 398.53,171.14 398.41,172.27 398.41,172.27 398.29,173.39 398.29,173.39 398.17,174.52 398.17,174.52 398.05,175.65 398.05,175.65 397.92,176.78 397.92,176.78 397.8,177.91 397.8,177.91 397.68,179.04 397.68,179.04 397.56,180.18 397.56,180.18 397.43,181.31 397.43,181.31 397.31,182.45 397.31,182.45 397.19,183.59 397.19,183.59 397.06,184.73 397.06,184.73 396.94,185.87 396.94,185.87 396.81,187.02 396.81,187.02 396.69,188.16 396.69,188.16 396.57,189.31 396.57,189.31 396.44,190.46 396.44,190.46 396.32,191.61 396.32,191.61 396.19,192.76 396.19,192.76 396.07,193.91 396.07,193.91 395.94,195.07 395.94,195.07 395.82,196.23 395.82,196.23 395.69,197.38 395.69,197.38 395.57,198.54 395.57,198.54 395.44,199.71 395.44,199.71 395.31,200.87 395.31,200.87 395.19,202.03 395.19,202.03 395.06,203.2 395.06,203.2 394.93,204.37 394.93,204.37 394.81,205.54 394.81,205.54 394.68,206.71 394.68,206.71 394.55,207.88 394.55,207.88 394.43,209.06 394.43,209.06 394.3,210.23 394.3,210.23 394.17,211.41 394.17,211.41 394.04,212.59 394.04,212.59 393.92,213.77 393.92,213.77 393.79,214.96 393.79,214.96 393.66,216.14 393.66,216.14 393.53,217.33 393.53,217.33 393.4,218.51 393.4,218.51 393.27,219.7 393.27,219.7 393.14,220.9 393.14,220.9 393.02,222.09 393.02,222.09 392.89,223.28 392.89,223.28 392.76,224.48 392.76,224.48 392.63,225.68 392.63,225.68 392.5,226.88 392.5,226.88 392.37,228.08 392.37,228.08 392.24,229.28 392.24,229.28 392.11,230.49 392.11,230.49 391.97,231.69 391.97,231.69 391.84,232.9 391.84,232.9 391.71,234.11 391.71,234.11 391.58,235.32 391.58,235.32 391.45,236.54 391.45,236.54 391.32,237.75 391.32,237.75 391.19,238.97 391.19,238.97 391.05,240.19 391.05,240.19 390.92,241.41 390.92,241.41 390.79,242.63 390.79,242.63 390.66,243.85 390.66,243.85 390.52,245.08 390.52,245.08 390.39,246.31 390.39,246.31 390.26,247.54 390.26,247.54 390.13,248.77 390.13,248.77 389.99,250 389.99,250 389.86,251.23 389.86,251.23 389.72,252.47 389.72,252.47 389.59,253.71 389.59,253.71 389.46,254.95 389.46,254.95 389.32,256.19 389.32,256.19 389.19,257.43 389.19,257.43 389.05,258.68 389.05,258.68 388.92,259.93 388.92,259.93 388.78,261.17 388.78,261.17 388.65,262.43 388.65,262.43 388.51,263.68 388.51,263.68 388.37,264.93 388.37,264.93 388.24,266.19 388.24,266.19 388.1,267.45 388.1,267.45 387.97,268.71 387.97,268.71 387.83,269.97 387.83,269.97 387.69,271.23 387.69,271.23 387.56,272.5 387.56,272.5 387.42,273.76 387.42,273.76 387.28,275.03 387.28,275.03 387.14,276.3 387.14,276.3 387,277.58 387,277.58 386.87,278.85 386.87,278.85 386.73,280.13 386.73,280.13 386.59,281.4 386.59,281.4 386.45,282.68 386.45,282.68 386.31,283.97 386.31,283.97 386.17,285.25 386.17,285.25 386.03,286.54 386.03,286.54 385.89,287.82 385.89,287.82 385.76,289.11 385.76,289.11 385.62,290.4 385.62,290.4 385.48,291.7 385.48,291.7 385.33,292.99 385.33,292.99 385.19,294.29 385.19,294.29 385.05,295.59 385.05,295.59 384.91,296.89 384.91,296.89 384.77,298.19 384.77,298.19 384.63,299.5 384.63,299.5 384.49,300.8 384.49,300.8 384.35,302.11 384.35,302.11 384.2,303.42 384.2,303.42 384.06,304.74 384.06,304.74 383.92,306.05 383.92,306.05 383.78,307.37 383.78,307.37 383.63,308.68 383.63,308.68 383.49,310.01 383.49,310.01 383.35,311.33 383.35,311.33 383.21,312.65 383.21,312.65 383.06,313.98 383.06,313.98 382.92,315.31 382.92,315.31 382.77,316.64 382.77,316.64 382.63,317.97 382.63,317.97 382.48,319.3 382.48,319.3 382.34,320.64 382.34,320.64 382.2,321.98 382.2,321.98 382.05,323.32 382.05,323.32 381.9,324.66 381.9,324.66 381.76,326 381.76,326 381.61,327.35 381.61,327.35 381.47,328.7 381.47,328.7 381.32,330.05 381.32,330.05 381.17,331.4 381.17,331.4 381.03,332.76 381.03,332.76 380.88,334.11 380.88,334.11 380.73,335.47 380.73,335.47 380.59,336.83 380.59,336.83 380.44,338.19 380.44,338.19 380.29,339.56 380.29,339.56 380.14,340.92 380.14,340.92 379.99,342.29 379.99,342.29 379.85,343.66 379.85,343.66 379.7,345.04 379.7,345.04 379.55,346.41 379.55,346.41 379.4,347.79 379.4,347.79 379.25,349.17 379.25,349.17 379.1,350.55 379.1,350.55 378.95,351.93 378.95,351.93 378.8,353.32 378.8,353.32 378.65,354.71 378.65,354.71 378.5,356.1 378.5,356.1 378.35,357.49 378.35,357.49 378.2,358.88 378.2,358.88 378.05,360.28 378.05,360.28 377.89,361.68 377.89,361.68 377.74,363.08 377.74,363.08 377.59,364.48 377.59,364.48 377.44,365.88 377.44,365.88 377.29,367.29 377.29,367.29 377.13,368.7 377.13,368.7 376.98,370.11 376.98,370.11 376.83,371.52"/>
<polyline stroke="black" fill="none" points="403.38,126.36 404.2,125.96 404.2,125.96 405.02,125.57 405.02,125.57 405.83,125.16 405.83,125.16 406.65,124.76 406.65,124.76 407.47,124.36 407.47,124.36 408.3,123.96 408.3,123.96 409.12,123.56 409.12,123.56 409.95,123.15 409.95,123.15 410.77,122.75 410.77,122.75 411.6,122.34 411.6,122.34 412.44,121.93 412.44,121.93 413.27,121.52 413.27,121.52 414.1,121.12 414.1,121.12 414.94,120.71 414.94,120.71 415.78,120.3 415.78,120.3 416.62,119.89 416.62,119.89 417.46,119.47 417.46,119.47 418.3,119.06 418.3,119.06 419.15,118.65 419.15,118.65 419.99,118.23 419.99,118.23 420.84,117.82 420.84,117.82 421.69,117.4 421.69,117.4 422.54,116.98 422.54,116.98 423.39,116.57 423.39,116.57 424.25,116.15 424.25,116.15 425.11,115.73 425.11,115.73 425.97,115.31 425.97,115.31 426.83,114.89 426.83,114.89 427.69,114.47 427.69,114.47 428.55,114.04 428.55,114.04 429.42,113.62 429.42,113.62 430.29,113.19 430.29,113.19 431.15,112.77 431.15,112.77 432.03,112.34 432.03,112.34 432.9,111.91 432.9,111.91 433.77,111.49 433.77,111.49 434.65,111.06 434.65,111.06 435.53,110.63 435.53,110.63 436.41,110.2 436.41,110.2 437.29,109.76 437.29,109.76 438.17,109.33 438.17,109.33 439.06,108.9 439.06,108.9 439.95,108.46 439.95,108.46 440.84,108.03 440.84,108.03 441.73,107.59 441.73,107.59 442.62,107.15 442.62,107.15 443.52,106.72 443.52,106.72 444.41,106.28 444.41,106.28 445.31,105.84 445.31,105.84 446.21,105.4 446.21,105.4 447.12,104.95 447.12,104.95 448.02,104.51 448.02,104.51 448.93,104.07 448.93,104.07 449.84,103.62 449.84,103.62 450.75,103.18 450.75,103.18 451.66,102.73 451.66,102.73 452.57,102.28 452.57,102.28 453.49,101.83 453.49,101.83 454.41,101.39 454.41,101.39 455.33,100.93 455.33,100.93 456.25,100.48 456.25,100.48 457.17,100.03 457.17,100.03 458.1,99.58 458.1,99.58 459.03,99.12 459.03,99.12 459.96,98.67 459.96,98.67 460.89,98.21 460.89,98.21 461.82,97.76 461.82,97.76 462.76,97.3 462.76,97.3 463.7,96.84 463.7,96.84 464.64,96.38 464.64,96.38 465.58,95.92 465.58,95.92 466.52,95.45 466.52,95.45 467.47,94.99 467.47,94.99 468.41,94.53 468.41,94.53 469.36,94.06 469.36,94.06 470.32,93.6 470.32,93.6 471.27,93.13 471.27,93.13 472.23,92.66 472.23,92.66 473.19,92.19 473.19,92.19 474.15,91.72 474.15,91.72 475.11,91.25 475.11,91.25 476.07,90.78 476.07,90.78 477.04,90.3 477.04,90.3 478.01,89.83 478.01,89.83 478.98,89.36 478.98,89.36 479.95,88.88 479.95,88.88 480.93,88.4 480.93,88.4 481.91,87.92 481.91,87.92 482.88,87.44 482.88,87.44 483.87,86.96 483.87,86.96 484.85,86.48 484.85,86.48 485.84,86 485.84,86 486.82,85.51 486.82,85.51 487.81,85.03 487.81,85.03 488.81,84.54 488.81,84.54 489.8,84.06 489.8,84.06 490.8,83.57 490.8,83.57 491.8,83.08 491.8,83.08 492.8,82.59 492.8,82.59 493.8,82.1 493.8,82.1 494.81,81.61 494.81,81.61 495.82,81.11 495.82,81.11 496.83,80.62 496.83,80.62 497.84,80.12 497.84,80.12 498.85,79.63 498.85,79.63 499.87,79.13 499.87,79.13 500.89,78.63 500.89,78.63 501.91,78.13 501.91,78.13 502.94,77.63 502.94,77.63 503.96,77.13 503.96,77.13 504.99,76.62 504.99,76.62 506.02,76.12 506.02,76.12 507.05,75.61 507.05,75.61 508.09,75.1 508.09,75.1 509.13,74.6 509.13,74.6 510.17,74.09 510.17,74.09 511.21,73.58 511.21,73.58 512.25,73.06 512.25,73.06 513.3,72.55 513.3,72.55 514.35,72.04 514.35,72.04 515.4,71.52 515.4,71.52 516.46,71.01 516.46,71.01 517.51,70.49 517.51,70.49 518.57,69.97 518.57,69.97 519.64,69.45 519.64,69.45 520.7,68.93 520.7,68.93 521.77,68.41 521.77,68.41 522.84,67.89 522.84,67.89 523.91,67.36 523.91,67.36 524.98,66.83 524.98,66.83 526.06,66.31 526.06,66.31 527.14,65.78 527.14,65.78 528.22,65.25 528.22,65.25 529.3,64.72 529.3,64.72 530.39,64.19 530.39,64.19 531.48,63.65 531.48,63.65 532.57,63.12 532.57,63.12 533.66,62.59 533.66,62.59 534.76,62.05 534.76,62.05 535.86,61.51 535.86,61.51 536.96,60.97 536.96,60.97 538.06,60.43 538.06,60.43 539.17,59.89 539.17,59.89 540.28,59.35 540.28,59.35 541.39,58.8 541.39,58.8 542.5,58.26 542.5,58.26 543.62,57.71 543.62,57.71 544.74,57.16 544.74,57.16 545.86,56.61 545.86,56.61 546.99,56.06 546.99,56.06 548.12,55.51 548.12,55.51 549.25,54.96 549.25,54.96 550.38,54.4 550.38,54.4 551.52,53.84 551.52,53.84 552.65,53.29 552.65,53.29 553.79,52.73 553.79,52.73 554.94,52.17 554.94,52.17 556.09,51.61 556.09,51.61 557.23,51.04 557.23,51.04 558.39,50.48 558.39,50.48 559.54,49.92 559.54,49.92 560.7,49.35 560.7,49.35 561.86,48.78 561.86,48.78 563.02,48.21 563.02,48.21 564.19,47.64 564.19,47.64 565.36,47.07 565.36,47.07 566.53,46.5 566.53,46.5 567.7,45.92 567.7,45.92 568.88,45.34 568.88,45.34 570.06,44.77 570.06,44.77 571.24,44.19 571.24,44.19 572.43,43.61 572.43,43.61 573.61,43.03 573.61,43.03 574.81,42.44 574.81,42.44 576,41.86 576,41.86 577.2,41.27 577.2,41.27 578.4,40.68 578.4,40.68 579.6,40.1 579.6,40.1 580.81,39.51 580.81,39.51 582.01,38.91 582.01,38.91 583.23,38.32 583.23,38.32 584.44,37.73 584.44,37.73 585.66,37.13 585.66,37.13 586.88,36.53 586.88,36.53 588.1,35.93 588.1,35.93 589.33,35.33 589.33,35.33 590.56,34.73 590.56,34.73 591.79,34.13 591.79,34.13 593.03,33.52 593.03,33.52 594.27,32.92 594.27,32.92 595.51,32.31 595.51,32.31 596.75,31.7 596.75,31.7 598,31.09 598,31.09 599.25,30.47 599.25,30.47 600.51,29.86 600.51,29.86 601.76,29.24 601.76,29.24 603.02,28.63 603.02,28.63 604.29,28.01 604.29,28.01 605.55,27.39 605.55,27.39 606.82,26.77"/>
<polyline stroke="black" fill="none" points="554.24,407.58 553.56,407.44 553.56,407.44 552.88,407.3 552.88,407.3 552.2,407.16 552.2,407.16 551.52,407.02 551.52,407.02 550.83,406.88 550.83,406.88 550.14,406.74 550.14,406.74 549.45,406.6 549.45,406.6 548.76,406.46 548.76,406.46 548.07,406.32 548.07,406.32 547.38,406.18 547.38,406.18 546.68,406.04 546.68,406.04 545.99,405.9 545.99,405.9 545.29,405.76 545.29,405.76 544.59,405.61 544.59,405.61 543.88,405.47 543.88,405.47 543.18,405.33 543.18,405.33 542.47,405.18 542.47,405.18 541.77,405.04 541.77,405.04 541.06,404.9 541.06,404.9 540.35,404.75 540.35,404.75 539.64,404.61 539.64,404.61 538.92,404.46 538.92,404.46 538.21,404.32 538.21,404.32 537.49,404.17 537.49,404.17 536.77,404.03 536.77,404.03 536.05,403.88 536.05,403.88 535.33,403.73 535.33,403.73 534.6,403.58 534.6,403.58 533.87,403.44 533.87,403.44 533.15,403.29 533.15,403.29 532.42,403.14 532.42,403.14 531.69,402.99 531.69,402.99 530.95,402.84 530.95,402.84 530.22,402.69 530.22,402.69 529.48,402.54 529.48,402.54 528.74,402.39 528.74,402.39 528,402.24 528,402.24 527.26,402.09 527.26,402.09 526.51,401.94 526.51,401.94 525.77,401.79 525.77,401.79 525.02,401.64 525.02,401.64 524.27,401.49 524.27,401.49 523.52,401.33 523.52,401.33 522.77,401.18 522.77,401.18 522.01,401.03 522.01,401.03 521.25,400.87 521.25,400.87 520.49,400.72 520.49,400.72 519.73,400.56 519.73,400.56 518.97,400.41 518.97,400.41 518.2,400.25 518.2,400.25 517.44,400.1 517.44,400.1 516.67,399.94 516.67,399.94 515.9,399.78 515.9,399.78 515.13,399.63 515.13,399.63 514.35,399.47 514.35,399.47 513.58,399.31 513.58,399.31 512.8,399.15 512.8,399.15 512.02,399 512.02,399 511.23,398.84 511.23,398.84 510.45,398.68 510.45,398.68 509.66,398.52 509.66,398.52 508.88,398.36 508.88,398.36 508.08,398.2 508.08,398.2 507.29,398.04 507.29,398.04 506.5,397.87 506.5,397.87 505.7,397.71 505.7,397.71 504.9,397.55 504.9,397.55 504.1,397.39 504.1,397.39 503.3,397.22 503.3,397.22 502.5,397.06 502.5,397.06 501.69,396.9 501.69,396.9 500.88,396.73 500.88,396.73 500.07,396.57 500.07,396.57 499.26,396.4 499.26,396.4 498.44,396.24 498.44,396.24 497.63,396.07 497.63,396.07 496.81,395.9 496.81,395.9 495.98,395.74 495.98,395.74 495.16,395.57 495.16,395.57 494.34,395.4 494.34,395.4 493.51,395.23 493.51,395.23 492.68,395.07 492.68,395.07 491.85,394.9 491.85,394.9 491.01,394.73 491.01,394.73 490.18,394.56 490.18,394.56 489.34,394.39 489.34,394.39 488.5,394.22 488.5,394.22 487.65,394.04 487.65,394.04 486.81,393.87 486.81,393.87 485.96,393.7 485.96,393.7 485.11,393.53 485.11,393.53 484.26,393.35 484.26,393.35 483.41,393.18 483.41,393.18 482.55,393.01 482.55,393.01 481.69,392.83 481.69,392.83 480.83,392.66 480.83,392.66 479.97,392.48 479.97,392.48 479.1,392.31 479.1,392.31 478.23,392.13 478.23,392.13 477.36,391.95 477.36,391.95 476.49,391.78 476.49,391.78 475.62,391.6 475.62,391.6 474.74,391.42 474.74,391.42 473.86,391.24 473.86,391.24 472.98,391.06 472.98,391.06 472.09,390.88 472.09,390.88 471.21,390.7 471.21,390.7 470.32,390.52 470.32,390.52 469.43,390.34 469.43,390.34 468.53,390.16 468.53,390.16 467.64,389.98 467.64,389.98 466.74,389.79 466.74,389.79 465.84,389.61 465.84,389.61 464.93,389.43 464.93,389.43 464.03,389.24 464.03,389.24 463.12,389.06 463.12,389.06 462.21,388.87 462.21,388.87 461.29,388.69 461.29,388.69 460.38,388.5 460.38,388.5 459.46,388.31 459.46,388.31 458.54,388.13 458.54,388.13 457.61,387.94 457.61,387.94 456.69,387.75 456.69,387.75 455.76,387.56 455.76,387.56 454.83,387.37 454.83,387.37 453.9,387.18 453.9,387.18 452.96,386.99 452.96,386.99 452.02,386.8 452.02,386.8 451.08,386.61 451.08,386.61 450.13,386.42 450.13,386.42 449.19,386.23 449.19,386.23 448.24,386.03 448.24,386.03 447.29,385.84 447.29,385.84 446.33,385.65 446.33,385.65 445.37,385.45 445.37,385.45 444.41,385.26 444.41,385.26 443.45,385.06 443.45,385.06 442.49,384.87 442.49,384.87 441.52,384.67 441.52,384.67 440.55,384.47 440.55,384.47 439.57,384.27 439.57,384.27 438.6,384.08 438.6,384.08 437.62,383.88 437.62,383.88 436.64,383.68 436.64,383.68 435.65,383.48 435.65,383.48 434.66,383.28 434.66,383.28 433.67,383.07 433.67,383.07 432.68,382.87 432.68,382.87 431.68,382.67 431.68,382.67 430.69,382.47 430.69,382.47 429.68,382.26 429.68,382.26 428.68,382.06 428.68,382.06 427.67,381.86 427.67,381.86 426.66,381.65 426.66,381.65 425.65,381.44 425.65,381.44 424.63,381.24 424.63,381.24 423.61,381.03 423.61,381.03 422.59,380.82 422.59,380.82 421.57,380.61 421.57,380.61 420.54,380.41 420.54,380.41 419.51,380.2 419.51,380.2 418.47,379.99 418.47,379.99 417.44,379.78 417.44,379.78 416.4,379.56 416.4,379.56 415.35,379.35 415.35,379.35 414.31,379.14 414.31,379.14 413.26,378.93 413.26,378.93 412.21,378.71 412.21,378.71 411.15,378.5 411.15,378.5 410.09,378.28 410.09,378.28 409.03,378.07 409.03,378.07 407.97,377.85 407.97,377.85 406.9,377.63 406.9,377.63 405.83,377.42 405.83,377.42 404.75,377.2 404.75,377.2 403.68,376.98 403.68,376.98 402.6,376.76 402.6,376.76 401.51,376.54 401.51,376.54 400.43,376.32 400.43,376.32 399.34,376.1 399.34,376.1 398.24,375.87 398.24,375.87 397.15,375.65 397.15,375.65 396.05,375.43 396.05,375.43 394.94,375.2 394.94,375.2 393.84,374.98 393.84,374.98 392.73,374.75 392.73,374.75 391.61,374.53 391.61,374.53 390.5,374.3 390.5,374.3 389.38,374.07 389.38,374.07 388.25,373.84 388.25,373.84 387.13,373.62 387.13,373.62 386,373.39 386,373.39 384.86,373.16 384.86,373.16 383.72,372.92 383.72,372.92 382.58,372.69 382.58,372.69 381.44,372.46 381.44,372.46 380.29,372.23 380.29,372.23 379.14,371.99 379.14,371.99 377.99,371.76 377.99,371.76 376.83,371.52"/>
<polyline stroke="black" fill="none" points="554.24,407.58 555.09,407.47 555.09,407.47 555.95,407.37 555.95,407.37 556.8,407.26 556.8,407.26 557.66,407.16 557.66,407.16 558.52,407.06 558.52,407.06 559.38,406.95 559.38,406.95 560.24,406.85 560.24,406.85 561.1,406.74 561.1,406.74 561.96,406.64 561.96,406.64 562.83,406.53 562.83,406.53 563.7,406.43 563.7,406.43 564.56,406.32 564.56,406.32 565.43,406.22 565.43,406.22 566.31,406.11 566.31,406.11 567.18,406 567.18,406 568.05,405.9 568.05,405.9 568.93,405.79 568.93,405.79 569.81,405.68 569.81,405.68 570.69,405.58 570.69,405.58 571.57,405.47 571.57,405.47 572.45,405.36 572.45,405.36 573.34,405.26 573.34,405.26 574.22,405.15 574.22,405.15 575.11,405.04 575.11,405.04 576,404.93 576,404.93 576.89,404.82 576.89,404.82 577.78,404.72 577.78,404.72 578.68,404.61 578.68,404.61 579.57,404.5 579.57,404.5 580.47,404.39 580.47,404.39 581.37,404.28 581.37,404.28 582.27,404.17 582.27,404.17 583.17,404.06 583.17,404.06 584.08,403.95 584.08,403.95 584.98,403.84 584.98,403.84 585.89,403.73 585.89,403.73 586.8,403.62 586.8,403.62 587.71,403.51 587.71,403.51 588.62,403.4 588.62,403.4 589.53,403.29 589.53,403.29 590.45,403.18 590.45,403.18 591.37,403.07 591.37,403.07 592.28,402.95 592.28,402.95 593.2,402.84 593.2,402.84 594.13,402.73 594.13,402.73 595.05,402.62 595.05,402.62 595.98,402.51 595.98,402.51 596.9,402.39 596.9,402.39 597.83,402.28 597.83,402.28 598.76,402.17 598.76,402.17 599.69,402.05 599.69,402.05 600.63,401.94 600.63,401.94 601.56,401.83 601.56,401.83 602.5,401.71 602.5,401.71 603.44,401.6 603.44,401.6 604.38,401.49 604.38,401.49 605.33,401.37 605.33,401.37 606.27,401.26 606.27,401.26 607.22,401.14 607.22,401.14 608.16,401.03 608.16,401.03 609.11,400.91 609.11,400.91 610.07,400.79 610.07,400.79 611.02,400.68 611.02,400.68 611.97,400.56 611.97,400.56 612.93,400.45 612.93,400.45 613.89,400.33 613.89,400.33 614.85,400.21 614.85,400.21 615.81,400.1 615.81,400.1 616.78,399.98 616.78,399.98 617.74,399.86 617.74,399.86 618.71,399.74 618.71,399.74 619.68,399.63 619.68,399.63 620.65,399.51 620.65,399.51 621.63,399.39 621.63,399.39 622.6,399.27 622.6,399.27 623.58,399.15 623.58,399.15 624.56,399.03 624.56,399.03 625.54,398.92 625.54,398.92 626.52,398.8 626.52,398.8 627.5,398.68 627.5,398.68 628.49,398.56 628.49,398.56 629.48,398.44 629.48,398.44 630.47,398.32 630.47,398.32 631.46,398.2 631.46,398.2 632.45,398.08 632.45,398.08 633.45,397.95 633.45,397.95 634.45,397.83 634.45,397.83 635.45,397.71 635.45,397.71 636.45,397.59 636.45,397.59 637.45,397.47 637.45,397.47 638.46,397.35 638.46,397.35 639.46,397.22 639.46,397.22 640.47,397.1 640.47,397.1 641.48,396.98 641.48,396.98 642.5,396.86 642.5,396.86 643.51,396.73 643.51,396.73 644.53,396.61 644.53,396.61 645.55,396.48 645.55,396.48 646.57,396.36 646.57,396.36 647.59,396.24 647.59,396.24 648.62,396.11 648.62,396.11 649.64,395.99 649.64,395.99 650.67,395.86 650.67,395.86 651.7,395.74 651.7,395.74 652.74,395.61 652.74,395.61 653.77,395.49 653.77,395.49 654.81,395.36 654.81,395.36 655.85,395.23 655.85,395.23 656.89,395.11 656.89,395.11 657.93,394.98 657.93,394.98 658.98,394.85 658.98,394.85 660.02,394.73 660.02,394.73 661.07,394.6 661.07,394.6 662.12,394.47 662.12,394.47 663.18,394.34 663.18,394.34 664.23,394.22 664.23,394.22 665.29,394.09 665.29,394.09 666.35,393.96 666.35,393.96 667.41,393.83 667.41,393.83 668.47,393.7 668.47,393.7 669.54,393.57 669.54,393.57 670.61,393.44 670.61,393.44 671.68,393.31 671.68,393.31 672.75,393.18 672.75,393.18 673.82,393.05 673.82,393.05 674.9,392.92 674.9,392.92 675.98,392.79 675.98,392.79 677.06,392.66 677.06,392.66 678.14,392.53 678.14,392.53 679.23,392.39 679.23,392.39 680.31,392.26 680.31,392.26 681.4,392.13 681.4,392.13 682.49,392 682.49,392 683.59,391.86 683.59,391.86 684.68,391.73 684.68,391.73 685.78,391.6 685.78,391.6 686.88,391.46 686.88,391.46 687.98,391.33 687.98,391.33 689.09,391.2 689.09,391.2 690.19,391.06 690.19,391.06 691.3,390.93 691.3,390.93 692.41,390.79 692.41,390.79 693.53,390.66 693.53,390.66 694.64,390.52 694.64,390.52 695.76,390.39 695.76,390.39 696.88,390.25 696.88,390.25 698.01,390.11 698.01,390.11 699.13,389.98 699.13,389.98 700.26,389.84 700.26,389.84 701.39,389.7 701.39,389.7 702.52,389.56 702.52,389.56 703.65,389.43 703.65,389.43 704.79,389.29 704.79,389.29 705.93,389.15 705.93,389.15 707.07,389.01 707.07,389.01 708.21,388.87 708.21,388.87 709.36,388.73 709.36,388.73 710.51,388.59 710.51,388.59 711.66,388.45 711.66,388.45 712.81,388.31 712.81,388.31 713.96,388.17 713.96,388.17 715.12,388.03 715.12,388.03 716.28,387.89 716.28,387.89 717.44,387.75 717.44,387.75 718.61,387.61 718.61,387.61 719.78,387.47 719.78,387.47 720.95,387.33 720.95,387.33 722.12,387.18 722.12,387.18 723.29,387.04 723.29,387.04 724.47,386.9 724.47,386.9 725.65,386.76 725.65,386.76 726.83,386.61 726.83,386.61 728.01,386.47 728.01,386.47 729.2,386.32 729.2,386.32 730.39,386.18 730.39,386.18 731.58,386.03 731.58,386.03 732.77,385.89 732.77,385.89 733.97,385.74 733.97,385.74 735.17,385.6 735.17,385.6 736.37,385.45 736.37,385.45 737.58,385.31 737.58,385.31 738.78,385.16 738.78,385.16 739.99,385.01 739.99,385.01 741.2,384.87 741.2,384.87 742.42,384.72 742.42,384.72 743.64,384.57 743.64,384.57 744.85,384.42 744.85,384.42 746.08,384.27 746.08,384.27 747.3,384.13 747.3,384.13 748.53,383.98 748.53,383.98 749.76,383.83 749.76,383.83 750.99,383.68 750.99,383.68 752.23,383.53 752.23,383.53 753.46,383.38 753.46,383.38 754.7,383.23 754.7,383.23 755.95,383.07 755.95,383.07 757.19,382.92 757.19,382.92 758.44,382.77 758.44,382.77 759.69,382.62 759.69,382.62 760.95,382.47"/>
<polyline stroke="black" fill="none" points="376.83,371.52 377.74,371.35 377.74,371.35 378.65,371.17 378.65,371.17 379.56,370.99 379.56,370.99 380.48,370.81 380.48,370.81 381.4,370.63 381.4,370.63 382.32,370.45 382.32,370.45 383.24,370.28 383.24,370.28 384.16,370.1 384.16,370.1 385.09,369.92 385.09,369.92 386.02,369.73 386.02,369.73 386.95,369.55 386.95,369.55 387.88,369.37 387.88,369.37 388.82,369.19 388.82,369.19 389.75,369.01 389.75,369.01 390.69,368.82 390.69,368.82 391.63,368.64 391.63,368.64 392.58,368.46 392.58,368.46 393.52,368.27 393.52,368.27 394.47,368.09 394.47,368.09 395.42,367.9 395.42,367.9 396.38,367.72 396.38,367.72 397.33,367.53 397.33,367.53 398.29,367.35 398.29,367.35 399.25,367.16 399.25,367.16 400.21,366.97 400.21,366.97 401.17,366.78 401.17,366.78 402.14,366.6 402.14,366.6 403.11,366.41 403.11,366.41 404.08,366.22 404.08,366.22 405.05,366.03 405.05,366.03 406.03,365.84 406.03,365.84 407.01,365.65 407.01,365.65 407.99,365.46 407.99,365.46 408.97,365.27 408.97,365.27 409.96,365.07 409.96,365.07 410.94,364.88 410.94,364.88 411.93,364.69 411.93,364.69 412.93,364.5 412.93,364.5 413.92,364.3 413.92,364.3 414.92,364.11 414.92,364.11 415.92,363.91 415.92,363.91 416.92,363.72 416.92,363.72 417.92,363.52 417.92,363.52 418.93,363.33 418.93,363.33 419.94,363.13 419.94,363.13 420.95,362.93 420.95,362.93 421.97,362.74 421.97,362.74 422.98,362.54 422.98,362.54 424,362.34 424,362.34 425.02,362.14 425.02,362.14 426.05,361.94 426.05,361.94 427.08,361.74 427.08,361.74 428.1,361.54 428.1,361.54 429.14,361.34 429.14,361.34 430.17,361.14 430.17,361.14 431.21,360.94 431.21,360.94 432.25,360.74 432.25,360.74 433.29,360.53 433.29,360.53 434.33,360.33 434.33,360.33 435.38,360.13 435.38,360.13 436.43,359.92 436.43,359.92 437.48,359.72 437.48,359.72 438.54,359.51 438.54,359.51 439.6,359.31 439.6,359.31 440.66,359.1 440.66,359.1 441.72,358.89 441.72,358.89 442.78,358.69 442.78,358.69 443.85,358.48 443.85,358.48 444.92,358.27 444.92,358.27 446,358.06 446,358.06 447.07,357.85 447.07,357.85 448.15,357.64 448.15,357.64 449.23,357.43 449.23,357.43 450.32,357.22 450.32,357.22 451.41,357.01 451.41,357.01 452.5,356.79 452.5,356.79 453.59,356.58 453.59,356.58 454.68,356.37 454.68,356.37 455.78,356.16 455.78,356.16 456.88,355.94 456.88,355.94 457.99,355.73 457.99,355.73 459.09,355.51 459.09,355.51 460.2,355.29 460.2,355.29 461.32,355.08 461.32,355.08 462.43,354.86 462.43,354.86 463.55,354.64 463.55,354.64 464.67,354.43 464.67,354.43 465.79,354.21 465.79,354.21 466.92,353.99 466.92,353.99 468.05,353.77 468.05,353.77 469.18,353.55 469.18,353.55 470.32,353.33 470.32,353.33 471.46,353.1 471.46,353.1 472.6,352.88 472.6,352.88 473.74,352.66 473.74,352.66 474.89,352.44 474.89,352.44 476.04,352.21 476.04,352.21 477.19,351.99 477.19,351.99 478.35,351.76 478.35,351.76 479.51,351.54 479.51,351.54 480.67,351.31 480.67,351.31 481.83,351.08 481.83,351.08 483,350.86 483,350.86 484.17,350.63 484.17,350.63 485.35,350.4 485.35,350.4 486.53,350.17 486.53,350.17 487.71,349.94 487.71,349.94 488.89,349.71 488.89,349.71 490.08,349.48 490.08,349.48 491.27,349.25 491.27,349.25 492.46,349.02 492.46,349.02 493.66,348.78 493.66,348.78 494.86,348.55 494.86,348.55 496.06,348.32 496.06,348.32 497.27,348.08 497.27,348.08 498.47,347.85 498.47,347.85 499.69,347.61 499.69,347.61 500.9,347.37 500.9,347.37 502.12,347.14 502.12,347.14 503.34,346.9 503.34,346.9 504.57,346.66 504.57,346.66 505.8,346.42 505.8,346.42 507.03,346.18 507.03,346.18 508.26,345.94 508.26,345.94 509.5,345.7 509.5,345.7 510.74,345.46 510.74,345.46 511.99,345.21 511.99,345.21 513.24,344.97 513.24,344.97 514.49,344.73 514.49,344.73 515.75,344.48 515.75,344.48 517.01,344.24 517.01,344.24 518.27,343.99 518.27,343.99 519.53,343.75 519.53,343.75 520.8,343.5 520.8,343.5 522.08,343.25 522.08,343.25 523.35,343 523.35,343 524.63,342.75 524.63,342.75 525.91,342.5 525.91,342.5 527.2,342.25 527.2,342.25 528.49,342 528.49,342 529.78,341.75 529.78,341.75 531.08,341.5 531.08,341.5 532.38,341.25 532.38,341.25 533.69,340.99 533.69,340.99 535,340.74 535,340.74 536.31,340.48 536.31,340.48 537.62,340.23 537.62,340.23 538.94,339.97 538.94,339.97 540.27,339.71 540.27,339.71 541.59,339.45 541.59,339.45 542.92,339.19 542.92,339.19 544.26,338.93 544.26,338.93 545.59,338.67 545.59,338.67 546.93,338.41 546.93,338.41 548.28,338.15 548.28,338.15 549.63,337.89 549.63,337.89 550.98,337.63 550.98,337.63 552.34,337.36 552.34,337.36 553.7,337.1 553.7,337.1 555.06,336.83 555.06,336.83 556.43,336.56 556.43,336.56 557.8,336.3 557.8,336.3 559.18,336.03 559.18,336.03 560.56,335.76 560.56,335.76 561.94,335.49 561.94,335.49 563.33,335.22 563.33,335.22 564.72,334.95 564.72,334.95 566.12,334.68 566.12,334.68 567.52,334.41 567.52,334.41 568.92,334.13 568.92,334.13 570.33,333.86 570.33,333.86 571.74,333.58 571.74,333.58 573.16,333.31 573.16,333.31 574.58,333.03 574.58,333.03 576,332.76 576,332.76 577.43,332.48 577.43,332.48 578.86,332.2 578.86,332.2 580.3,331.92 580.3,331.92 581.74,331.64 581.74,331.64 583.18,331.36 583.18,331.36 584.63,331.08 584.63,331.08 586.08,330.79 586.08,330.79 587.54,330.51 587.54,330.51 589,330.22 589,330.22 590.47,329.94 590.47,329.94 591.94,329.65 591.94,329.65 593.42,329.37 593.42,329.37 594.89,329.08 594.89,329.08 596.38,328.79 596.38,328.79 597.87,328.5 597.87,328.5 599.36,328.21 599.36,328.21 600.85,327.92 600.85,327.92 602.36,327.63 602.36,327.63 603.86,327.33 603.86,327.33 605.37,327.04 605.37,327.04 606.89,326.74 606.89,326.74 608.4,326.45 608.4,326.45 609.93,326.15 609.93,326.15 611.46,325.85 611.46,325.85 612.99,325.56"/>
<polyline stroke="black" fill="none" points="737.83,151.26 737.34,150.8 737.34,150.8 736.84,150.33 736.84,150.33 736.35,149.86 736.35,149.86 735.85,149.39 735.85,149.39 735.36,148.91 735.36,148.91 734.86,148.44 734.86,148.44 734.36,147.97 734.36,147.97 733.86,147.49 733.86,147.49 733.36,147.01 733.36,147.01 732.85,146.53 732.85,146.53 732.35,146.06 732.35,146.06 731.84,145.57 731.84,145.57 731.34,145.09 731.34,145.09 730.83,144.61 730.83,144.61 730.32,144.13 730.32,144.13 729.81,143.64 729.81,143.64 729.29,143.15 729.29,143.15 728.78,142.67 728.78,142.67 728.27,142.18 728.27,142.18 727.75,141.69 727.75,141.69 727.23,141.19 727.23,141.19 726.71,140.7 726.71,140.7 726.19,140.21 726.19,140.21 725.67,139.71 725.67,139.71 725.15,139.21 725.15,139.21 724.63,138.72 724.63,138.72 724.1,138.22 724.1,138.22 723.57,137.72 723.57,137.72 723.04,137.21 723.04,137.21 722.52,136.71 722.52,136.71 721.98,136.21 721.98,136.21 721.45,135.7 721.45,135.7 720.92,135.19 720.92,135.19 720.38,134.68 720.38,134.68 719.85,134.17 719.85,134.17 719.31,133.66 719.31,133.66 718.77,133.15 718.77,133.15 718.23,132.64 718.23,132.64 717.69,132.12 717.69,132.12 717.14,131.61 717.14,131.61 716.6,131.09 716.6,131.09 716.05,130.57 716.05,130.57 715.5,130.05 715.5,130.05 714.95,129.53 714.95,129.53 714.4,129 714.4,129 713.85,128.48 713.85,128.48 713.3,127.95 713.3,127.95 712.74,127.42 712.74,127.42 712.18,126.89 712.18,126.89 711.63,126.36 711.63,126.36 711.07,125.83 711.07,125.83 710.51,125.3 710.51,125.3 709.94,124.76 709.94,124.76 709.38,124.23 709.38,124.23 708.81,123.69 708.81,123.69 708.25,123.15 708.25,123.15 707.68,122.61 707.68,122.61 707.11,122.07 707.11,122.07 706.53,121.52 706.53,121.52 705.96,120.98 705.96,120.98 705.39,120.43 705.39,120.43 704.81,119.89 704.81,119.89 704.23,119.34 704.23,119.34 703.65,118.79 703.65,118.79 703.07,118.23 703.07,118.23 702.49,117.68 702.49,117.68 701.9,117.12 701.9,117.12 701.32,116.57 701.32,116.57 700.73,116.01 700.73,116.01 700.14,115.45 700.14,115.45 699.55,114.89 699.55,114.89 698.96,114.32 698.96,114.32 698.36,113.76 698.36,113.76 697.77,113.19 697.77,113.19 697.17,112.63 697.17,112.63 696.57,112.06 696.57,112.06 695.97,111.49 695.97,111.49 695.37,110.91 695.37,110.91 694.77,110.34 694.77,110.34 694.16,109.76 694.16,109.76 693.55,109.19 693.55,109.19 692.94,108.61 692.94,108.61 692.33,108.03 692.33,108.03 691.72,107.45 691.72,107.45 691.11,106.86 691.11,106.86 690.49,106.28 690.49,106.28 689.87,105.69 689.87,105.69 689.25,105.1 689.25,105.1 688.63,104.51 688.63,104.51 688.01,103.92 688.01,103.92 687.38,103.33 687.38,103.33 686.76,102.73 686.76,102.73 686.13,102.13 686.13,102.13 685.5,101.54 685.5,101.54 684.87,100.93 684.87,100.93 684.23,100.33 684.23,100.33 683.6,99.73 683.6,99.73 682.96,99.12 682.96,99.12 682.32,98.52 682.32,98.52 681.68,97.91 681.68,97.91 681.04,97.3 681.04,97.3 680.4,96.68 680.4,96.68 679.75,96.07 679.75,96.07 679.1,95.45 679.1,95.45 678.45,94.84 678.45,94.84 677.8,94.22 677.8,94.22 677.15,93.6 677.15,93.6 676.49,92.97 676.49,92.97 675.83,92.35 675.83,92.35 675.17,91.72 675.17,91.72 674.51,91.09 674.51,91.09 673.85,90.46 673.85,90.46 673.18,89.83 673.18,89.83 672.52,89.2 672.52,89.2 671.85,88.56 671.85,88.56 671.18,87.92 671.18,87.92 670.5,87.28 670.5,87.28 669.83,86.64 669.83,86.64 669.15,86 669.15,86 668.47,85.35 668.47,85.35 667.79,84.71 667.79,84.71 667.11,84.06 667.11,84.06 666.42,83.41 666.42,83.41 665.74,82.75 665.74,82.75 665.05,82.1 665.05,82.1 664.36,81.44 664.36,81.44 663.66,80.78 663.66,80.78 662.97,80.12 662.97,80.12 662.27,79.46 662.27,79.46 661.57,78.8 661.57,78.8 660.87,78.13 660.87,78.13 660.17,77.46 660.17,77.46 659.46,76.79 659.46,76.79 658.75,76.12 658.75,76.12 658.04,75.44 658.04,75.44 657.33,74.77 657.33,74.77 656.62,74.09 656.62,74.09 655.9,73.41 655.9,73.41 655.18,72.72 655.18,72.72 654.46,72.04 654.46,72.04 653.74,71.35 653.74,71.35 653.01,70.66 653.01,70.66 652.29,69.97 652.29,69.97 651.56,69.28 651.56,69.28 650.83,68.58 650.83,68.58 650.09,67.89 650.09,67.89 649.36,67.19 649.36,67.19 648.62,66.48 648.62,66.48 647.88,65.78 647.88,65.78 647.13,65.07 647.13,65.07 646.39,64.37 646.39,64.37 645.64,63.65 645.64,63.65 644.89,62.94 644.89,62.94 644.14,62.23 644.14,62.23 643.38,61.51 643.38,61.51 642.63,60.79 642.63,60.79 641.87,60.07 641.87,60.07 641.11,59.35 641.11,59.35 640.34,58.62 640.34,58.62 639.57,57.89 639.57,57.89 638.81,57.16 638.81,57.16 638.03,56.43 638.03,56.43 637.26,55.69 637.26,55.69 636.49,54.96 636.49,54.96 635.71,54.22 635.71,54.22 634.93,53.47 634.93,53.47 634.14,52.73 634.14,52.73 633.36,51.98 633.36,51.98 632.57,51.23 632.57,51.23 631.78,50.48 631.78,50.48 630.98,49.73 630.98,49.73 630.19,48.97 630.19,48.97 629.39,48.21 629.39,48.21 628.59,47.45 628.59,47.45 627.78,46.69 627.78,46.69 626.98,45.92 626.98,45.92 626.17,45.15 626.17,45.15 625.36,44.38 625.36,44.38 624.54,43.61 624.54,43.61 623.73,42.83 623.73,42.83 622.91,42.05 622.91,42.05 622.09,41.27 622.09,41.27 621.26,40.49 621.26,40.49 620.43,39.7 620.43,39.7 619.6,38.91 619.6,38.91 618.77,38.12 618.77,38.12 617.94,37.33 617.94,37.33 617.1,36.53 617.1,36.53 616.26,35.73 616.26,35.73 615.41,34.93 615.41,34.93 614.57,34.13 614.57,34.13 613.72,33.32 613.72,33.32 612.87,32.51 612.87,32.51 612.01,31.7 612.01,31.7 611.15,30.88 611.15,30.88 610.29,30.07 610.29,30.07 609.43,29.24 609.43,29.24 608.57,28.42 608.57,28.42 607.7,27.6 607.7,27.6 606.82,26.77"/>
<polyline stroke="black" fill="none" points="737.83,151.26 737.93,152.27 737.93,152.27 738.03,153.29 738.03,153.29 738.13,154.3 738.13,154.3 738.23,155.32 738.23,155.32 738.33,156.34 738.33,156.34 738.44,157.35 738.44,157.35 738.54,158.37 738.54,158.37 738.64,159.4 738.64,159.4 738.74,160.42 738.74,160.42 738.84,161.44 738.84,161.44 738.95,162.47 738.95,162.47 739.05,163.49 739.05,163.49 739.15,164.52 739.15,164.52 739.26,165.55 739.26,165.55 739.36,166.58 739.36,166.58 739.46,167.61 739.46,167.61 739.56,168.64 739.56,168.64 739.67,169.68 739.67,169.68 739.77,170.71 739.77,170.71 739.88,171.75 739.88,171.75 739.98,172.79 739.98,172.79 740.08,173.83 740.08,173.83 740.19,174.87 740.19,174.87 740.29,175.91 740.29,175.91 740.4,176.95 740.4,176.95 740.5,178 740.5,178 740.6,179.04 740.6,179.04 740.71,180.09 740.71,180.09 740.81,181.14 740.81,181.14 740.92,182.19 740.92,182.19 741.02,183.24 741.02,183.24 741.13,184.29 741.13,184.29 741.24,185.35 741.24,185.35 741.34,186.4 741.34,186.4 741.45,187.46 741.45,187.46 741.55,188.52 741.55,188.52 741.66,189.57 741.66,189.57 741.76,190.64 741.76,190.64 741.87,191.7 741.87,191.7 741.98,192.76 741.98,192.76 742.08,193.83 742.08,193.83 742.19,194.89 742.19,194.89 742.3,195.96 742.3,195.96 742.4,197.03 742.4,197.03 742.51,198.1 742.51,198.1 742.62,199.17 742.62,199.17 742.72,200.24 742.72,200.24 742.83,201.32 742.83,201.32 742.94,202.39 742.94,202.39 743.05,203.47 743.05,203.47 743.16,204.55 743.16,204.55 743.26,205.63 743.26,205.63 743.37,206.71 743.37,206.71 743.48,207.79 743.48,207.79 743.59,208.88 743.59,208.88 743.7,209.96 743.7,209.96 743.81,211.05 743.81,211.05 743.91,212.14 743.91,212.14 744.02,213.23 744.02,213.23 744.13,214.32 744.13,214.32 744.24,215.41 744.24,215.41 744.35,216.51 744.35,216.51 744.46,217.6 744.46,217.6 744.57,218.7 744.57,218.7 744.68,219.8 744.68,219.8 744.79,220.9 744.79,220.9 744.9,222 744.9,222 745.01,223.1 745.01,223.1 745.12,224.2 745.12,224.2 745.23,225.31 745.23,225.31 745.34,226.42 745.34,226.42 745.45,227.52 745.45,227.52 745.56,228.63 745.56,228.63 745.67,229.75 745.67,229.75 745.79,230.86 745.79,230.86 745.9,231.97 745.9,231.97 746.01,233.09 746.01,233.09 746.12,234.2 746.12,234.2 746.23,235.32 746.23,235.32 746.34,236.44 746.34,236.44 746.46,237.56 746.46,237.56 746.57,238.69 746.57,238.69 746.68,239.81 746.68,239.81 746.79,240.94 746.79,240.94 746.91,242.07 746.91,242.07 747.02,243.19 747.02,243.19 747.13,244.33 747.13,244.33 747.25,245.46 747.25,245.46 747.36,246.59 747.36,246.59 747.47,247.73 747.47,247.73 747.59,248.86 747.59,248.86 747.7,250 747.7,250 747.81,251.14 747.81,251.14 747.93,252.28 747.93,252.28 748.04,253.42 748.04,253.42 748.16,254.57 748.16,254.57 748.27,255.71 748.27,255.71 748.39,256.86 748.39,256.86 748.5,258.01 748.5,258.01 748.62,259.16 748.62,259.16 748.73,260.31 748.73,260.31 748.85,261.46 748.85,261.46 748.96,262.62 748.96,262.62 749.08,263.77 749.08,263.77 749.19,264.93 749.19,264.93 749.31,266.09 749.31,266.09 749.42,267.25 749.42,267.25 749.54,268.41 749.54,268.41 749.66,269.58 749.66,269.58 749.77,270.74 749.77,270.74 749.89,271.91 749.89,271.91 750.01,273.08 750.01,273.08 750.12,274.25 750.12,274.25 750.24,275.42 750.24,275.42 750.36,276.6 750.36,276.6 750.48,277.77 750.48,277.77 750.59,278.95 750.59,278.95 750.71,280.13 750.71,280.13 750.83,281.31 750.83,281.31 750.95,282.49 750.95,282.49 751.07,283.67 751.07,283.67 751.18,284.85 751.18,284.85 751.3,286.04 751.3,286.04 751.42,287.23 751.42,287.23 751.54,288.42 751.54,288.42 751.66,289.61 751.66,289.61 751.78,290.8 751.78,290.8 751.9,292 751.9,292 752.02,293.19 752.02,293.19 752.14,294.39 752.14,294.39 752.26,295.59 752.26,295.59 752.38,296.79 752.38,296.79 752.5,297.99 752.5,297.99 752.62,299.2 752.62,299.2 752.74,300.4 752.74,300.4 752.86,301.61 752.86,301.61 752.98,302.82 752.98,302.82 753.1,304.03 753.1,304.03 753.22,305.24 753.22,305.24 753.34,306.46 753.34,306.46 753.47,307.67 753.47,307.67 753.59,308.89 753.59,308.89 753.71,310.11 753.71,310.11 753.83,311.33 753.83,311.33 753.95,312.55 753.95,312.55 754.08,313.77 754.08,313.77 754.2,315 754.2,315 754.32,316.23 754.32,316.23 754.44,317.46 754.44,317.46 754.57,318.69 754.57,318.69 754.69,319.92 754.69,319.92 754.81,321.15 754.81,321.15 754.94,322.39 754.94,322.39 755.06,323.63 755.06,323.63 755.19,324.87 755.19,324.87 755.31,326.11 755.31,326.11 755.43,327.35 755.43,327.35 755.56,328.59 755.56,328.59 755.68,329.84 755.68,329.84 755.81,331.09 755.81,331.09 755.93,332.34 755.93,332.34 756.06,333.59 756.06,333.59 756.18,334.84 756.18,334.84 756.31,336.1 756.31,336.1 756.43,337.35 756.43,337.35 756.56,338.61 756.56,338.61 756.69,339.87 756.69,339.87 756.81,341.13 756.81,341.13 756.94,342.4 756.94,342.4 757.07,343.66 757.07,343.66 757.19,344.93 757.19,344.93 757.32,346.2 757.32,346.2 757.45,347.47 757.45,347.47 757.57,348.74 757.57,348.74 757.7,350.02 757.7,350.02 757.83,351.29 757.83,351.29 757.96,352.57 757.96,352.57 758.08,353.85 758.08,353.85 758.21,355.13 758.21,355.13 758.34,356.42 758.34,356.42 758.47,357.7 758.47,357.7 758.6,358.99 758.6,358.99 758.73,360.28 758.73,360.28 758.86,361.57 758.86,361.57 758.98,362.86 758.98,362.86 759.11,364.15 759.11,364.15 759.24,365.45 759.24,365.45 759.37,366.75 759.37,366.75 759.5,368.05 759.5,368.05 759.63,369.35 759.63,369.35 759.76,370.65 759.76,370.65 759.89,371.96 759.89,371.96 760.03,373.27 760.03,373.27 760.16,374.57 760.16,374.57 760.29,375.89 760.29,375.89 760.42,377.2 760.42,377.2 760.55,378.51 760.55,378.51 760.68,379.83 760.68,379.83 760.81,381.15 760.81,381.15 760.95,382.47"/>
<polyline stroke="black" fill="none" points="606.82,26.77 606.85,28.01 606.85,28.01 606.88,29.26 606.88,29.26 606.9,30.51 606.9,30.51 606.93,31.76 606.93,31.76 606.95,33.02 606.95,33.02 606.98,34.27 606.98,34.27 607.01,35.53 607.01,35.53 607.03,36.79 607.03,36.79 607.06,38.06 607.06,38.06 607.08,39.32 607.08,39.32 607.11,40.59 607.11,40.59 607.14,41.86 607.14,41.86 607.16,43.13 607.16,43.13 607.19,44.4 607.19,44.4 607.21,45.68 607.21,45.68 607.24,46.96 607.24,46.96 607.27,48.24 607.27,48.24 607.29,49.52 607.29,49.52 607.32,50.8 607.32,50.8 607.35,52.09 607.35,52.09 607.37,53.38 607.37,53.38 607.4,54.67 607.4,54.67 607.43,55.96 607.43,55.96 607.45,57.26 607.45,57.26 607.48,58.55 607.48,58.55 607.51,59.85 607.51,59.85 607.53,61.15 607.53,61.15 607.56,62.46 607.56,62.46 607.59,63.77 607.59,63.77 607.61,65.07 607.61,65.07 607.64,66.38 607.64,66.38 607.67,67.7 607.67,67.7 607.7,69.01 607.7,69.01 607.72,70.33 607.72,70.33 607.75,71.65 607.75,71.65 607.78,72.97 607.78,72.97 607.8,74.3 607.8,74.3 607.83,75.62 607.83,75.62 607.86,76.95 607.86,76.95 607.89,78.28 607.89,78.28 607.91,79.62 607.91,79.62 607.94,80.95 607.94,80.95 607.97,82.29 607.97,82.29 608,83.63 608,83.63 608.03,84.97 608.03,84.97 608.05,86.32 608.05,86.32 608.08,87.67 608.08,87.67 608.11,89.01 608.11,89.01 608.14,90.37 608.14,90.37 608.16,91.72 608.16,91.72 608.19,93.08 608.19,93.08 608.22,94.44 608.22,94.44 608.25,95.8 608.25,95.8 608.28,97.16 608.28,97.16 608.3,98.53 608.3,98.53 608.33,99.9 608.33,99.9 608.36,101.27 608.36,101.27 608.39,102.64 608.39,102.64 608.42,104.02 608.42,104.02 608.45,105.4 608.45,105.4 608.48,106.78 608.48,106.78 608.5,108.16 608.5,108.16 608.53,109.55 608.53,109.55 608.56,110.93 608.56,110.93 608.59,112.32 608.59,112.32 608.62,113.72 608.62,113.72 608.65,115.11 608.65,115.11 608.68,116.51 608.68,116.51 608.7,117.91 608.7,117.91 608.73,119.31 608.73,119.31 608.76,120.72 608.76,120.72 608.79,122.13 608.79,122.13 608.82,123.54 608.82,123.54 608.85,124.95 608.85,124.95 608.88,126.36 608.88,126.36 608.91,127.78 608.91,127.78 608.94,129.2 608.94,129.2 608.97,130.62 608.97,130.62 609,132.05 609,132.05 609.03,133.48 609.03,133.48 609.06,134.91 609.06,134.91 609.09,136.34 609.09,136.34 609.11,137.78 609.11,137.78 609.14,139.21 609.14,139.21 609.17,140.66 609.17,140.66 609.2,142.1 609.2,142.1 609.23,143.54 609.23,143.54 609.26,144.99 609.26,144.99 609.29,146.44 609.29,146.44 609.32,147.9 609.32,147.9 609.35,149.35 609.35,149.35 609.38,150.81 609.38,150.81 609.41,152.27 609.41,152.27 609.44,153.74 609.44,153.74 609.47,155.21 609.47,155.21 609.5,156.68 609.5,156.68 609.53,158.15 609.53,158.15 609.57,159.62 609.57,159.62 609.6,161.1 609.6,161.1 609.63,162.58 609.63,162.58 609.66,164.06 609.66,164.06 609.69,165.55 609.69,165.55 609.72,167.04 609.72,167.04 609.75,168.53 609.75,168.53 609.78,170.02 609.78,170.02 609.81,171.52 609.81,171.52 609.84,173.02 609.84,173.02 609.87,174.52 609.87,174.52 609.9,176.02 609.9,176.02 609.93,177.53 609.93,177.53 609.97,179.04 609.97,179.04 610,180.56 610,180.56 610.03,182.07 610.03,182.07 610.06,183.59 610.06,183.59 610.09,185.11 610.09,185.11 610.12,186.64 610.12,186.64 610.15,188.16 610.15,188.16 610.19,189.69 610.19,189.69 610.22,191.23 610.22,191.23 610.25,192.76 610.25,192.76 610.28,194.3 610.28,194.3 610.31,195.84 610.31,195.84 610.34,197.38 610.34,197.38 610.38,198.93 610.38,198.93 610.41,200.48 610.41,200.48 610.44,202.03 610.44,202.03 610.47,203.59 610.47,203.59 610.5,205.15 610.5,205.15 610.54,206.71 610.54,206.71 610.57,208.27 610.57,208.27 610.6,209.84 610.6,209.84 610.63,211.41 610.63,211.41 610.67,212.99 610.67,212.99 610.7,214.56 610.7,214.56 610.73,216.14 610.73,216.14 610.76,217.72 610.76,217.72 610.8,219.31 610.8,219.31 610.83,220.9 610.83,220.9 610.86,222.49 610.86,222.49 610.9,224.08 610.9,224.08 610.93,225.68 610.93,225.68 610.96,227.28 610.96,227.28 610.99,228.88 610.99,228.88 611.03,230.49 611.03,230.49 611.06,232.1 611.06,232.1 611.09,233.71 611.09,233.71 611.13,235.32 611.13,235.32 611.16,236.94 611.16,236.94 611.19,238.56 611.19,238.56 611.23,240.19 611.23,240.19 611.26,241.82 611.26,241.82 611.29,243.45 611.29,243.45 611.33,245.08 611.33,245.08 611.36,246.72 611.36,246.72 611.4,248.36 611.4,248.36 611.43,250 611.43,250 611.46,251.65 611.46,251.65 611.5,253.3 611.5,253.3 611.53,254.95 611.53,254.95 611.57,256.6 611.57,256.6 611.6,258.26 611.6,258.26 611.63,259.93 611.63,259.93 611.67,261.59 611.67,261.59 611.7,263.26 611.7,263.26 611.74,264.93 611.74,264.93 611.77,266.61 611.77,266.61 611.81,268.29 611.81,268.29 611.84,269.97 611.84,269.97 611.88,271.65 611.88,271.65 611.91,273.34 611.91,273.34 611.95,275.03 611.95,275.03 611.98,276.73 611.98,276.73 612.02,278.42 612.02,278.42 612.05,280.13 612.05,280.13 612.09,281.83 612.09,281.83 612.12,283.54 612.12,283.54 612.16,285.25 612.16,285.25 612.19,286.96 612.19,286.96 612.23,288.68 612.23,288.68 612.26,290.4 612.26,290.4 612.3,292.13 612.3,292.13 612.34,293.86 612.34,293.86 612.37,295.59 612.37,295.59 612.41,297.32 612.41,297.32 612.44,299.06 612.44,299.06 612.48,300.8 612.48,300.8 612.51,302.55 612.51,302.55 612.55,304.3 612.55,304.3 612.59,306.05 612.59,306.05 612.62,307.81 612.62,307.81 612.66,309.56 612.66,309.56 612.7,311.33 612.7,311.33 612.73,313.09 612.73,313.09 612.77,314.86 612.77,314.86 612.81,316.64 612.81,316.64 612.84,318.41 612.84,318.41 612.88,320.19 612.88,320.19 612.92,321.98 612.92,321.98 612.95,323.76 612.95,323.76 612.99,325.56"/>
<polyline stroke="black" fill="none" points="760.95,382.47 760.42,382.26 760.42,382.26 759.89,382.06 759.89,382.06 759.35,381.86 759.35,381.86 758.82,381.65 758.82,381.65 758.28,381.44 758.28,381.44 757.75,381.24 757.75,381.24 757.21,381.03 757.21,381.03 756.67,380.82 756.67,380.82 756.13,380.61 756.13,380.61 755.58,380.41 755.58,380.41 755.04,380.2 755.04,380.2 754.49,379.99 754.49,379.99 753.95,379.78 753.95,379.78 753.4,379.56 753.4,379.56 752.85,379.35 752.85,379.35 752.29,379.14 752.29,379.14 751.74,378.93 751.74,378.93 751.18,378.71 751.18,378.71 750.63,378.5 750.63,378.5 750.07,378.28 750.07,378.28 749.51,378.07 749.51,378.07 748.94,377.85 748.94,377.85 748.38,377.63 748.38,377.63 747.81,377.42 747.81,377.42 747.25,377.2 747.25,377.2 746.68,376.98 746.68,376.98 746.11,376.76 746.11,376.76 745.53,376.54 745.53,376.54 744.96,376.32 744.96,376.32 744.38,376.1 744.38,376.1 743.81,375.87 743.81,375.87 743.23,375.65 743.23,375.65 742.64,375.43 742.64,375.43 742.06,375.2 742.06,375.2 741.48,374.98 741.48,374.98 740.89,374.75 740.89,374.75 740.3,374.53 740.3,374.53 739.71,374.3 739.71,374.3 739.12,374.07 739.12,374.07 738.53,373.84 738.53,373.84 737.93,373.62 737.93,373.62 737.34,373.39 737.34,373.39 736.74,373.16 736.74,373.16 736.14,372.92 736.14,372.92 735.53,372.69 735.53,372.69 734.93,372.46 734.93,372.46 734.32,372.23 734.32,372.23 733.71,371.99 733.71,371.99 733.1,371.76 733.1,371.76 732.49,371.52 732.49,371.52 731.88,371.29 731.88,371.29 731.26,371.05 731.26,371.05 730.65,370.81 730.65,370.81 730.03,370.57 730.03,370.57 729.4,370.34 729.4,370.34 728.78,370.1 728.78,370.1 728.16,369.85 728.16,369.85 727.53,369.61 727.53,369.61 726.9,369.37 726.9,369.37 726.27,369.13 726.27,369.13 725.63,368.89 725.63,368.89 725,368.64 725,368.64 724.36,368.4 724.36,368.4 723.72,368.15 723.72,368.15 723.08,367.9 723.08,367.9 722.44,367.66 722.44,367.66 721.79,367.41 721.79,367.41 721.15,367.16 721.15,367.16 720.5,366.91 720.5,366.91 719.85,366.66 719.85,366.66 719.19,366.41 719.19,366.41 718.54,366.16 718.54,366.16 717.88,365.9 717.88,365.9 717.22,365.65 717.22,365.65 716.56,365.39 716.56,365.39 715.89,365.14 715.89,365.14 715.23,364.88 715.23,364.88 714.56,364.63 714.56,364.63 713.89,364.37 713.89,364.37 713.22,364.11 713.22,364.11 712.54,363.85 712.54,363.85 711.87,363.59 711.87,363.59 711.19,363.33 711.19,363.33 710.51,363.07 710.51,363.07 709.82,362.8 709.82,362.8 709.14,362.54 709.14,362.54 708.45,362.27 708.45,362.27 707.76,362.01 707.76,362.01 707.07,361.74 707.07,361.74 706.37,361.48 706.37,361.48 705.67,361.21 705.67,361.21 704.97,360.94 704.97,360.94 704.27,360.67 704.27,360.67 703.57,360.4 703.57,360.4 702.86,360.13 702.86,360.13 702.15,359.85 702.15,359.85 701.44,359.58 701.44,359.58 700.73,359.31 700.73,359.31 700.01,359.03 700.01,359.03 699.3,358.75 699.3,358.75 698.58,358.48 698.58,358.48 697.85,358.2 697.85,358.2 697.13,357.92 697.13,357.92 696.4,357.64 696.4,357.64 695.67,357.36 695.67,357.36 694.94,357.08 694.94,357.08 694.2,356.79 694.2,356.79 693.47,356.51 693.47,356.51 692.73,356.23 692.73,356.23 691.98,355.94 691.98,355.94 691.24,355.65 691.24,355.65 690.49,355.37 690.49,355.37 689.74,355.08 689.74,355.08 688.99,354.79 688.99,354.79 688.23,354.5 688.23,354.5 687.47,354.21 687.47,354.21 686.71,353.91 686.71,353.91 685.95,353.62 685.95,353.62 685.18,353.33 685.18,353.33 684.42,353.03 684.42,353.03 683.65,352.73 683.65,352.73 682.87,352.44 682.87,352.44 682.1,352.14 682.1,352.14 681.32,351.84 681.32,351.84 680.53,351.54 680.53,351.54 679.75,351.24 679.75,351.24 678.96,350.93 678.96,350.93 678.17,350.63 678.17,350.63 677.38,350.32 677.38,350.32 676.58,350.02 676.58,350.02 675.79,349.71 675.79,349.71 674.98,349.4 674.98,349.4 674.18,349.09 674.18,349.09 673.37,348.78 673.37,348.78 672.56,348.47 672.56,348.47 671.75,348.16 671.75,348.16 670.94,347.85 670.94,347.85 670.12,347.53 670.12,347.53 669.3,347.21 669.3,347.21 668.47,346.9 668.47,346.9 667.65,346.58 667.65,346.58 666.82,346.26 666.82,346.26 665.98,345.94 665.98,345.94 665.15,345.62 665.15,345.62 664.31,345.3 664.31,345.3 663.47,344.97 663.47,344.97 662.62,344.65 662.62,344.65 661.77,344.32 661.77,344.32 660.92,343.99 660.92,343.99 660.07,343.66 660.07,343.66 659.21,343.33 659.21,343.33 658.35,343 658.35,343 657.48,342.67 657.48,342.67 656.62,342.34 656.62,342.34 655.75,342 655.75,342 654.87,341.67 654.87,341.67 654,341.33 654,341.33 653.12,340.99 653.12,340.99 652.23,340.65 652.23,340.65 651.35,340.31 651.35,340.31 650.46,339.97 650.46,339.97 649.57,339.62 649.57,339.62 648.67,339.28 648.67,339.28 647.77,338.93 647.77,338.93 646.87,338.59 646.87,338.59 645.96,338.24 645.96,338.24 645.05,337.89 645.05,337.89 644.14,337.54 644.14,337.54 643.22,337.18 643.22,337.18 642.3,336.83 642.3,336.83 641.38,336.48 641.38,336.48 640.45,336.12 640.45,336.12 639.52,335.76 639.52,335.76 638.59,335.4 638.59,335.4 637.65,335.04 637.65,335.04 636.71,334.68 636.71,334.68 635.76,334.32 635.76,334.32 634.81,333.95 634.81,333.95 633.86,333.58 633.86,333.58 632.91,333.22 632.91,333.22 631.95,332.85 631.95,332.85 630.98,332.48 630.98,332.48 630.02,332.11 630.02,332.11 629.05,331.73 629.05,331.73 628.07,331.36 628.07,331.36 627.09,330.98 627.09,330.98 626.11,330.6 626.11,330.6 625.13,330.22 625.13,330.22 624.14,329.84 624.14,329.84 623.14,329.46 623.14,329.46 622.15,329.08 622.15,329.08 621.14,328.69 621.14,328.69 620.14,328.31 620.14,328.31 619.13,327.92 619.13,327.92 618.12,327.53 618.12,327.53 617.1,327.14 617.1,327.14 616.08,326.74 616.08,326.74 615.05,326.35 615.05,326.35 614.02,325.95 614.02,325.95 612.99,325.56"/>
</g></svg>