<svg version="1.1" xmlns="http://www.w3.org/2000/svg" viewBox="0 0 778.2890625 579.1015625" width="778.2890625" height="579.1015625" class="excalidraw-svg">
  <!-- svg-source:excalidraw -->
  
  <defs>
    <style class="style-fonts">
      
    </style>
    
  </defs>
  <rect x="0" y="0" width="778.2890625" height="579.1015625" fill="#ffffff"/><g transform="translate(258.453125 297.81640625) rotate(0 53.49609375 -38.92578125)" stroke="none"><path fill="#1e1e1e" d="M -2.63,-4.61 Q -2.63,-4.61 -1.08,-5.57 0.46,-6.53 2.25,-7.79 4.04,-9.05 5.89,-10.70 7.73,-12.34 9.82,-14.20 11.90,-16.07 13.63,-17.86 15.35,-19.65 14.82,-21.96 14.28,-24.26 14.27,-26.87 14.26,-29.48 13.87,-31.73 13.48,-33.99 12.66,-36.26 11.84,-38.53 10.58,-41.37 9.33,-44.21 7.54,-46.93 5.75,-49.65 4.15,-51.61 2.55,-53.57 0.56,-55.82 -1.43,-58.07 -3.49,-60.32 -5.56,-62.58 -7.38,-64.29 -9.20,-66.00 -11.60,-67.86 -14.00,-69.71 -15.93,-71.08 -17.86,-72.44 -19.81,-73.60 -21.76,-74.75 -24.56,-75.83 -27.36,-76.92 -30.03,-77.38 -32.71,-77.84 -35.07,-77.95 -37.44,-78.06 -40.82,-78.23 -44.20,-78.41 -47.48,-78.47 -50.76,-78.53 -53.32,-78.48 -55.88,-78.42 -58.64,-77.64 -61.40,-76.87 -64.06,-75.08 -66.72,-73.29 -69.90,-70.29 -73.08,-67.28 -74.80,-65.55 -76.53,-63.82 -78.12,-62.14 -79.71,-60.46 -82.10,-57.35 -84.50,-54.24 -85.67,-52.35 -86.85,-50.46 -88.62,-46.78 -90.38,-43.09 -91.48,-39.96 -92.58,-36.83 -92.90,-34.13 -93.21,-31.44 -93.29,-27.87 -93.38,-24.30 -92.75,-20.15 -92.11,-16.01 -91.37,-13.94 -90.63,-11.86 -89.67,-9.66 -88.71,-7.45 -87.68,-5.30 -86.65,-3.15 -85.65,-1.21 -84.65,0.72 -82.78,4.13 -80.90,7.54 -79.18,10.64 -77.46,13.75 -75.86,16.39 -74.27,19.03 -72.66,21.75 -71.05,24.47 -69.47,26.58 -67.89,28.68 -66.10,30.54 -64.30,32.39 -62.10,34.40 -59.89,36.40 -57.17,38.60 -54.46,40.79 -51.12,43.28 -47.78,45.76 -45.95,46.91 -44.12,48.06 -42.08,49.27 -40.05,50.47 -37.95,51.61 -35.85,52.75 -33.70,53.78 -31.56,54.81 -29.31,55.76 -27.06,56.70 -24.53,57.59 -22.01,58.48 -19.43,59.25 -16.84,60.02 -14.20,60.73 -11.57,61.44 -8.85,62.10 -6.14,62.76 -3.33,63.36 -0.52,63.95 2.37,64.55 5.27,65.15 8.01,65.65 10.74,66.16 13.67,66.66 16.61,67.16 19.75,67.68 22.89,68.19 25.99,68.56 29.08,68.92 32.31,69.12 35.53,69.33 38.90,69.45 42.28,69.58 45.71,69.59 49.15,69.59 52.48,69.23 55.80,68.86 59.04,68.10 62.27,67.34 65.47,66.34 68.67,65.34 71.66,64.22 74.64,63.09 77.62,61.86 80.60,60.63 83.41,59.35 86.23,58.07 88.84,56.77 91.45,55.48 94.14,54.09 96.83,52.70 99.55,51.19 102.28,49.67 104.90,48.00 107.52,46.33 110.18,44.42 112.85,42.52 115.57,40.34 118.29,38.16 120.63,35.90 122.98,33.64 125.15,31.17 127.33,28.71 129.36,25.85 131.40,23.00 133.17,19.82 134.95,16.63 136.50,13.01 138.06,9.39 139.30,5.52 140.53,1.66 141.38,-1.96 142.22,-5.60 142.76,-8.96 143.30,-12.32 143.61,-15.42 143.92,-18.53 143.99,-21.27 144.06,-24.02 144.03,-26.63 143.99,-29.24 143.93,-31.85 143.87,-34.45 143.80,-37.07 143.73,-39.70 143.56,-42.13 143.39,-44.57 143.02,-46.68 142.65,-48.80 142.14,-50.88 141.64,-52.96 141.05,-55.08 140.47,-57.20 139.81,-59.38 139.15,-61.56 138.39,-63.58 137.62,-65.59 135.78,-68.97 133.94,-72.35 131.63,-75.15 129.32,-77.95 127.88,-79.54 126.45,-81.14 124.82,-83.02 123.20,-84.89 121.49,-86.86 119.77,-88.83 118.02,-90.88 116.27,-92.92 114.45,-95.03 112.62,-97.13 110.73,-99.16 108.83,-101.18 106.66,-103.46 104.49,-105.74 102.14,-108.19 99.79,-110.64 97.28,-113.18 94.77,-115.72 91.96,-118.68 89.16,-121.64 86.22,-124.82 83.28,-128.00 80.27,-131.22 77.25,-134.45 74.16,-137.70 71.07,-140.95 67.82,-144.21 64.58,-147.46 61.06,-150.70 57.55,-153.94 53.92,-157.13 50.29,-160.31 46.99,-163.16 43.69,-166.01 40.57,-168.57 37.44,-171.13 34.26,-173.64 31.07,-176.15 27.89,-178.43 24.71,-180.72 21.48,-182.80 18.24,-184.88 15.13,-186.70 12.01,-188.51 9.01,-190.16 6.01,-191.80 3.13,-193.19 0.24,-194.59 -2.61,-195.65 -5.48,-196.71 -8.50,-197.44 -11.52,-198.17 -14.34,-198.53 -17.16,-198.89 -19.92,-199.05 -22.67,-199.21 -25.55,-199.26 -28.43,-199.31 -31.39,-199.31 -34.34,-199.31 -37.30,-199.30 -40.26,-199.28 -43.38,-199.28 -46.51,-199.28 -49.60,-199.12 -52.70,-198.95 -55.45,-198.53 -58.20,-198.11 -60.86,-197.58 -63.52,-197.04 -66.22,-196.46 -68.93,-195.87 -71.29,-195.22 -73.65,-194.57 -77.31,-192.93 -80.97,-191.30 -84.08,-189.20 -87.18,-187.11 -88.82,-185.74 -90.45,-184.38 -92.37,-182.64 -94.29,-180.91 -96.26,-179.04 -98.24,-177.17 -100.47,-175.10 -102.70,-173.03 -105.10,-170.65 -107.49,-168.27 -110.03,-165.51 -112.57,-162.75 -115.35,-159.52 -118.13,-156.29 -120.98,-152.61 -123.83,-148.93 -126.72,-144.86 -129.60,-140.78 -132.52,-136.38 -135.43,-131.98 -138.29,-127.44 -141.15,-122.90 -143.74,-118.44 -146.32,-113.97 -148.42,-110.03 -150.51,-106.10 -152.04,-102.63 -153.57,-99.17 -154.76,-95.66 -155.96,-92.15 -156.82,-88.65 -157.68,-85.15 -158.14,-81.95 -158.61,-78.75 -158.79,-75.74 -158.97,-72.73 -159.02,-69.59 -159.07,-66.46 -159.14,-62.86 -159.20,-59.26 -159.27,-55.46 -159.34,-51.66 -159.38,-47.86 -159.42,-44.07 -159.48,-40.15 -159.53,-36.23 -159.56,-32.35 -159.60,-28.47 -159.56,-24.86 -159.52,-21.26 -159.46,-17.85 -159.40,-14.45 -159.23,-11.21 -159.06,-7.98 -158.77,-4.99 -158.47,-2.00 -158.13,1.02 -157.78,4.05 -157.27,7.08 -156.76,10.11 -156.05,13.07 -155.35,16.03 -154.49,19.12 -153.64,22.21 -152.66,25.34 -151.68,28.47 -150.53,31.50 -149.38,34.53 -148.02,37.68 -146.65,40.83 -145.12,44.11 -143.58,47.40 -141.91,50.76 -140.23,54.11 -138.46,57.54 -136.69,60.98 -134.84,64.16 -132.99,67.34 -131.03,70.35 -129.06,73.36 -126.94,76.20 -124.83,79.04 -122.55,81.67 -120.27,84.30 -117.76,87.02 -115.25,89.74 -112.52,92.66 -109.80,95.58 -106.94,98.59 -104.08,101.61 -101.02,104.69 -97.96,107.76 -94.59,110.95 -91.23,114.14 -87.55,117.40 -83.86,120.66 -79.83,123.93 -75.80,127.20 -71.52,130.39 -67.25,133.58 -62.83,136.64 -58.40,139.70 -53.72,142.60 -49.03,145.50 -43.96,148.38 -38.88,151.27 -33.41,154.12 -27.95,156.97 -22.12,159.59 -16.29,162.21 -10.20,164.56 -4.11,166.91 2.11,168.99 8.34,171.07 14.58,172.86 20.82,174.65 26.94,176.09 33.05,177.53 39.28,178.55 45.50,179.58 52.33,180.19 59.16,180.80 66.94,181.08 74.73,181.36 83.20,181.20 91.67,181.04 99.89,180.10 108.12,179.16 115.70,177.48 123.28,175.79 130.30,173.59 137.32,171.39 144.06,168.79 150.80,166.19 157.74,163.33 164.68,160.48 171.91,157.46 179.14,154.43 186.63,151.23 194.11,148.03 201.62,144.64 209.13,141.25 216.28,137.76 223.43,134.27 230.06,130.67 236.70,127.06 242.70,123.37 248.70,119.69 254.11,116.04 259.53,112.40 264.35,108.91 269.18,105.43 273.47,102.16 277.77,98.89 281.26,96.07 284.76,93.25 287.30,90.71 289.84,88.16 291.74,85.71 293.63,83.25 294.88,80.86 296.13,78.47 296.94,75.91 297.75,73.35 298.16,70.47 298.57,67.60 298.82,64.11 299.07,60.63 299.33,56.34 299.58,52.04 299.50,46.80 299.42,41.56 298.83,35.23 298.25,28.90 297.31,21.48 296.38,14.07 295.36,5.94 294.34,-2.17 293.30,-10.39 292.25,-18.61 291.03,-26.56 289.82,-34.51 288.48,-41.94 287.15,-49.36 285.64,-56.14 284.13,-62.91 282.38,-69.39 280.63,-75.87 278.59,-82.26 276.55,-88.66 274.12,-94.64 271.69,-100.63 268.91,-106.03 266.12,-111.43 263.01,-116.11 259.90,-120.80 256.52,-124.81 253.14,-128.82 249.53,-132.38 245.92,-135.94 242.21,-139.21 238.49,-142.47 234.81,-145.46 231.12,-148.45 227.40,-151.15 223.68,-153.85 219.72,-156.47 215.77,-159.09 211.49,-161.81 207.22,-164.52 202.49,-167.46 197.76,-170.39 192.60,-173.47 187.44,-176.54 182.09,-179.59 176.73,-182.65 171.28,-185.62 165.83,-188.60 160.23,-191.55 154.64,-194.51 148.84,-197.56 143.03,-200.61 136.97,-203.74 130.92,-206.87 124.39,-209.96 117.87,-213.05 110.85,-215.90 103.84,-218.75 96.49,-221.14 89.14,-223.52 81.34,-225.57 73.53,-227.62 65.49,-229.48 57.46,-231.34 49.53,-233.00 41.60,-234.66 33.63,-236.34 25.67,-238.03 17.68,-239.80 9.70,-241.58 1.66,-243.33 -6.37,-245.08 -14.47,-246.65 -22.56,-248.22 -30.55,-249.59 -38.54,-250.96 -46.27,-252.15 -54.00,-253.34 -61.13,-254.35 -68.26,-255.35 -74.56,-256.10 -80.85,-256.85 -86.28,-257.39 -91.70,-257.93 -96.20,-258.31 -100.69,-258.68 -104.48,-258.81 -108.27,-258.93 -111.63,-258.93 -114.98,-258.93 -117.88,-258.82 -120.77,-258.71 -123.30,-258.56 -125.83,-258.41 -129.54,-257.72 -133.25,-257.02 -136.57,-254.64 -139.89,-252.26 -142.15,-250.14 -144.41,-248.01 -147.21,-245.07 -150.02,-242.12 -153.22,-238.18 -156.41,-234.24 -159.85,-229.71 -163.29,-225.18 -166.77,-220.73 -170.25,-216.28 -173.68,-212.22 -177.11,-208.17 -180.08,-204.90 -183.04,-201.64 -185.15,-199.11 -187.26,-196.58 -188.71,-194.69 -190.17,-192.80 -191.47,-191.20 -192.77,-189.60 -193.26,-189.22 -193.74,-188.83 -194.33,-188.62 -194.91,-188.40 -195.53,-188.39 -196.15,-188.38 -196.75,-188.56 -197.34,-188.75 -197.84,-189.11 -198.35,-189.47 -198.71,-189.98 -199.07,-190.49 -199.25,-191.08 -199.43,-191.68 -199.41,-192.30 -199.39,-192.92 -199.17,-193.50 -198.96,-194.08 -198.57,-194.57 -198.18,-195.05 -197.65,-195.38 -197.13,-195.71 -196.52,-195.86 -195.92,-196.01 -195.30,-195.96 -194.68,-195.90 -194.11,-195.66 -193.54,-195.41 -193.08,-194.99 -192.62,-194.57 -192.32,-194.03 -192.01,-193.49 -191.90,-192.88 -191.78,-192.27 -191.87,-191.65 -191.95,-191.04 -192.23,-190.48 -192.51,-189.93 -192.95,-189.49 -193.39,-189.05 -193.95,-188.78 -194.51,-188.50 -195.12,-188.42 -195.74,-188.34 -196.35,-188.46 -196.96,-188.58 -197.50,-188.89 -198.04,-189.20 -198.45,-189.66 -198.87,-190.12 -199.11,-190.70 -199.35,-191.27 -199.40,-191.89 -199.45,-192.51 -199.30,-193.11 -199.14,-193.71 -198.81,-194.23 -198.47,-194.76 -198.47,-194.76 -198.47,-194.75 -197.00,-196.23 -195.53,-197.70 -193.77,-199.32 -192.02,-200.93 -189.72,-203.23 -187.42,-205.52 -184.61,-208.77 -181.81,-212.03 -178.58,-216.07 -175.35,-220.11 -172.08,-224.63 -168.81,-229.16 -165.56,-233.91 -162.31,-238.67 -159.28,-243.02 -156.25,-247.37 -153.52,-250.98 -150.80,-254.59 -148.16,-257.22 -145.53,-259.84 -142.96,-261.64 -140.40,-263.43 -137.73,-264.55 -135.05,-265.66 -132.61,-265.97 -130.18,-266.28 -127.96,-266.15 -125.75,-266.02 -123.18,-265.82 -120.62,-265.62 -117.66,-265.38 -114.71,-265.15 -111.33,-264.85 -107.94,-264.55 -104.10,-264.23 -100.26,-263.92 -95.72,-263.54 -91.19,-263.16 -85.71,-262.62 -80.23,-262.07 -73.88,-261.31 -67.53,-260.56 -60.36,-259.54 -53.20,-258.53 -45.43,-257.33 -37.66,-256.14 -29.61,-254.76 -21.56,-253.38 -13.41,-251.80 -5.26,-250.21 2.79,-248.46 10.84,-246.70 18.80,-244.93 26.75,-243.17 34.71,-241.48 42.68,-239.80 50.66,-238.13 58.64,-236.46 66.75,-234.58 74.86,-232.70 82.81,-230.61 90.76,-228.52 98.29,-226.07 105.82,-223.62 112.97,-220.71 120.12,-217.80 126.72,-214.67 133.33,-211.53 139.40,-208.40 145.47,-205.26 151.29,-202.21 157.10,-199.15 162.72,-196.18 168.34,-193.21 173.84,-190.21 179.33,-187.21 184.73,-184.13 190.13,-181.05 195.33,-177.96 200.53,-174.86 205.28,-171.91 210.04,-168.96 214.36,-166.22 218.67,-163.47 222.72,-160.79 226.76,-158.11 230.60,-155.32 234.44,-152.54 238.20,-149.48 241.96,-146.42 245.79,-143.06 249.62,-139.69 253.40,-135.95 257.18,-132.21 260.74,-127.96 264.30,-123.71 267.56,-118.79 270.82,-113.86 273.71,-108.24 276.61,-102.63 279.11,-96.45 281.62,-90.28 283.71,-83.78 285.80,-77.27 287.59,-70.68 289.39,-64.09 290.94,-57.21 292.50,-50.34 293.88,-42.85 295.26,-35.35 296.53,-27.35 297.80,-19.35 298.92,-11.13 300.03,-2.92 301.14,5.18 302.25,13.28 303.32,20.76 304.38,28.25 305.16,34.78 305.93,41.31 306.25,46.76 306.57,52.20 306.62,56.66 306.67,61.13 306.44,65.03 306.21,68.94 305.50,72.46 304.78,75.98 303.45,79.05 302.13,82.13 300.30,84.76 298.46,87.40 296.11,89.87 293.76,92.35 290.91,94.84 288.06,97.34 284.50,100.20 280.95,103.07 276.60,106.38 272.26,109.69 267.36,113.22 262.46,116.76 256.95,120.46 251.45,124.16 245.33,127.92 239.21,131.68 232.47,135.34 225.73,139.00 218.51,142.52 211.29,146.04 203.73,149.45 196.18,152.86 188.67,156.07 181.17,159.28 173.93,162.31 166.68,165.33 159.68,168.21 152.69,171.09 145.79,173.75 138.89,176.41 131.65,178.67 124.42,180.93 116.57,182.65 108.72,184.38 100.24,185.34 91.77,186.30 83.15,186.46 74.54,186.62 66.61,186.33 58.68,186.04 51.67,185.41 44.65,184.77 38.25,183.72 31.85,182.66 25.61,181.19 19.37,179.72 13.02,177.90 6.67,176.08 0.32,173.97 -6.02,171.85 -12.24,169.45 -18.46,167.05 -24.43,164.37 -30.40,161.70 -35.96,158.81 -41.52,155.93 -46.69,153.01 -51.86,150.09 -56.67,147.14 -61.48,144.19 -66.01,141.10 -70.54,138.02 -74.92,134.80 -79.31,131.59 -83.47,128.30 -87.64,125.01 -91.45,121.76 -95.26,118.51 -98.76,115.37 -102.27,112.23 -105.51,109.23 -108.74,106.23 -111.76,103.32 -114.77,100.41 -117.65,97.55 -120.54,94.69 -123.20,91.89 -125.86,89.09 -128.28,86.25 -130.70,83.40 -132.94,80.38 -135.17,77.36 -137.23,74.21 -139.29,71.06 -141.26,67.78 -143.22,64.50 -145.14,61.09 -147.06,57.68 -148.91,54.29 -150.76,50.91 -152.47,47.54 -154.18,44.18 -155.70,40.85 -157.22,37.52 -158.47,34.26 -159.72,31.00 -160.75,27.72 -161.78,24.45 -162.67,21.17 -163.57,17.89 -164.27,14.64 -164.97,11.39 -165.44,8.10 -165.91,4.81 -166.13,1.67 -166.36,-1.45 -166.49,-4.60 -166.62,-7.74 -166.65,-11.09 -166.69,-14.45 -166.63,-17.85 -166.56,-21.26 -166.53,-24.87 -166.49,-28.47 -166.52,-32.36 -166.55,-36.24 -166.59,-40.17 -166.64,-44.09 -166.66,-47.90 -166.68,-51.71 -166.70,-55.54 -166.72,-59.37 -166.67,-63.07 -166.63,-66.77 -166.41,-70.11 -166.19,-73.46 -165.74,-76.71 -165.29,-79.96 -164.55,-83.37 -163.82,-86.78 -162.77,-90.49 -161.72,-94.20 -160.33,-97.92 -158.94,-101.64 -157.24,-105.18 -155.54,-108.72 -153.47,-112.78 -151.39,-116.84 -148.85,-121.44 -146.31,-126.05 -143.55,-130.71 -140.78,-135.38 -138.00,-139.95 -135.21,-144.53 -132.49,-148.85 -129.77,-153.17 -127.14,-157.17 -124.51,-161.18 -122.02,-164.84 -119.52,-168.51 -117.10,-171.73 -114.68,-174.95 -112.30,-177.71 -109.91,-180.48 -107.76,-182.65 -105.60,-184.82 -103.57,-186.81 -101.55,-188.79 -99.40,-190.79 -97.26,-192.79 -95.22,-194.40 -93.18,-196.00 -91.27,-197.20 -89.36,-198.41 -87.30,-199.50 -85.24,-200.58 -83.00,-201.52 -80.76,-202.45 -78.36,-203.18 -75.97,-203.91 -73.37,-204.49 -70.78,-205.07 -67.98,-205.59 -65.17,-206.12 -62.30,-206.59 -59.43,-207.06 -56.31,-207.45 -53.19,-207.84 -49.84,-208.03 -46.48,-208.22 -43.34,-208.21 -40.20,-208.19 -37.20,-208.13 -34.20,-208.07 -31.16,-207.98 -28.11,-207.89 -25.01,-207.71 -21.90,-207.53 -18.90,-207.17 -15.89,-206.80 -12.73,-206.19 -9.56,-205.58 -6.12,-204.61 -2.68,-203.63 0.43,-202.26 3.54,-200.89 6.47,-199.24 9.39,-197.59 12.36,-195.75 15.33,-193.90 18.43,-191.90 21.53,-189.90 24.86,-187.67 28.18,-185.45 31.40,-183.04 34.62,-180.64 37.85,-178.08 41.07,-175.51 44.20,-172.89 47.33,-170.28 50.68,-167.47 54.03,-164.66 57.77,-161.50 61.51,-158.35 65.19,-155.12 68.86,-151.90 72.27,-148.73 75.68,-145.56 78.93,-142.48 82.18,-139.39 85.39,-136.42 88.61,-133.44 91.80,-130.61 95.00,-127.78 98.07,-125.15 101.14,-122.51 103.90,-120.11 106.66,-117.70 109.21,-115.38 111.77,-113.06 114.14,-110.84 116.50,-108.62 118.62,-106.50 120.74,-104.38 122.66,-102.30 124.57,-100.21 126.35,-98.23 128.13,-96.25 129.91,-94.29 131.69,-92.32 133.32,-90.48 134.95,-88.63 136.45,-86.90 137.94,-85.18 139.38,-83.40 140.81,-81.62 142.12,-79.70 143.43,-77.77 144.56,-75.68 145.68,-73.59 146.63,-71.36 147.57,-69.13 148.37,-66.75 149.17,-64.37 149.78,-61.99 150.40,-59.62 150.90,-57.29 151.40,-54.97 151.82,-52.51 152.25,-50.06 152.49,-47.49 152.74,-44.92 152.76,-42.28 152.78,-39.64 152.68,-36.98 152.58,-34.33 152.44,-31.65 152.31,-28.97 152.10,-26.21 151.89,-23.45 151.54,-20.50 151.20,-17.56 150.67,-14.32 150.13,-11.07 149.42,-7.57 148.71,-4.07 147.80,-0.27 146.90,3.52 145.77,7.74 144.65,11.97 143.17,16.09 141.68,20.21 139.82,23.86 137.95,27.50 135.74,30.82 133.53,34.14 131.15,36.87 128.77,39.61 126.21,42.10 123.64,44.59 120.79,47.05 117.94,49.51 115.10,51.62 112.26,53.72 109.40,55.55 106.55,57.38 103.67,58.97 100.80,60.55 97.98,61.95 95.17,63.34 92.41,64.58 89.65,65.83 86.70,67.09 83.75,68.36 80.64,69.61 77.52,70.87 74.34,72.02 71.17,73.17 67.71,74.30 64.26,75.42 60.57,76.37 56.87,77.31 53.10,77.84 49.33,78.37 45.72,78.52 42.12,78.66 38.62,78.67 35.13,78.67 31.63,78.59 28.12,78.51 24.81,78.23 21.50,77.95 18.28,77.56 15.06,77.17 11.98,76.74 8.90,76.31 6.13,75.82 3.35,75.33 0.41,74.82 -2.52,74.32 -5.52,73.79 -8.52,73.27 -11.39,72.66 -14.25,72.06 -17.01,71.41 -19.77,70.76 -22.64,70.03 -25.50,69.31 -28.45,68.44 -31.39,67.56 -33.96,66.59 -36.53,65.61 -38.95,64.54 -41.37,63.47 -43.73,62.31 -46.09,61.15 -48.32,59.95 -50.54,58.74 -52.76,57.46 -54.98,56.17 -56.95,54.85 -58.93,53.53 -60.64,52.27 -62.36,51.01 -65.45,48.54 -68.55,46.07 -71.04,43.73 -73.53,41.40 -75.77,38.90 -78.01,36.40 -79.93,33.62 -81.84,30.84 -83.37,28.04 -84.90,25.23 -86.50,22.31 -88.10,19.39 -89.71,16.23 -91.32,13.07 -93.14,9.53 -94.96,5.99 -96.00,3.96 -97.03,1.93 -98.18,-0.35 -99.32,-2.64 -100.52,-5.18 -101.72,-7.72 -102.77,-10.45 -103.82,-13.19 -104.56,-16.14 -105.30,-19.09 -105.57,-21.79 -105.84,-24.48 -105.72,-28.59 -105.59,-32.69 -104.93,-36.60 -104.27,-40.50 -102.86,-44.25 -101.44,-48.00 -100.51,-50.11 -99.57,-52.22 -98.45,-54.49 -97.33,-56.75 -96.02,-59.00 -94.72,-61.25 -93.30,-63.35 -91.88,-65.44 -90.45,-67.18 -89.02,-68.92 -87.45,-70.73 -85.88,-72.53 -84.19,-74.46 -82.50,-76.39 -80.78,-78.29 -79.06,-80.19 -77.31,-81.98 -75.57,-83.77 -73.81,-85.25 -72.04,-86.73 -69.05,-88.29 -66.06,-89.86 -62.87,-90.79 -59.68,-91.73 -56.63,-91.99 -53.57,-92.25 -50.50,-92.25 -47.43,-92.25 -43.75,-92.24 -40.06,-92.23 -37.02,-92.10 -33.98,-91.98 -31.14,-91.72 -28.30,-91.46 -25.72,-90.87 -23.15,-90.27 -20.40,-89.26 -17.65,-88.25 -15.03,-86.88 -12.40,-85.51 -9.98,-83.91 -7.57,-82.31 -5.68,-80.88 -3.79,-79.45 -1.86,-77.85 0.06,-76.25 2.27,-74.16 4.47,-72.06 6.67,-69.73 8.86,-67.41 11.02,-65.05 13.18,-62.69 15.16,-60.29 17.14,-57.89 18.83,-55.42 20.52,-52.96 21.82,-50.49 23.12,-48.02 24.10,-45.57 25.08,-43.12 25.79,-41.06 26.51,-39.00 27.19,-36.67 27.87,-34.35 27.86,-31.90 27.84,-29.45 27.81,-26.79 27.78,-24.13 27.70,-21.18 27.62,-18.23 27.23,-16.06 26.84,-13.89 24.79,-11.30 22.74,-8.71 20.56,-6.94 18.37,-5.17 16.08,-3.48 13.79,-1.78 11.99,-0.59 10.19,0.60 8.02,1.76 5.86,2.92 4.24,3.76 2.63,4.61 2.04,4.86 1.45,5.10 0.82,5.20 0.18,5.30 -0.44,5.25 -1.08,5.19 -1.69,4.99 -2.29,4.78 -2.83,4.44 -3.37,4.09 -3.82,3.63 -4.26,3.17 -4.57,2.61 -4.89,2.05 -5.07,1.44 -5.24,0.82 -5.26,0.18 -5.29,-0.45 -5.16,-1.07 -5.02,-1.70 -4.75,-2.28 -4.47,-2.86 -4.06,-3.35 -3.66,-3.84 -3.14,-4.23 -2.63,-4.61 -2.63,-4.61 L -2.63,-4.61 Z"/></g><g transform="translate(10.10546875 307.8671875) rotate(0 379.0390625 -3.625)" stroke="none"><path fill="#1e1e1e" d="M -0.08,-3.46 Q -0.08,-3.46 2.76,-3.67 5.61,-3.89 8.61,-4.02 11.60,-4.16 14.87,-4.21 18.13,-4.26 22.10,-4.16 26.07,-4.05 30.84,-3.89 35.60,-3.73 40.91,-3.62 46.21,-3.50 52.08,-3.42 57.94,-3.33 64.22,-3.27 70.50,-3.21 77.42,-3.16 84.33,-3.11 91.75,-3.08 99.16,-3.05 106.55,-3.02 113.94,-3.00 120.96,-2.98 127.98,-2.96 134.45,-2.95 140.91,-2.94 147.05,-2.93 153.19,-2.92 159.15,-2.86 165.10,-2.80 170.93,-2.56 176.77,-2.32 182.36,-1.84 187.96,-1.36 193.16,-0.71 198.36,-0.07 203.21,0.54 208.05,1.17 212.66,1.72 217.28,2.27 221.90,2.72 226.53,3.16 231.50,3.50 236.48,3.84 241.76,4.22 247.05,4.59 252.48,5.06 257.92,5.53 263.86,6.05 269.81,6.57 276.98,7.10 284.14,7.64 293.09,8.01 302.04,8.38 313.18,8.54 324.32,8.70 337.56,8.76 350.81,8.83 365.48,8.86 380.15,8.89 395.78,8.90 411.41,8.91 430.15,8.72 448.90,8.53 469.14,7.33 489.37,6.14 509.13,3.79 528.89,1.44 549.10,-0.86 569.31,-3.18 586.95,-4.65 604.60,-6.13 620.38,-6.86 636.16,-7.60 650.11,-7.91 664.06,-8.22 674.16,-8.38 684.25,-8.53 691.69,-8.67 699.12,-8.81 704.50,-8.93 709.87,-9.05 713.43,-9.26 717.00,-9.48 719.54,-9.92 722.08,-10.37 724.68,-11.20 727.28,-12.03 730.71,-13.22 734.14,-14.40 737.79,-15.72 741.44,-17.03 744.51,-18.25 747.57,-19.46 749.78,-20.38 751.99,-21.30 754.40,-22.00 756.82,-22.70 757.48,-22.74 758.14,-22.79 758.78,-22.62 759.42,-22.45 759.98,-22.09 760.53,-21.72 760.94,-21.20 761.35,-20.68 761.57,-20.05 761.79,-19.43 761.80,-18.77 761.81,-18.10 761.61,-17.47 761.40,-16.84 761.01,-16.31 760.62,-15.77 760.07,-15.39 759.53,-15.01 758.89,-14.83 758.26,-14.64 757.59,-14.67 756.93,-14.69 756.31,-14.93 755.69,-15.17 755.18,-15.59 754.67,-16.01 754.32,-16.57 753.97,-17.14 753.82,-17.78 753.67,-18.43 753.73,-19.09 753.79,-19.75 754.06,-20.35 754.33,-20.96 754.78,-21.45 755.23,-21.93 755.81,-22.25 756.39,-22.57 757.04,-22.69 757.70,-22.80 758.35,-22.71 759.01,-22.61 759.60,-22.31 760.19,-22.00 760.65,-21.53 761.11,-21.06 761.40,-20.46 761.69,-19.86 761.77,-19.20 761.85,-18.54 761.72,-17.90 761.58,-17.25 761.25,-16.67 760.92,-16.10 760.42,-15.66 759.92,-15.23 759.31,-14.97 758.69,-14.72 758.69,-14.72 758.69,-14.72 756.61,-14.22 754.53,-13.72 752.31,-13.16 750.10,-12.59 746.99,-11.54 743.87,-10.48 740.19,-9.07 736.51,-7.65 732.79,-6.33 729.08,-5.02 725.88,-4.37 722.69,-3.72 719.90,-3.69 717.12,-3.66 713.55,-3.73 709.99,-3.80 704.61,-3.68 699.23,-3.56 691.78,-3.42 684.33,-3.28 674.25,-3.12 664.18,-2.97 650.29,-2.66 636.40,-2.35 620.72,-1.62 605.04,-0.89 587.47,0.56 569.91,2.03 549.71,4.35 529.51,6.66 509.60,9.02 489.68,11.38 469.32,12.58 448.95,13.78 430.18,13.97 411.40,14.17 395.77,14.15 380.14,14.14 365.46,14.11 350.78,14.08 337.51,14.02 324.25,13.95 313.03,13.79 301.82,13.63 292.78,13.25 283.75,12.88 276.55,12.34 269.35,11.81 263.41,11.29 257.47,10.77 252.07,10.30 246.68,9.84 241.40,9.47 236.12,9.09 231.07,8.75 226.03,8.40 221.34,7.95 216.66,7.50 212.02,6.95 207.37,6.40 202.55,5.78 197.72,5.16 192.61,4.53 187.51,3.91 182.03,3.44 176.55,2.97 170.80,2.74 165.05,2.52 159.12,2.47 153.19,2.42 147.05,2.43 140.91,2.44 134.45,2.45 127.98,2.46 120.96,2.48 113.94,2.50 106.55,2.52 99.16,2.55 91.75,2.58 84.33,2.61 77.42,2.66 70.50,2.71 64.22,2.77 57.94,2.83 52.08,2.92 46.21,3.00 40.91,3.12 35.60,3.24 30.84,3.40 26.08,3.56 22.13,3.68 18.17,3.80 14.93,3.77 11.68,3.75 8.74,3.67 5.80,3.60 2.94,3.53 0.08,3.46 -0.32,3.42 -0.74,3.38 -1.13,3.24 -1.53,3.10 -1.88,2.87 -2.22,2.64 -2.51,2.34 -2.79,2.03 -3.00,1.67 -3.20,1.30 -3.31,0.90 -3.42,0.50 -3.43,0.08 -3.44,-0.33 -3.35,-0.73 -3.26,-1.14 -3.08,-1.52 -2.89,-1.89 -2.62,-2.21 -2.35,-2.53 -2.02,-2.77 -1.68,-3.02 -1.29,-3.18 -0.91,-3.33 -0.49,-3.39 -0.08,-3.46 -0.08,-3.46 L -0.08,-3.46 Z"/></g><g transform="translate(708.30859375 267.03515625) rotate(0 -2.33984375 32.240234375)" stroke="none"><path fill="#1e1e1e" d="M 0,-5.31 Q 0,-5.31 2.39,-5.33 4.79,-5.36 8.95,-5.22 13.12,-5.09 16.65,-4.07 20.19,-3.06 22.25,-2.17 24.31,-1.28 26.54,0.55 28.77,2.39 30.89,4.78 33.01,7.18 35.38,9.73 37.75,12.27 39.70,14.27 41.66,16.26 42.65,18.47 43.65,20.68 44.94,23.10 46.23,25.53 47.41,27.36 48.60,29.19 49.04,31.35 49.49,33.51 48.10,36.31 46.70,39.10 44.50,40.11 42.30,41.12 39.99,41.21 37.69,41.30 33.18,41.60 28.67,41.90 21.66,43.33 14.64,44.75 6.83,47.10 -0.97,49.45 -7.99,51.99 -15.01,54.53 -21.00,56.82 -26.99,59.11 -31.59,60.86 -36.18,62.62 -38.92,63.90 -41.65,65.18 -43.97,66.31 -46.28,67.44 -46.83,67.67 -47.37,67.91 -47.96,67.96 -48.55,68.01 -49.13,67.87 -49.71,67.73 -50.21,67.41 -50.71,67.09 -51.08,66.63 -51.46,66.17 -51.66,65.61 -51.87,65.05 -51.89,64.46 -51.90,63.87 -51.73,63.30 -51.56,62.73 -51.21,62.25 -50.87,61.77 -50.39,61.42 -49.91,61.07 -49.34,60.90 -48.77,60.72 -48.18,60.73 -47.59,60.75 -47.03,60.95 -46.47,61.15 -46.01,61.52 -45.55,61.89 -45.22,62.39 -44.90,62.89 -44.76,63.47 -44.61,64.04 -44.66,64.64 -44.71,65.23 -44.94,65.77 -45.17,66.32 -45.57,66.76 -45.96,67.20 -46.48,67.50 -46.99,67.79 -47.58,67.90 -48.16,68.02 -48.75,67.94 -49.33,67.86 -49.87,67.60 -50.40,67.34 -50.82,66.92 -51.24,66.50 -51.51,65.97 -51.77,65.44 -51.85,64.85 -51.93,64.26 -51.82,63.68 -51.71,63.10 -51.42,62.58 -51.13,62.06 -50.69,61.66 -50.25,61.27 -50.25,61.27 -50.25,61.27 -47.32,59.89 -44.40,58.50 -41.56,57.49 -38.72,56.47 -34.22,54.48 -29.73,52.48 -23.82,49.85 -17.91,47.22 -10.87,44.17 -3.82,41.12 4.14,38.07 12.11,35.03 19.42,32.74 26.73,30.45 33.50,29.79 40.27,29.14 39.07,33.41 37.88,37.69 36.73,35.85 35.58,34.01 34.28,31.59 32.99,29.16 32.25,26.80 31.51,24.43 30.00,22.67 28.49,20.92 26.00,18.20 23.52,15.49 21.53,13.10 19.55,10.72 17.73,9.25 15.92,7.77 13.87,6.89 11.82,6.00 8.31,5.68 4.79,5.36 2.39,5.33 0,5.31 -0.63,5.23 -1.27,5.15 -1.87,4.93 -2.46,4.70 -2.99,4.34 -3.52,3.97 -3.94,3.49 -4.37,3.01 -4.66,2.45 -4.96,1.88 -5.12,1.26 -5.27,0.64 -5.27,-0.00 -5.27,-0.64 -5.12,-1.26 -4.96,-1.88 -4.66,-2.45 -4.37,-3.01 -3.94,-3.49 -3.52,-3.97 -2.99,-4.34 -2.46,-4.70 -1.86,-4.93 -1.27,-5.15 -0.63,-5.23 0.00,-5.31 0.00,-5.31 L 0,-5.31 Z"/></g><g transform="translate(256.2265625 10) rotate(0 -5.3984375 279.55078125)" stroke="none"><path fill="#1e1e1e" d="M 3.12,0 Q 3.12,0 3.05,7.38 2.98,14.76 2.93,28.35 2.88,41.95 2.85,58.49 2.81,75.02 2.79,93.43 2.76,111.83 2.74,131.62 2.72,151.40 2.71,170.87 2.69,190.34 2.68,208.63 2.67,226.91 2.67,242.33 2.66,257.75 2.65,270.54 2.65,283.32 2.65,294.85 2.64,306.39 2.64,316.68 2.64,326.97 2.50,337.32 2.36,347.66 1.54,364.19 0.72,380.73 -0.12,394.54 -0.97,408.34 -1.98,422.20 -2.98,436.06 -3.92,448.43 -4.87,460.79 -5.56,472.08 -6.25,483.38 -6.73,494.00 -7.20,504.62 -7.48,512.91 -7.76,521.19 -7.87,527.02 -7.99,532.84 -7.98,536.84 -7.98,540.84 -7.76,543.28 -7.53,545.73 -7.16,549.08 -6.78,552.44 -6.50,555.34 -6.23,558.25 -6.32,558.96 -6.41,559.68 -6.72,560.33 -7.04,560.97 -7.54,561.49 -8.05,562.00 -8.69,562.33 -9.33,562.65 -10.04,562.76 -10.76,562.86 -11.46,562.73 -12.17,562.60 -12.80,562.25 -13.43,561.91 -13.92,561.37 -14.41,560.84 -14.70,560.18 -14.99,559.52 -15.05,558.81 -15.12,558.09 -14.95,557.39 -14.78,556.69 -14.40,556.08 -14.02,555.47 -13.46,555.01 -12.90,554.56 -12.23,554.30 -11.56,554.05 -10.84,554.02 -10.12,553.99 -9.43,554.20 -8.73,554.40 -8.15,554.82 -7.56,555.23 -7.13,555.82 -6.71,556.40 -6.49,557.08 -6.27,557.77 -6.28,558.49 -6.30,559.21 -6.54,559.89 -6.78,560.57 -7.23,561.13 -7.67,561.70 -8.28,562.09 -8.88,562.48 -9.58,562.66 -10.27,562.84 -10.99,562.79 -11.71,562.74 -12.38,562.46 -13.04,562.18 -13.58,561.71 -14.12,561.23 -14.48,560.61 -14.84,559.98 -14.98,559.28 -15.13,558.57 -15.13,558.57 -15.13,558.57 -14.96,555.50 -14.79,552.42 -14.39,549.05 -13.99,545.67 -13.72,543.22 -13.46,540.77 -13.35,536.75 -13.25,532.74 -13.13,526.88 -13.01,521.02 -12.73,512.70 -12.46,504.39 -11.98,493.72 -11.50,483.06 -10.81,471.72 -10.11,460.39 -9.17,448.04 -8.23,435.68 -7.23,421.85 -6.23,408.02 -5.38,394.24 -4.54,380.47 -3.72,364.03 -2.90,347.59 -2.77,337.28 -2.64,326.97 -2.64,316.68 -2.64,306.39 -2.65,294.85 -2.65,283.32 -2.65,270.54 -2.66,257.75 -2.67,242.33 -2.67,226.91 -2.68,208.63 -2.69,190.34 -2.71,170.87 -2.72,151.40 -2.74,131.62 -2.76,111.83 -2.79,93.43 -2.81,75.02 -2.85,58.49 -2.88,41.95 -2.93,28.35 -2.98,14.76 -3.05,7.38 -3.12,0 -3.07,-0.37 -3.03,-0.74 -2.90,-1.09 -2.76,-1.45 -2.55,-1.76 -2.33,-2.07 -2.05,-2.32 -1.77,-2.57 -1.44,-2.74 -1.10,-2.92 -0.74,-3.01 -0.37,-3.10 0.00,-3.10 0.37,-3.10 0.74,-3.01 1.10,-2.92 1.44,-2.74 1.77,-2.57 2.05,-2.32 2.33,-2.07 2.55,-1.76 2.76,-1.45 2.90,-1.09 3.03,-0.74 3.07,-0.37 3.12,0.00 3.12,0.00 L 3.12,0 Z"/></g><g transform="translate(260.265625 15.2265625) rotate(0 -13.462890625 10.94140625)" stroke="none"><path fill="#1e1e1e" d="M 3.65,3.67 Q 3.65,3.67 0.83,6.19 -1.97,8.71 -3.84,10.60 -5.72,12.48 -8.34,14.78 -10.97,17.08 -13.31,18.98 -15.66,20.87 -17.88,22.67 -20.11,24.46 -21.81,25.59 -23.52,26.72 -24.40,27.08 -25.27,27.44 -26.22,27.50 -27.17,27.56 -28.09,27.32 -29.01,27.07 -29.80,26.55 -30.59,26.02 -31.17,25.27 -31.76,24.52 -32.07,23.63 -32.38,22.73 -32.39,21.78 -32.40,20.83 -32.11,19.92 -31.81,19.02 -31.25,18.26 -30.68,17.50 -29.90,16.95 -29.12,16.41 -28.21,16.15 -27.29,15.89 -26.34,15.93 -25.39,15.97 -24.51,16.31 -23.62,16.65 -22.89,17.26 -22.16,17.87 -21.66,18.68 -21.16,19.49 -20.95,20.41 -20.74,21.34 -20.83,22.28 -20.92,23.23 -21.31,24.10 -21.70,24.96 -22.35,25.66 -22.99,26.36 -23.83,26.81 -24.66,27.26 -25.60,27.43 -26.54,27.59 -27.48,27.45 -28.42,27.30 -29.26,26.87 -30.10,26.43 -30.76,25.75 -31.42,25.06 -31.83,24.21 -32.24,23.35 -32.35,22.40 -32.46,21.46 -32.27,20.53 -32.08,19.60 -31.59,18.78 -31.11,17.96 -30.39,17.34 -29.68,16.72 -29.68,16.72 -29.68,16.72 -28.27,15.84 -26.87,14.97 -24.60,13.45 -22.32,11.93 -19.75,10.25 -17.17,8.57 -14.85,7.03 -12.53,5.50 -10.62,3.71 -8.72,1.91 -6.18,-0.88 -3.65,-3.67 -3.15,-4.06 -2.66,-4.44 -2.09,-4.70 -1.52,-4.95 -0.90,-5.06 -0.29,-5.17 0.32,-5.13 0.95,-5.09 1.54,-4.90 2.14,-4.72 2.67,-4.39 3.21,-4.06 3.65,-3.62 4.09,-3.18 4.41,-2.64 4.73,-2.11 4.91,-1.51 5.10,-0.91 5.13,-0.29 5.17,0.33 5.05,0.94 4.94,1.56 4.68,2.12 4.42,2.69 4.04,3.18 3.65,3.67 3.65,3.67 L 3.65,3.67 Z"/></g><g transform="translate(259.40625 13.375) rotate(0 7.3515625 10.123046875)" stroke="none"><path fill="#1e1e1e" d="M 4.28,-3.12 Q 4.28,-3.12 5.74,-1.16 7.19,0.78 9.23,3.29 11.26,5.79 12.94,7.88 14.62,9.96 16.21,12.01 17.79,14.06 18.65,15.31 19.50,16.56 19.93,17.45 20.37,18.34 20.49,19.32 20.61,20.30 20.42,21.27 20.22,22.24 19.72,23.10 19.23,23.95 18.49,24.61 17.74,25.26 16.83,25.64 15.92,26.02 14.93,26.09 13.95,26.16 12.99,25.91 12.03,25.67 11.21,25.12 10.38,24.58 9.77,23.81 9.16,23.03 8.83,22.10 8.49,21.17 8.48,20.18 8.46,19.19 8.76,18.25 9.06,17.31 9.65,16.51 10.23,15.71 11.04,15.14 11.85,14.58 12.80,14.30 13.74,14.01 14.73,14.05 15.72,14.09 16.64,14.44 17.57,14.79 18.33,15.42 19.10,16.04 19.62,16.88 20.14,17.72 20.37,18.68 20.60,19.64 20.51,20.63 20.42,21.61 20.02,22.52 19.62,23.42 18.95,24.15 18.28,24.88 17.42,25.36 16.55,25.83 15.58,26.01 14.61,26.19 13.63,26.04 12.65,25.90 11.77,25.45 10.89,25.00 10.20,24.30 9.51,23.59 9.51,23.59 9.51,23.59 8.62,22.23 7.73,20.86 6.47,18.93 5.22,17.00 3.73,14.76 2.24,12.53 0.39,9.81 -1.45,7.09 -2.86,5.10 -4.28,3.12 -4.59,2.56 -4.91,2.00 -5.08,1.39 -5.25,0.77 -5.26,0.13 -5.28,-0.50 -5.14,-1.12 -5.00,-1.75 -4.72,-2.32 -4.44,-2.90 -4.03,-3.39 -3.62,-3.88 -3.10,-4.25 -2.58,-4.63 -1.99,-4.87 -1.40,-5.11 -0.76,-5.21 -0.13,-5.30 0.49,-5.24 1.13,-5.18 1.74,-4.97 2.34,-4.76 2.87,-4.41 3.41,-4.06 3.85,-3.59 4.28,-3.12 4.28,-3.12 L 4.28,-3.12 Z"/></g><g transform="translate(261.1171875 301.9375) rotate(0 -2.828125 -5.185546875)" stroke="none"><path fill="#1e1e1e" d="M -2.00,-4.86 Q -2.00,-4.86 -1.87,-4.36 -1.75,-3.86 -4.56,-3.68 -7.37,-3.50 -4.96,-5.19 -2.56,-6.88 -0.87,-5.05 0.81,-3.22 0.74,-2.17 0.68,-1.11 0.29,-0.13 -0.10,0.84 -0.78,1.64 -1.47,2.44 -2.38,2.98 -3.29,3.52 -4.32,3.75 -5.35,3.97 -6.40,3.85 -7.45,3.73 -8.41,3.29 -9.36,2.84 -10.13,2.11 -10.89,1.38 -11.38,0.44 -11.88,-0.48 -12.04,-1.53 -12.21,-2.57 -12.03,-3.61 -11.86,-4.65 -11.36,-5.58 -10.86,-6.52 -10.09,-7.24 -9.32,-7.96 -8.36,-8.40 -7.40,-8.84 -6.35,-8.95 -5.30,-9.06 -4.27,-8.83 -3.24,-8.60 -2.33,-8.05 -1.43,-7.50 -0.75,-6.69 -0.07,-5.89 0.31,-4.90 0.69,-3.92 0.75,-2.87 0.80,-1.81 0.51,-0.79 0.23,0.21 -0.36,1.09 -0.96,1.96 -1.80,2.59 -2.64,3.23 -3.65,3.56 -4.65,3.90 -5.71,3.89 -6.76,3.89 -7.76,3.55 -8.76,3.20 -9.60,2.56 -10.44,1.92 -11.03,1.04 -11.62,0.16 -11.90,-0.84 -12.17,-1.86 -12.17,-1.86 -12.17,-1.86 -11.40,-0.22 -10.63,1.41 -12.36,-0.85 -14.09,-3.12 -14.39,-6.33 -14.69,-9.54 -13.56,-11.57 -12.43,-13.59 -10.07,-14.54 -7.70,-15.48 -5.53,-15.13 -3.36,-14.77 -0.31,-12.65 2.73,-10.54 4.26,-8.84 5.79,-7.14 6.59,-4.66 7.39,-2.19 6.40,0.08 5.42,2.35 3.71,3.61 2.00,4.86 1.38,5.03 0.77,5.20 0.14,5.21 -0.48,5.23 -1.10,5.10 -1.72,4.96 -2.29,4.68 -2.86,4.40 -3.35,4.00 -3.83,3.59 -4.21,3.08 -4.58,2.57 -4.82,1.98 -5.06,1.39 -5.16,0.77 -5.25,0.14 -5.19,-0.48 -5.13,-1.11 -4.93,-1.71 -4.72,-2.31 -4.37,-2.84 -4.03,-3.37 -3.56,-3.81 -3.10,-4.24 -2.55,-4.55 -1.99,-4.86 -2.00,-4.86 L -2.00,-4.86 Z"/></g><g transform="translate(277.61328125 290.98046875) rotate(0 0 0.05859375)" stroke="none"><path fill="#1e1e1e" d="M 4.45,0.06 Q 4.45,0.06 4.34,0.77 4.22,1.49 3.88,2.12 3.54,2.76 3.02,3.26 2.50,3.75 1.84,4.05 1.19,4.36 0.47,4.44 -0.24,4.51 -0.94,4.36 -1.65,4.20 -2.26,3.83 -2.88,3.46 -3.35,2.91 -3.81,2.36 -4.08,1.69 -4.35,1.02 -4.39,0.30 -4.43,-0.41 -4.23,-1.10 -4.04,-1.80 -3.64,-2.40 -3.23,-2.99 -2.66,-3.43 -2.08,-3.87 -1.40,-4.10 -0.72,-4.33 0.00,-4.33 0.72,-4.33 1.40,-4.10 2.08,-3.87 2.66,-3.43 3.23,-2.99 3.64,-2.40 4.04,-1.80 4.23,-1.10 4.43,-0.41 4.39,0.30 4.35,1.02 4.08,1.69 3.81,2.36 3.35,2.91 2.88,3.46 2.26,3.83 1.64,4.20 0.94,4.36 0.24,4.51 -0.47,4.44 -1.19,4.36 -1.84,4.05 -2.50,3.75 -3.02,3.26 -3.54,2.76 -3.88,2.12 -4.22,1.48 -4.34,0.77 -4.45,0.06 -4.45,0.06 -4.45,0.06 -4.40,-0.46 -4.34,-1.00 -4.16,-1.50 -3.97,-2.01 -3.67,-2.45 -3.38,-2.90 -2.98,-3.26 -2.58,-3.63 -2.11,-3.88 -1.64,-4.14 -1.12,-4.28 -0.60,-4.41 -0.06,-4.42 0.47,-4.43 0.99,-4.31 1.51,-4.19 1.99,-3.94 2.47,-3.70 2.88,-3.35 3.29,-3.00 3.60,-2.56 3.91,-2.13 4.11,-1.63 4.31,-1.13 4.38,-0.59 4.45,-0.06 4.45,0.00 L 4.45,0.06 Z"/></g><g transform="translate(280.734375 299.8125) rotate(0 0.267578125 10.2265625)" stroke="none"><path fill="#1e1e1e" d="M 5.04,-0.16 Q 5.04,-0.16 5.19,1.76 5.33,3.70 5.53,6.27 5.74,8.84 5.93,10.96 6.12,13.09 6.39,16.43 6.66,19.76 6.55,20.75 6.43,21.74 6.01,22.64 5.58,23.54 4.89,24.26 4.20,24.98 3.32,25.44 2.43,25.90 1.45,26.05 0.46,26.20 -0.51,26.03 -1.49,25.86 -2.37,25.39 -3.24,24.92 -3.92,24.19 -4.60,23.46 -5.01,22.55 -5.42,21.64 -5.52,20.65 -5.62,19.66 -5.40,18.69 -5.18,17.72 -4.66,16.87 -4.14,16.02 -3.38,15.38 -2.61,14.74 -1.68,14.38 -0.75,14.02 0.23,13.97 1.23,13.93 2.18,14.20 3.14,14.48 3.96,15.04 4.78,15.61 5.38,16.41 5.97,17.20 6.29,18.15 6.60,19.10 6.59,20.09 6.58,21.09 6.25,22.03 5.93,22.97 5.32,23.76 4.71,24.55 3.88,25.10 3.05,25.65 2.09,25.91 1.13,26.17 0.13,26.11 -0.85,26.05 -1.77,25.67 -2.70,25.30 -3.45,24.64 -4.20,23.99 -4.71,23.14 -5.22,22.28 -5.42,21.30 -5.63,20.33 -5.63,20.33 -5.63,20.33 -5.67,17.01 -5.71,13.69 -5.51,11.32 -5.32,8.96 -5.20,6.51 -5.07,4.05 -5.06,2.11 -5.04,0.16 -4.99,-0.43 -4.94,-1.04 -4.74,-1.61 -4.54,-2.19 -4.21,-2.70 -3.88,-3.21 -3.44,-3.63 -3.00,-4.05 -2.47,-4.35 -1.94,-4.65 -1.36,-4.82 -0.77,-4.98 -0.16,-5.00 0.44,-5.02 1.03,-4.90 1.63,-4.77 2.17,-4.51 2.72,-4.24 3.19,-3.86 3.66,-3.47 4.02,-2.98 4.38,-2.49 4.62,-1.93 4.85,-1.37 4.95,-0.77 5.04,-0.16 5.04,-0.16 L 5.04,-0.16 Z"/></g></svg>